<svg width="30" height="19" viewBox="0 0 30 19" fill="none" xmlns="http://www.w3.org/2000/svg">
<path d="M1.83412 0.536865C1.19883 0.536865 0.683594 1.05882 0.683594 1.70272V17.6749C0.683594 18.3188 1.19909 18.8408 1.83412 18.8408H28.2963C28.9316 18.8408 29.4468 18.3188 29.4468 17.6749V1.70272C29.4468 1.05885 28.9313 0.536865 28.2963 0.536865H1.83412ZM17.8624 5.99177C18.5625 5.99177 19.1235 6.14846 19.4813 6.29417L19.2368 7.85259L19.075 7.7697C18.7417 7.624 18.3136 7.48377 17.7231 7.49371C17.0162 7.49371 16.6895 7.81324 16.6895 8.1122C16.6853 8.44904 17.0713 8.67119 17.7024 9.00387C18.7442 9.51714 19.2256 10.1395 19.2188 10.9576C19.2048 12.4504 17.9727 13.415 16.0746 13.415C15.2649 13.406 14.4847 13.2322 14.063 13.0315L14.3165 11.4212L14.5493 11.536C15.1423 11.8045 15.5263 11.9131 16.249 11.9131C16.768 11.9131 17.325 11.6929 17.3294 11.2108C17.3328 10.896 17.0966 10.6716 16.3937 10.3191C15.7088 9.97505 14.8008 9.39874 14.8109 8.36539C14.8216 6.9675 16.0783 5.99177 17.8624 5.99177ZM3.22733 6.2204H6.14231C6.53484 6.23544 6.85176 6.36351 6.96117 6.79513L7.58948 10.0814C7.58956 10.0817 7.58936 10.0829 7.58948 10.0832L7.77822 11.0678L9.54805 6.2204H11.4626L8.61684 13.3157L6.70409 13.3175L5.18145 7.59208C6.08743 8.07845 6.85875 8.64117 7.30544 9.41556C7.19027 9.17053 7.03852 8.89393 6.84434 8.62133C6.6182 8.30386 6.12983 7.89398 5.9257 7.7196C5.21438 7.11198 4.24837 6.62125 3.20487 6.36158L3.22733 6.2204ZM12.224 6.22859H14.0963L12.925 13.313H11.0527L12.224 6.22859ZM22.7989 6.22859H24.2173L25.7022 13.313H23.9998C23.9998 13.313 23.8309 12.4991 23.776 12.2509C23.5084 12.2509 21.637 12.2482 21.4264 12.2482C21.3551 12.44 21.0399 13.313 21.0399 13.313H19.1136L21.8381 6.81699C22.031 6.35537 22.3598 6.22859 22.7989 6.22859ZM22.9383 8.13403C22.8461 8.39754 22.6857 8.82308 22.6965 8.80439C22.6965 8.80439 22.1201 10.362 21.9693 10.7663L23.4838 10.7654C23.4109 10.4141 23.0614 8.73887 23.0614 8.73887L22.9383 8.13403Z" fill="#252886"/>
</svg>
