<svg width="373" height="159" viewBox="0 0 373 159" fill="none" xmlns="http://www.w3.org/2000/svg">
<rect width="373" height="159" rx="10" fill="#ECF2F8"/>
<path d="M26.55 122.385C26.55 123.015 26.4817 123.563 26.345 124.03C26.2117 124.493 26.025 124.877 25.785 125.18C25.5483 125.483 25.2667 125.71 24.94 125.86C24.6167 126.007 24.2667 126.08 23.89 126.08C23.5133 126.08 23.1633 126.007 22.84 125.86C22.52 125.71 22.2417 125.483 22.005 125.18C21.7683 124.877 21.5833 124.493 21.45 124.03C21.3167 123.563 21.25 123.015 21.25 122.385C21.25 121.752 21.3167 121.203 21.45 120.74C21.5833 120.277 21.7683 119.893 22.005 119.59C22.2417 119.287 22.52 119.062 22.84 118.915C23.1633 118.765 23.5133 118.69 23.89 118.69C24.2667 118.69 24.6167 118.765 24.94 118.915C25.2667 119.062 25.5483 119.287 25.785 119.59C26.025 119.893 26.2117 120.277 26.345 120.74C26.4817 121.203 26.55 121.752 26.55 122.385ZM25.275 122.385C25.275 121.862 25.2367 121.428 25.16 121.085C25.0833 120.742 24.98 120.468 24.85 120.265C24.7233 120.062 24.5767 119.92 24.41 119.84C24.2433 119.757 24.07 119.715 23.89 119.715C23.7133 119.715 23.5417 119.757 23.375 119.84C23.2117 119.92 23.0667 120.062 22.94 120.265C22.8133 120.468 22.7117 120.742 22.635 121.085C22.5617 121.428 22.525 121.862 22.525 122.385C22.525 122.908 22.5617 123.342 22.635 123.685C22.7117 124.028 22.8133 124.302 22.94 124.505C23.0667 124.708 23.2117 124.852 23.375 124.935C23.5417 125.015 23.7133 125.055 23.89 125.055C24.07 125.055 24.2433 125.015 24.41 124.935C24.5767 124.852 24.7233 124.708 24.85 124.505C24.98 124.302 25.0833 124.028 25.16 123.685C25.2367 123.342 25.275 122.908 25.275 122.385ZM32.3508 122.385C32.3508 123.015 32.2824 123.563 32.1458 124.03C32.0124 124.493 31.8258 124.877 31.5858 125.18C31.3491 125.483 31.0674 125.71 30.7408 125.86C30.4174 126.007 30.0674 126.08 29.6908 126.08C29.3141 126.08 28.9641 126.007 28.6408 125.86C28.3208 125.71 28.0424 125.483 27.8058 125.18C27.5691 124.877 27.3841 124.493 27.2508 124.03C27.1174 123.563 27.0508 123.015 27.0508 122.385C27.0508 121.752 27.1174 121.203 27.2508 120.74C27.3841 120.277 27.5691 119.893 27.8058 119.59C28.0424 119.287 28.3208 119.062 28.6408 118.915C28.9641 118.765 29.3141 118.69 29.6908 118.69C30.0674 118.69 30.4174 118.765 30.7408 118.915C31.0674 119.062 31.3491 119.287 31.5858 119.59C31.8258 119.893 32.0124 120.277 32.1458 120.74C32.2824 121.203 32.3508 121.752 32.3508 122.385ZM31.0758 122.385C31.0758 121.862 31.0374 121.428 30.9608 121.085C30.8841 120.742 30.7808 120.468 30.6508 120.265C30.5241 120.062 30.3774 119.92 30.2108 119.84C30.0441 119.757 29.8708 119.715 29.6908 119.715C29.5141 119.715 29.3424 119.757 29.1758 119.84C29.0124 119.92 28.8674 120.062 28.7408 120.265C28.6141 120.468 28.5124 120.742 28.4358 121.085C28.3624 121.428 28.3258 121.862 28.3258 122.385C28.3258 122.908 28.3624 123.342 28.4358 123.685C28.5124 124.028 28.6141 124.302 28.7408 124.505C28.8674 124.708 29.0124 124.852 29.1758 124.935C29.3424 125.015 29.5141 125.055 29.6908 125.055C29.8708 125.055 30.0441 125.015 30.2108 124.935C30.3774 124.852 30.5241 124.708 30.6508 124.505C30.7808 124.302 30.8841 124.028 30.9608 123.685C31.0374 123.342 31.0758 122.908 31.0758 122.385ZM38.1516 122.385C38.1516 123.015 38.0832 123.563 37.9466 124.03C37.8132 124.493 37.6266 124.877 37.3866 125.18C37.1499 125.483 36.8682 125.71 36.5416 125.86C36.2182 126.007 35.8682 126.08 35.4916 126.08C35.1149 126.08 34.7649 126.007 34.4416 125.86C34.1216 125.71 33.8432 125.483 33.6066 125.18C33.3699 124.877 33.1849 124.493 33.0516 124.03C32.9182 123.563 32.8516 123.015 32.8516 122.385C32.8516 121.752 32.9182 121.203 33.0516 120.74C33.1849 120.277 33.3699 119.893 33.6066 119.59C33.8432 119.287 34.1216 119.062 34.4416 118.915C34.7649 118.765 35.1149 118.69 35.4916 118.69C35.8682 118.69 36.2182 118.765 36.5416 118.915C36.8682 119.062 37.1499 119.287 37.3866 119.59C37.6266 119.893 37.8132 120.277 37.9466 120.74C38.0832 121.203 38.1516 121.752 38.1516 122.385ZM36.8766 122.385C36.8766 121.862 36.8382 121.428 36.7616 121.085C36.6849 120.742 36.5816 120.468 36.4516 120.265C36.3249 120.062 36.1782 119.92 36.0116 119.84C35.8449 119.757 35.6716 119.715 35.4916 119.715C35.3149 119.715 35.1432 119.757 34.9766 119.84C34.8132 119.92 34.6682 120.062 34.5416 120.265C34.4149 120.468 34.3132 120.742 34.2366 121.085C34.1632 121.428 34.1266 121.862 34.1266 122.385C34.1266 122.908 34.1632 123.342 34.2366 123.685C34.3132 124.028 34.4149 124.302 34.5416 124.505C34.6682 124.708 34.8132 124.852 34.9766 124.935C35.1432 125.015 35.3149 125.055 35.4916 125.055C35.6716 125.055 35.8449 125.015 36.0116 124.935C36.1782 124.852 36.3249 124.708 36.4516 124.505C36.5816 124.302 36.6849 124.028 36.7616 123.685C36.8382 123.342 36.8766 122.908 36.8766 122.385Z" fill="#0D465B"/>
<rect x="275" y="18" width="80" height="17" fill="white"/>
<rect x="214" y="84" width="141" height="17" fill="white"/>
<rect x="21" y="40" width="334" height="17" fill="white"/>
<rect x="21" y="62" width="334" height="17" fill="white"/>
<path d="M89.2968 69.6879C89.1751 70.0475 89.0215 70.3255 88.8359 70.5217C88.6627 70.6994 88.422 70.8184 88.1139 70.8786C87.7904 70.9418 87.4135 70.8955 86.9832 70.7396C86.5652 70.5653 86.0658 70.383 85.4848 70.1926C84.9038 70.0021 84.2364 69.8606 83.4825 69.7679C82.7411 69.6568 81.8928 69.6946 80.9376 69.8812C80.0748 70.0497 79.3409 70.305 78.736 70.6471C78.128 70.9737 77.6368 71.3656 77.2622 71.8226C76.9031 72.2766 76.6668 72.7866 76.5534 73.3526C76.437 73.9031 76.439 74.4865 76.5594 75.1028C76.7129 75.8885 77.0564 76.5012 77.5901 76.9407C78.1392 77.3773 78.812 77.7097 79.6083 77.938C80.4046 78.1664 81.2936 78.3366 82.2751 78.4488C83.2567 78.5609 84.2659 78.6917 85.3027 78.8411C86.3365 78.975 87.3593 79.1751 88.3709 79.4413C89.3796 79.6922 90.3122 80.0858 91.1687 80.6223C92.0222 81.1433 92.7594 81.847 93.3804 82.7334C94.0168 83.6167 94.4704 84.7517 94.7412 86.1383C95.0361 87.6481 95.051 89.1167 94.786 90.5439C94.5334 91.9528 94.0027 93.248 93.1938 94.4297C92.3974 95.5929 91.3384 96.5994 90.017 97.4493C88.6925 98.2838 87.1059 98.8816 85.2571 99.2427C84.194 99.4504 83.1253 99.5472 82.051 99.5331C80.9796 99.5344 79.9287 99.4358 78.8983 99.2372C77.8832 99.0356 76.9071 98.7464 75.9698 98.3697C75.0325 97.993 74.1756 97.5366 73.3992 97.0005L74.6426 93.6627C74.7545 93.4169 74.9202 93.2006 75.1396 93.0138C75.356 92.8116 75.6029 92.6834 75.8802 92.6293C76.2653 92.554 76.7129 92.6345 77.2229 92.8708C77.7299 93.0917 78.3291 93.3345 79.0206 93.5993C79.7121 93.8641 80.4977 94.0785 81.3775 94.2426C82.2696 94.3882 83.2934 94.3482 84.4489 94.1225C86.2207 93.7764 87.5106 93.0926 88.3187 92.0711C89.1238 91.0341 89.3729 89.7299 89.0659 88.1584C88.8944 87.2803 88.5311 86.6075 87.976 86.1401C87.4362 85.6698 86.7682 85.3204 85.9719 85.0921C85.1725 84.8484 84.2851 84.6858 83.3096 84.6045C82.334 84.5231 81.3385 84.4217 80.3231 84.3001C79.3078 84.1785 78.2957 83.9923 77.2871 83.7415C76.2784 83.4907 75.3443 83.0894 74.4848 82.5375C73.6253 81.9856 72.8713 81.2372 72.2229 80.2922C71.5869 79.3289 71.1199 78.0845 70.822 76.5593C70.5843 75.3422 70.5914 74.1092 70.8433 72.8605C71.1106 71.6087 71.6192 70.4457 72.369 69.3716C73.1189 68.2974 74.119 67.3584 75.3695 66.5543C76.62 65.7503 78.1233 65.1767 79.8797 64.8337C81.8517 64.4485 83.7299 64.4015 85.5142 64.6928C87.2984 64.984 88.8844 65.5699 90.2719 66.4505L89.2968 69.6879ZM109.825 76.8103C110.965 76.5876 111.932 76.2549 112.725 75.812C113.515 75.3538 114.136 74.8086 114.589 74.1765C115.053 73.5259 115.351 72.7961 115.481 71.987C115.607 71.1625 115.579 70.2803 115.395 69.3405C115.221 68.4469 114.924 67.6652 114.506 66.9952C114.087 66.3253 113.55 65.7903 112.896 65.3902C112.243 64.9901 111.466 64.7419 110.568 64.6455C109.666 64.5337 108.638 64.5906 107.482 64.8163L102.837 65.7236L105.18 77.7176L109.825 76.8103ZM106.543 60.0095C108.777 59.5731 110.762 59.4574 112.497 59.6622C114.233 59.8671 115.724 60.3356 116.97 61.0677C118.217 61.7999 119.222 62.7711 119.987 63.9813C120.766 65.1886 121.308 66.5702 121.612 68.1263C121.928 69.744 121.949 71.2834 121.674 72.7445C121.397 74.1902 120.814 75.5036 119.925 76.6849C119.036 77.8662 117.828 78.8859 116.3 79.7441C114.788 80.5993 112.945 81.2391 110.773 81.6634L106.128 82.5707L108.425 94.3335L102.209 95.5478L95.6818 62.131L106.543 60.0095ZM131.504 60.2683L133.314 69.5353L145.007 67.2513L145.942 72.035L134.248 74.319L136.094 83.771L150.931 80.873L151.901 85.8416L130.825 89.9583L124.298 56.5415L145.374 52.4249L146.34 57.3704L131.504 60.2683ZM143.016 42.9291L136.819 51.001C136.565 51.3385 136.306 51.5651 136.04 51.6809C135.775 51.7967 135.427 51.8968 134.995 51.981L130.859 52.789L134.465 45.5828C134.577 45.3371 134.698 45.1375 134.828 44.9841C134.955 44.8154 135.105 44.6821 135.278 44.5844C135.451 44.4867 135.644 44.409 135.856 44.3515C136.084 44.291 136.352 44.2306 136.661 44.1704L143.016 42.9291ZM178.097 72.5439C178.436 72.4777 178.762 72.55 179.075 72.7607L182.044 74.9399C181.016 76.884 179.596 78.497 177.783 79.7787C175.985 81.0575 173.7 81.9677 170.927 82.5094C168.446 82.9939 166.13 83.0065 163.977 82.5474C161.839 82.0852 159.922 81.2361 158.225 80.0001C156.528 78.7641 155.098 77.1722 153.934 75.2244C152.785 73.2735 151.968 71.0579 151.484 68.5774C150.993 66.0661 150.945 63.6923 151.34 61.456C151.732 59.2042 152.505 57.182 153.658 55.3892C154.827 53.5935 156.339 52.0826 158.195 50.8564C160.047 49.6148 162.199 48.7548 164.648 48.2763C167.083 47.8009 169.318 47.7801 171.354 48.2142C173.405 48.6452 175.22 49.3783 176.798 50.4137L175.282 53.7087C175.195 53.9176 175.065 54.111 174.891 54.2888C174.734 54.4635 174.485 54.584 174.146 54.6502C173.915 54.6954 173.664 54.6804 173.394 54.6053C173.12 54.5148 172.819 54.4057 172.49 54.278C172.158 54.1348 171.777 53.9854 171.347 53.8295C170.917 53.6736 170.429 53.5529 169.885 53.4673C169.337 53.3664 168.712 53.3204 168.01 53.3296C167.321 53.3203 166.537 53.4015 165.659 53.573C164.164 53.8649 162.846 54.4023 161.703 55.1853C160.573 55.9499 159.66 56.9278 158.966 58.1192C158.268 59.2952 157.815 60.6631 157.608 62.223C157.398 63.7675 157.475 65.4719 157.839 67.3361C158.206 69.2157 158.794 70.8361 159.604 72.1974C160.429 73.5557 161.394 74.6468 162.499 75.4707C163.603 76.2946 164.824 76.8558 166.162 77.1543C167.497 77.4373 168.873 77.4405 170.291 77.1636C171.138 76.9981 171.892 76.8029 172.551 76.5781C173.227 76.3502 173.83 76.0805 174.361 75.7688C174.907 75.4542 175.404 75.0932 175.853 74.6857C176.313 74.2599 176.753 73.7662 177.171 73.2047C177.298 73.0359 177.438 72.8965 177.593 72.7864C177.744 72.6608 177.912 72.58 178.097 72.5439ZM193.485 77.7193L187.246 78.9381L180.719 45.5213L186.958 44.3025L193.485 77.7193ZM230.676 35.7634L237.203 69.1802L231.726 70.2499L227.51 48.6654C227.342 47.8026 227.206 46.8615 227.103 45.842L220.71 66.7877C220.41 67.79 219.767 68.3874 218.781 68.58L217.902 68.7516C216.916 68.9442 216.096 68.6326 215.441 67.8169L201.507 50.7696C201.652 51.269 201.789 51.7621 201.916 52.2491C202.043 52.7361 202.147 53.1876 202.228 53.6036L206.444 75.1881L200.967 76.2579L194.44 42.8412L199.131 41.9248C199.409 41.8707 199.649 41.8317 199.852 41.808C200.056 41.7843 200.24 41.7882 200.406 41.8197C200.588 41.8483 200.754 41.9198 200.904 42.0344C201.07 42.146 201.237 42.3053 201.405 42.5123L215.037 59.115C215.395 59.5568 215.733 60.0186 216.051 60.5003C216.384 60.979 216.713 61.4746 217.037 61.9871C217.141 61.3749 217.258 60.7843 217.387 60.2154C217.512 59.631 217.658 59.0667 217.824 58.5226L224.076 38.0842C224.154 37.829 224.249 37.6185 224.361 37.4528C224.472 37.2871 224.599 37.1583 224.741 37.0666C224.898 36.9719 225.076 36.8973 225.273 36.8427C225.47 36.7882 225.708 36.7339 225.985 36.6797L230.676 35.7634ZM245.338 38.0338L247.148 47.3009L258.841 45.0168L259.776 49.8006L248.082 52.0846L249.928 61.5365L264.765 58.6386L265.735 63.6072L244.659 67.7239L238.132 34.3071L259.208 30.1904L260.174 35.1359L245.338 38.0338ZM292.888 23.6119L299.415 57.0287L296.226 57.6516C295.733 57.7479 295.302 57.7521 294.933 57.6643C294.576 57.558 294.206 57.3423 293.823 57.0174L272.024 38.1475C272.315 39.1463 272.545 40.077 272.713 40.9398L276.721 61.4613L271.244 62.5311L264.717 29.1143L267.976 28.4779C268.238 28.4267 268.464 28.3985 268.655 28.3932C268.858 28.3695 269.037 28.3826 269.191 28.4325C269.357 28.4641 269.523 28.5356 269.688 28.6472C269.851 28.7434 270.038 28.8828 270.25 29.0653L292.137 48.0141C291.985 47.4839 291.843 46.9599 291.709 46.4421C291.576 45.9243 291.466 45.442 291.379 44.9952L287.411 24.6817L292.888 23.6119Z" fill="#D6DCE2"/>
<path d="M64.175 125.075V126H60.175V125.075H61.64V120.86C61.64 120.693 61.645 120.522 61.655 120.345L60.615 121.215C60.555 121.262 60.495 121.292 60.435 121.305C60.3783 121.315 60.3233 121.315 60.27 121.305C60.22 121.295 60.175 121.278 60.135 121.255C60.095 121.228 60.065 121.2 60.045 121.17L59.655 120.635L61.86 118.76H62.875V125.075H64.175ZM69.7058 124.85C69.8391 124.85 69.9441 124.888 70.0208 124.965C70.1008 125.038 70.1408 125.137 70.1408 125.26V126H65.1808V125.59C65.1808 125.507 65.1974 125.42 65.2308 125.33C65.2674 125.237 65.3241 125.153 65.4008 125.08L67.5958 122.88C67.7791 122.693 67.9424 122.515 68.0858 122.345C68.2324 122.175 68.3541 122.007 68.4508 121.84C68.5474 121.673 68.6208 121.505 68.6708 121.335C68.7241 121.162 68.7508 120.98 68.7508 120.79C68.7508 120.617 68.7258 120.465 68.6758 120.335C68.6258 120.202 68.5541 120.09 68.4608 120C68.3708 119.91 68.2608 119.843 68.1308 119.8C68.0041 119.753 67.8608 119.73 67.7008 119.73C67.5541 119.73 67.4174 119.752 67.2908 119.795C67.1674 119.835 67.0574 119.893 66.9608 119.97C66.8641 120.043 66.7824 120.13 66.7158 120.23C66.6491 120.33 66.5991 120.44 66.5658 120.56C66.5091 120.713 66.4358 120.815 66.3458 120.865C66.2558 120.915 66.1258 120.927 65.9558 120.9L65.3058 120.785C65.3558 120.438 65.4524 120.135 65.5958 119.875C65.7391 119.612 65.9174 119.393 66.1308 119.22C66.3474 119.043 66.5941 118.912 66.8708 118.825C67.1508 118.735 67.4508 118.69 67.7708 118.69C68.1041 118.69 68.4091 118.74 68.6858 118.84C68.9624 118.937 69.1991 119.075 69.3958 119.255C69.5924 119.435 69.7458 119.652 69.8558 119.905C69.9658 120.158 70.0208 120.44 70.0208 120.75C70.0208 121.017 69.9808 121.263 69.9008 121.49C69.8241 121.717 69.7191 121.933 69.5858 122.14C69.4558 122.347 69.3024 122.547 69.1258 122.74C68.9491 122.933 68.7641 123.13 68.5708 123.33L66.9408 124.995C67.0974 124.948 67.2524 124.913 67.4058 124.89C67.5624 124.863 67.7108 124.85 67.8508 124.85H69.7058ZM71.1416 120.785C71.1916 120.438 71.2882 120.135 71.4316 119.875C71.5749 119.612 71.7532 119.393 71.9666 119.22C72.1832 119.043 72.4299 118.912 72.7066 118.825C72.9866 118.735 73.2866 118.69 73.6066 118.69C73.9399 118.69 74.2399 118.738 74.5066 118.835C74.7766 118.928 75.0066 119.06 75.1966 119.23C75.3866 119.397 75.5316 119.593 75.6316 119.82C75.7349 120.047 75.7866 120.292 75.7866 120.555C75.7866 120.785 75.7599 120.988 75.7066 121.165C75.6566 121.338 75.5832 121.49 75.4866 121.62C75.3899 121.75 75.2699 121.86 75.1266 121.95C74.9832 122.04 74.8216 122.115 74.6416 122.175C75.0749 122.312 75.3982 122.52 75.6116 122.8C75.8249 123.08 75.9316 123.432 75.9316 123.855C75.9316 124.215 75.8649 124.533 75.7316 124.81C75.5982 125.087 75.4182 125.32 75.1916 125.51C74.9649 125.697 74.7016 125.838 74.4016 125.935C74.1049 126.032 73.7899 126.08 73.4566 126.08C73.0932 126.08 72.7766 126.038 72.5066 125.955C72.2366 125.872 72.0016 125.748 71.8016 125.585C71.6016 125.422 71.4316 125.222 71.2916 124.985C71.1516 124.748 71.0316 124.475 70.9316 124.165L71.4766 123.94C71.6199 123.88 71.7532 123.865 71.8766 123.895C72.0032 123.922 72.0949 123.988 72.1516 124.095C72.2116 124.212 72.2766 124.327 72.3466 124.44C72.4199 124.553 72.5066 124.655 72.6066 124.745C72.7066 124.832 72.8232 124.903 72.9566 124.96C73.0932 125.013 73.2549 125.04 73.4416 125.04C73.6516 125.04 73.8349 125.007 73.9916 124.94C74.1482 124.87 74.2782 124.78 74.3816 124.67C74.4882 124.56 74.5666 124.438 74.6166 124.305C74.6699 124.168 74.6966 124.032 74.6966 123.895C74.6966 123.722 74.6782 123.565 74.6416 123.425C74.6049 123.282 74.5282 123.16 74.4116 123.06C74.2949 122.96 74.1266 122.882 73.9066 122.825C73.6899 122.768 73.3982 122.74 73.0316 122.74V121.86C73.3349 121.857 73.5866 121.828 73.7866 121.775C73.9866 121.722 74.1449 121.648 74.2616 121.555C74.3816 121.458 74.4649 121.343 74.5116 121.21C74.5582 121.077 74.5816 120.93 74.5816 120.77C74.5816 120.43 74.4866 120.172 74.2966 119.995C74.1066 119.818 73.8532 119.73 73.5366 119.73C73.3899 119.73 73.2549 119.752 73.1316 119.795C73.0082 119.835 72.8966 119.893 72.7966 119.97C72.6999 120.043 72.6182 120.13 72.5516 120.23C72.4849 120.33 72.4349 120.44 72.4016 120.56C72.3449 120.713 72.2699 120.815 72.1766 120.865C72.0866 120.915 71.9582 120.927 71.7916 120.9L71.1416 120.785ZM79.9623 123.275V120.91C79.9623 120.687 79.9773 120.44 80.0073 120.17L77.7623 123.275H79.9623ZM81.9473 123.275V123.99C81.9473 124.057 81.9257 124.115 81.8823 124.165C81.839 124.212 81.7773 124.235 81.6973 124.235H81.0373V126H79.9623V124.235H76.9123C76.829 124.235 76.7557 124.21 76.6923 124.16C76.629 124.107 76.589 124.042 76.5723 123.965L76.4423 123.34L79.8673 118.765H81.0373V123.275H81.9473ZM84.2331 121.395C84.3931 121.362 84.5465 121.338 84.6931 121.325C84.8398 121.308 84.9815 121.3 85.1181 121.3C85.4981 121.3 85.8331 121.357 86.1231 121.47C86.4131 121.583 86.6565 121.74 86.8531 121.94C87.0498 122.14 87.1981 122.375 87.2981 122.645C87.3981 122.912 87.4481 123.2 87.4481 123.51C87.4481 123.893 87.3798 124.243 87.2431 124.56C87.1098 124.877 86.9231 125.148 86.6831 125.375C86.4431 125.598 86.1581 125.772 85.8281 125.895C85.5015 126.018 85.1448 126.08 84.7581 126.08C84.5315 126.08 84.3165 126.057 84.1131 126.01C83.9098 125.963 83.7181 125.902 83.5381 125.825C83.3615 125.745 83.1965 125.655 83.0431 125.555C82.8931 125.452 82.7581 125.343 82.6381 125.23L83.0181 124.705C83.0981 124.592 83.2031 124.535 83.3331 124.535C83.4165 124.535 83.5015 124.562 83.5881 124.615C83.6748 124.668 83.7731 124.727 83.8831 124.79C83.9965 124.853 84.1281 124.912 84.2781 124.965C84.4315 125.018 84.6148 125.045 84.8281 125.045C85.0548 125.045 85.2548 125.008 85.4281 124.935C85.6015 124.862 85.7448 124.76 85.8581 124.63C85.9748 124.497 86.0615 124.34 86.1181 124.16C86.1781 123.977 86.2081 123.778 86.2081 123.565C86.2081 123.172 86.0931 122.865 85.8631 122.645C85.6365 122.422 85.2998 122.31 84.8531 122.31C84.5098 122.31 84.1581 122.373 83.7981 122.5L83.0281 122.28L83.6281 118.77H87.1981V119.295C87.1981 119.472 87.1431 119.615 87.0331 119.725C86.9231 119.835 86.7365 119.89 86.4731 119.89H84.4881L84.2331 121.395ZM91.0055 122.465H93.5955V123.495H91.0055V122.465ZM101.773 125.075V126H97.7727V125.075H99.2377V120.86C99.2377 120.693 99.2427 120.522 99.2527 120.345L98.2127 121.215C98.1527 121.262 98.0927 121.292 98.0327 121.305C97.976 121.315 97.921 121.315 97.8677 121.305C97.8177 121.295 97.7727 121.278 97.7327 121.255C97.6927 121.228 97.6627 121.2 97.6427 121.17L97.2527 120.635L99.4577 118.76H100.473V125.075H101.773ZM107.303 124.85C107.437 124.85 107.542 124.888 107.618 124.965C107.698 125.038 107.738 125.137 107.738 125.26V126H102.778V125.59C102.778 125.507 102.795 125.42 102.828 125.33C102.865 125.237 102.922 125.153 102.998 125.08L105.193 122.88C105.377 122.693 105.54 122.515 105.683 122.345C105.83 122.175 105.952 122.007 106.048 121.84C106.145 121.673 106.218 121.505 106.268 121.335C106.322 121.162 106.348 120.98 106.348 120.79C106.348 120.617 106.323 120.465 106.273 120.335C106.223 120.202 106.152 120.09 106.058 120C105.968 119.91 105.858 119.843 105.728 119.8C105.602 119.753 105.458 119.73 105.298 119.73C105.152 119.73 105.015 119.752 104.888 119.795C104.765 119.835 104.655 119.893 104.558 119.97C104.462 120.043 104.38 120.13 104.313 120.23C104.247 120.33 104.197 120.44 104.163 120.56C104.107 120.713 104.033 120.815 103.943 120.865C103.853 120.915 103.723 120.927 103.553 120.9L102.903 120.785C102.953 120.438 103.05 120.135 103.193 119.875C103.337 119.612 103.515 119.393 103.728 119.22C103.945 119.043 104.192 118.912 104.468 118.825C104.748 118.735 105.048 118.69 105.368 118.69C105.702 118.69 106.007 118.74 106.283 118.84C106.56 118.937 106.797 119.075 106.993 119.255C107.19 119.435 107.343 119.652 107.453 119.905C107.563 120.158 107.618 120.44 107.618 120.75C107.618 121.017 107.578 121.263 107.498 121.49C107.422 121.717 107.317 121.933 107.183 122.14C107.053 122.347 106.9 122.547 106.723 122.74C106.547 122.933 106.362 123.13 106.168 123.33L104.538 124.995C104.695 124.948 104.85 124.913 105.003 124.89C105.16 124.863 105.308 124.85 105.448 124.85H107.303ZM108.739 120.785C108.789 120.438 108.886 120.135 109.029 119.875C109.173 119.612 109.351 119.393 109.564 119.22C109.781 119.043 110.028 118.912 110.304 118.825C110.584 118.735 110.884 118.69 111.204 118.69C111.538 118.69 111.838 118.738 112.104 118.835C112.374 118.928 112.604 119.06 112.794 119.23C112.984 119.397 113.129 119.593 113.229 119.82C113.333 120.047 113.384 120.292 113.384 120.555C113.384 120.785 113.358 120.988 113.304 121.165C113.254 121.338 113.181 121.49 113.084 121.62C112.988 121.75 112.868 121.86 112.724 121.95C112.581 122.04 112.419 122.115 112.239 122.175C112.673 122.312 112.996 122.52 113.209 122.8C113.423 123.08 113.529 123.432 113.529 123.855C113.529 124.215 113.463 124.533 113.329 124.81C113.196 125.087 113.016 125.32 112.789 125.51C112.563 125.697 112.299 125.838 111.999 125.935C111.703 126.032 111.388 126.08 111.054 126.08C110.691 126.08 110.374 126.038 110.104 125.955C109.834 125.872 109.599 125.748 109.399 125.585C109.199 125.422 109.029 125.222 108.889 124.985C108.749 124.748 108.629 124.475 108.529 124.165L109.074 123.94C109.218 123.88 109.351 123.865 109.474 123.895C109.601 123.922 109.693 123.988 109.749 124.095C109.809 124.212 109.874 124.327 109.944 124.44C110.018 124.553 110.104 124.655 110.204 124.745C110.304 124.832 110.421 124.903 110.554 124.96C110.691 125.013 110.853 125.04 111.039 125.04C111.249 125.04 111.433 125.007 111.589 124.94C111.746 124.87 111.876 124.78 111.979 124.67C112.086 124.56 112.164 124.438 112.214 124.305C112.268 124.168 112.294 124.032 112.294 123.895C112.294 123.722 112.276 123.565 112.239 123.425C112.203 123.282 112.126 123.16 112.009 123.06C111.893 122.96 111.724 122.882 111.504 122.825C111.288 122.768 110.996 122.74 110.629 122.74V121.86C110.933 121.857 111.184 121.828 111.384 121.775C111.584 121.722 111.743 121.648 111.859 121.555C111.979 121.458 112.063 121.343 112.109 121.21C112.156 121.077 112.179 120.93 112.179 120.77C112.179 120.43 112.084 120.172 111.894 119.995C111.704 119.818 111.451 119.73 111.134 119.73C110.988 119.73 110.853 119.752 110.729 119.795C110.606 119.835 110.494 119.893 110.394 119.97C110.298 120.043 110.216 120.13 110.149 120.23C110.083 120.33 110.033 120.44 109.999 120.56C109.943 120.713 109.868 120.815 109.774 120.865C109.684 120.915 109.556 120.927 109.389 120.9L108.739 120.785Z" fill="#0D465B"/>
<path d="M144.175 125.075V126H140.175V125.075H141.64V120.86C141.64 120.693 141.645 120.522 141.655 120.345L140.615 121.215C140.555 121.262 140.495 121.292 140.435 121.305C140.378 121.315 140.323 121.315 140.27 121.305C140.22 121.295 140.175 121.278 140.135 121.255C140.095 121.228 140.065 121.2 140.045 121.17L139.655 120.635L141.86 118.76H142.875V125.075H144.175ZM149.706 124.85C149.839 124.85 149.944 124.888 150.021 124.965C150.101 125.038 150.141 125.137 150.141 125.26V126H145.181V125.59C145.181 125.507 145.197 125.42 145.231 125.33C145.267 125.237 145.324 125.153 145.401 125.08L147.596 122.88C147.779 122.693 147.942 122.515 148.086 122.345C148.232 122.175 148.354 122.007 148.451 121.84C148.547 121.673 148.621 121.505 148.671 121.335C148.724 121.162 148.751 120.98 148.751 120.79C148.751 120.617 148.726 120.465 148.676 120.335C148.626 120.202 148.554 120.09 148.461 120C148.371 119.91 148.261 119.843 148.131 119.8C148.004 119.753 147.861 119.73 147.701 119.73C147.554 119.73 147.417 119.752 147.291 119.795C147.167 119.835 147.057 119.893 146.961 119.97C146.864 120.043 146.782 120.13 146.716 120.23C146.649 120.33 146.599 120.44 146.566 120.56C146.509 120.713 146.436 120.815 146.346 120.865C146.256 120.915 146.126 120.927 145.956 120.9L145.306 120.785C145.356 120.438 145.452 120.135 145.596 119.875C145.739 119.612 145.917 119.393 146.131 119.22C146.347 119.043 146.594 118.912 146.871 118.825C147.151 118.735 147.451 118.69 147.771 118.69C148.104 118.69 148.409 118.74 148.686 118.84C148.962 118.937 149.199 119.075 149.396 119.255C149.592 119.435 149.746 119.652 149.856 119.905C149.966 120.158 150.021 120.44 150.021 120.75C150.021 121.017 149.981 121.263 149.901 121.49C149.824 121.717 149.719 121.933 149.586 122.14C149.456 122.347 149.302 122.547 149.126 122.74C148.949 122.933 148.764 123.13 148.571 123.33L146.941 124.995C147.097 124.948 147.252 124.913 147.406 124.89C147.562 124.863 147.711 124.85 147.851 124.85H149.706ZM151.142 120.785C151.192 120.438 151.288 120.135 151.432 119.875C151.575 119.612 151.753 119.393 151.967 119.22C152.183 119.043 152.43 118.912 152.707 118.825C152.987 118.735 153.287 118.69 153.607 118.69C153.94 118.69 154.24 118.738 154.507 118.835C154.777 118.928 155.007 119.06 155.197 119.23C155.387 119.397 155.532 119.593 155.632 119.82C155.735 120.047 155.787 120.292 155.787 120.555C155.787 120.785 155.76 120.988 155.707 121.165C155.657 121.338 155.583 121.49 155.487 121.62C155.39 121.75 155.27 121.86 155.127 121.95C154.983 122.04 154.822 122.115 154.642 122.175C155.075 122.312 155.398 122.52 155.612 122.8C155.825 123.08 155.932 123.432 155.932 123.855C155.932 124.215 155.865 124.533 155.732 124.81C155.598 125.087 155.418 125.32 155.192 125.51C154.965 125.697 154.702 125.838 154.402 125.935C154.105 126.032 153.79 126.08 153.457 126.08C153.093 126.08 152.777 126.038 152.507 125.955C152.237 125.872 152.002 125.748 151.802 125.585C151.602 125.422 151.432 125.222 151.292 124.985C151.152 124.748 151.032 124.475 150.932 124.165L151.477 123.94C151.62 123.88 151.753 123.865 151.877 123.895C152.003 123.922 152.095 123.988 152.152 124.095C152.212 124.212 152.277 124.327 152.347 124.44C152.42 124.553 152.507 124.655 152.607 124.745C152.707 124.832 152.823 124.903 152.957 124.96C153.093 125.013 153.255 125.04 153.442 125.04C153.652 125.04 153.835 125.007 153.992 124.94C154.148 124.87 154.278 124.78 154.382 124.67C154.488 124.56 154.567 124.438 154.617 124.305C154.67 124.168 154.697 124.032 154.697 123.895C154.697 123.722 154.678 123.565 154.642 123.425C154.605 123.282 154.528 123.16 154.412 123.06C154.295 122.96 154.127 122.882 153.907 122.825C153.69 122.768 153.398 122.74 153.032 122.74V121.86C153.335 121.857 153.587 121.828 153.787 121.775C153.987 121.722 154.145 121.648 154.262 121.555C154.382 121.458 154.465 121.343 154.512 121.21C154.558 121.077 154.582 120.93 154.582 120.77C154.582 120.43 154.487 120.172 154.297 119.995C154.107 119.818 153.853 119.73 153.537 119.73C153.39 119.73 153.255 119.752 153.132 119.795C153.008 119.835 152.897 119.893 152.797 119.97C152.7 120.043 152.618 120.13 152.552 120.23C152.485 120.33 152.435 120.44 152.402 120.56C152.345 120.713 152.27 120.815 152.177 120.865C152.087 120.915 151.958 120.927 151.792 120.9L151.142 120.785ZM159.404 122.465H161.994V123.495H159.404V122.465ZM168.556 123.275V120.91C168.556 120.687 168.571 120.44 168.601 120.17L166.356 123.275H168.556ZM170.541 123.275V123.99C170.541 124.057 170.519 124.115 170.476 124.165C170.433 124.212 170.371 124.235 170.291 124.235H169.631V126H168.556V124.235H165.506C165.423 124.235 165.349 124.21 165.286 124.16C165.223 124.107 165.183 124.042 165.166 123.965L165.036 123.34L168.461 118.765H169.631V123.275H170.541ZM172.827 121.395C172.987 121.362 173.14 121.338 173.287 121.325C173.434 121.308 173.575 121.3 173.712 121.3C174.092 121.3 174.427 121.357 174.717 121.47C175.007 121.583 175.25 121.74 175.447 121.94C175.644 122.14 175.792 122.375 175.892 122.645C175.992 122.912 176.042 123.2 176.042 123.51C176.042 123.893 175.974 124.243 175.837 124.56C175.704 124.877 175.517 125.148 175.277 125.375C175.037 125.598 174.752 125.772 174.422 125.895C174.095 126.018 173.739 126.08 173.352 126.08C173.125 126.08 172.91 126.057 172.707 126.01C172.504 125.963 172.312 125.902 172.132 125.825C171.955 125.745 171.79 125.655 171.637 125.555C171.487 125.452 171.352 125.343 171.232 125.23L171.612 124.705C171.692 124.592 171.797 124.535 171.927 124.535C172.01 124.535 172.095 124.562 172.182 124.615C172.269 124.668 172.367 124.727 172.477 124.79C172.59 124.853 172.722 124.912 172.872 124.965C173.025 125.018 173.209 125.045 173.422 125.045C173.649 125.045 173.849 125.008 174.022 124.935C174.195 124.862 174.339 124.76 174.452 124.63C174.569 124.497 174.655 124.34 174.712 124.16C174.772 123.977 174.802 123.778 174.802 123.565C174.802 123.172 174.687 122.865 174.457 122.645C174.23 122.422 173.894 122.31 173.447 122.31C173.104 122.31 172.752 122.373 172.392 122.5L171.622 122.28L172.222 118.77H175.792V119.295C175.792 119.472 175.737 119.615 175.627 119.725C175.517 119.835 175.33 119.89 175.067 119.89H173.082L172.827 121.395ZM179.208 121.395L178.958 121.705C179.098 121.635 179.248 121.582 179.408 121.545C179.571 121.505 179.746 121.485 179.933 121.485C180.206 121.485 180.471 121.53 180.728 121.62C180.988 121.71 181.216 121.847 181.413 122.03C181.609 122.21 181.768 122.435 181.888 122.705C182.008 122.975 182.068 123.29 182.068 123.65C182.068 123.987 182.006 124.303 181.883 124.6C181.759 124.893 181.586 125.15 181.363 125.37C181.139 125.59 180.869 125.763 180.553 125.89C180.239 126.017 179.893 126.08 179.513 126.08C179.126 126.08 178.779 126.018 178.473 125.895C178.166 125.772 177.904 125.6 177.688 125.38C177.471 125.157 177.304 124.89 177.188 124.58C177.074 124.267 177.018 123.92 177.018 123.54C177.018 123.2 177.086 122.852 177.223 122.495C177.363 122.135 177.578 121.762 177.868 121.375L179.593 119.06C179.653 118.98 179.739 118.912 179.853 118.855C179.969 118.798 180.103 118.77 180.253 118.77H181.353L179.208 121.395ZM179.488 125.07C179.684 125.07 179.864 125.037 180.028 124.97C180.194 124.903 180.336 124.81 180.453 124.69C180.573 124.57 180.666 124.43 180.733 124.27C180.799 124.107 180.833 123.93 180.833 123.74C180.833 123.533 180.801 123.348 180.738 123.185C180.674 123.018 180.584 122.878 180.468 122.765C180.351 122.648 180.211 122.56 180.048 122.5C179.884 122.44 179.704 122.41 179.508 122.41C179.311 122.41 179.133 122.443 178.973 122.51C178.813 122.577 178.676 122.67 178.563 122.79C178.449 122.907 178.361 123.047 178.298 123.21C178.234 123.37 178.203 123.543 178.203 123.73C178.203 123.93 178.229 124.113 178.283 124.28C178.339 124.443 178.421 124.583 178.528 124.7C178.638 124.817 178.773 124.908 178.933 124.975C179.093 125.038 179.278 125.07 179.488 125.07ZM185.4 122.465H187.99V123.495H185.4V122.465ZM196.452 118.77V119.305C196.452 119.465 196.436 119.595 196.402 119.695C196.369 119.792 196.336 119.873 196.302 119.94L193.562 125.58C193.506 125.697 193.426 125.797 193.322 125.88C193.219 125.96 193.081 126 192.907 126H192.012L194.807 120.475C194.871 120.362 194.932 120.258 194.992 120.165C195.056 120.068 195.126 119.977 195.202 119.89H191.742C191.666 119.89 191.599 119.862 191.542 119.805C191.486 119.748 191.457 119.682 191.457 119.605V118.77H196.452Z" fill="#0D465B"/>
<rect x="58" y="115" width="31" height="15" stroke="#FECA36" stroke-width="2"/>
<rect x="96" y="115" width="19" height="15" stroke="#FECA36" stroke-width="2"/>
<rect x="135" y="115" width="65" height="15" stroke="#FECA36" stroke-width="2"/>
<path d="M61.684 142.1H59.94V147H58.864V142.1H57.12V141.216H61.684V142.1ZM62.4122 143.608C62.5402 143.363 62.6922 143.171 62.8682 143.032C63.0442 142.891 63.2522 142.82 63.4922 142.82C63.6815 142.82 63.8335 142.861 63.9482 142.944L63.8842 143.684C63.8709 143.732 63.8509 143.767 63.8242 143.788C63.8002 143.807 63.7669 143.816 63.7242 143.816C63.6842 143.816 63.6242 143.809 63.5442 143.796C63.4669 143.783 63.3909 143.776 63.3162 143.776C63.2069 143.776 63.1095 143.792 63.0242 143.824C62.9389 143.856 62.8615 143.903 62.7922 143.964C62.7255 144.023 62.6655 144.095 62.6122 144.18C62.5615 144.265 62.5135 144.363 62.4682 144.472V147H61.4802V142.896H62.0602C62.1615 142.896 62.2322 142.915 62.2722 142.952C62.3122 142.987 62.3389 143.051 62.3522 143.144L62.4122 143.608ZM66.5779 145.248C66.2925 145.261 66.0525 145.287 65.8579 145.324C65.6632 145.359 65.5072 145.404 65.3899 145.46C65.2725 145.516 65.1885 145.581 65.1379 145.656C65.0872 145.731 65.0619 145.812 65.0619 145.9C65.0619 146.073 65.1125 146.197 65.2139 146.272C65.3179 146.347 65.4525 146.384 65.6179 146.384C65.8205 146.384 65.9952 146.348 66.1419 146.276C66.2912 146.201 66.4365 146.089 66.5779 145.94V145.248ZM64.3139 143.468C64.7859 143.036 65.3539 142.82 66.0179 142.82C66.2579 142.82 66.4725 142.86 66.6619 142.94C66.8512 143.017 67.0112 143.127 67.1419 143.268C67.2725 143.407 67.3712 143.573 67.4379 143.768C67.5072 143.963 67.5419 144.176 67.5419 144.408V147H67.0939C67.0005 147 66.9285 146.987 66.8779 146.96C66.8272 146.931 66.7872 146.873 66.7579 146.788L66.6699 146.492C66.5659 146.585 66.4645 146.668 66.3659 146.74C66.2672 146.809 66.1645 146.868 66.0579 146.916C65.9512 146.964 65.8365 147 65.7139 147.024C65.5939 147.051 65.4605 147.064 65.3139 147.064C65.1405 147.064 64.9805 147.041 64.8339 146.996C64.6872 146.948 64.5605 146.877 64.4539 146.784C64.3472 146.691 64.2645 146.575 64.2059 146.436C64.1472 146.297 64.1179 146.136 64.1179 145.952C64.1179 145.848 64.1352 145.745 64.1699 145.644C64.2045 145.54 64.2605 145.441 64.3379 145.348C64.4179 145.255 64.5205 145.167 64.6459 145.084C64.7712 145.001 64.9245 144.929 65.1059 144.868C65.2899 144.807 65.5032 144.757 65.7459 144.72C65.9885 144.68 66.2659 144.656 66.5779 144.648V144.408C66.5779 144.133 66.5192 143.931 66.4019 143.8C66.2845 143.667 66.1152 143.6 65.8939 143.6C65.7339 143.6 65.6005 143.619 65.4939 143.656C65.3899 143.693 65.2979 143.736 65.2179 143.784C65.1379 143.829 65.0645 143.871 64.9979 143.908C64.9339 143.945 64.8619 143.964 64.7819 143.964C64.7125 143.964 64.6539 143.947 64.6059 143.912C64.5579 143.875 64.5192 143.832 64.4899 143.784L64.3139 143.468ZM69.3964 143.4C69.479 143.317 69.5657 143.241 69.6564 143.172C69.7497 143.1 69.847 143.04 69.9484 142.992C70.0524 142.941 70.163 142.903 70.2804 142.876C70.3977 142.847 70.5257 142.832 70.6644 142.832C70.8884 142.832 71.087 142.871 71.2604 142.948C71.4337 143.023 71.5777 143.129 71.6924 143.268C71.8097 143.404 71.8977 143.568 71.9564 143.76C72.0177 143.949 72.0484 144.159 72.0484 144.388V147H71.0604V144.388C71.0604 144.137 71.003 143.944 70.8884 143.808C70.7737 143.669 70.599 143.6 70.3644 143.6C70.1937 143.6 70.0337 143.639 69.8844 143.716C69.735 143.793 69.5937 143.899 69.4604 144.032V147H68.4724V142.896H69.0764C69.2044 142.896 69.2884 142.956 69.3284 143.076L69.3964 143.4ZM75.492 143.696C75.4653 143.739 75.4373 143.769 75.408 143.788C75.3787 143.804 75.3413 143.812 75.296 143.812C75.248 143.812 75.196 143.799 75.14 143.772C75.0867 143.745 75.024 143.716 74.952 143.684C74.88 143.649 74.7973 143.619 74.704 143.592C74.6133 143.565 74.5053 143.552 74.38 143.552C74.1853 143.552 74.032 143.593 73.92 143.676C73.8107 143.759 73.756 143.867 73.756 144C73.756 144.088 73.784 144.163 73.84 144.224C73.8987 144.283 73.9747 144.335 74.068 144.38C74.164 144.425 74.272 144.467 74.392 144.504C74.512 144.539 74.6333 144.577 74.756 144.62C74.8813 144.663 75.004 144.712 75.124 144.768C75.244 144.821 75.3507 144.891 75.444 144.976C75.54 145.059 75.616 145.159 75.672 145.276C75.7307 145.393 75.76 145.535 75.76 145.7C75.76 145.897 75.724 146.08 75.652 146.248C75.5827 146.413 75.4787 146.557 75.34 146.68C75.2013 146.8 75.0293 146.895 74.824 146.964C74.6213 147.031 74.3867 147.064 74.12 147.064C73.9787 147.064 73.84 147.051 73.704 147.024C73.5707 147 73.4413 146.965 73.316 146.92C73.1933 146.875 73.0787 146.821 72.972 146.76C72.868 146.699 72.776 146.632 72.696 146.56L72.924 146.184C72.9533 146.139 72.988 146.104 73.028 146.08C73.068 146.056 73.1187 146.044 73.18 146.044C73.2413 146.044 73.2987 146.061 73.352 146.096C73.408 146.131 73.472 146.168 73.544 146.208C73.616 146.248 73.7 146.285 73.796 146.32C73.8947 146.355 74.0187 146.372 74.168 146.372C74.2853 146.372 74.3853 146.359 74.468 146.332C74.5533 146.303 74.6227 146.265 74.676 146.22C74.732 146.175 74.772 146.123 74.796 146.064C74.8227 146.003 74.836 145.94 74.836 145.876C74.836 145.78 74.8067 145.701 74.748 145.64C74.692 145.579 74.616 145.525 74.52 145.48C74.4267 145.435 74.3187 145.395 74.196 145.36C74.076 145.323 73.952 145.283 73.824 145.24C73.6987 145.197 73.5747 145.148 73.452 145.092C73.332 145.033 73.224 144.96 73.128 144.872C73.0347 144.784 72.9587 144.676 72.9 144.548C72.844 144.42 72.816 144.265 72.816 144.084C72.816 143.916 72.8493 143.756 72.916 143.604C72.9827 143.452 73.08 143.32 73.208 143.208C73.3387 143.093 73.5 143.003 73.692 142.936C73.8867 142.867 74.1107 142.832 74.364 142.832C74.6467 142.832 74.904 142.879 75.136 142.972C75.368 143.065 75.5613 143.188 75.716 143.34L75.492 143.696ZM77.5276 142.896V147H76.5356V142.896H77.5276ZM77.6636 141.7C77.6636 141.785 77.6463 141.865 77.6116 141.94C77.577 142.015 77.5303 142.08 77.4716 142.136C77.4156 142.192 77.349 142.237 77.2716 142.272C77.1943 142.304 77.1116 142.32 77.0236 142.32C76.9383 142.32 76.857 142.304 76.7796 142.272C76.705 142.237 76.6396 142.192 76.5836 142.136C76.5276 142.08 76.4823 142.015 76.4476 141.94C76.4156 141.865 76.3996 141.785 76.3996 141.7C76.3996 141.612 76.4156 141.529 76.4476 141.452C76.4823 141.375 76.5276 141.308 76.5836 141.252C76.6396 141.196 76.705 141.152 76.7796 141.12C76.857 141.085 76.9383 141.068 77.0236 141.068C77.1116 141.068 77.1943 141.085 77.2716 141.12C77.349 141.152 77.4156 141.196 77.4716 141.252C77.5303 141.308 77.577 141.375 77.6116 141.452C77.6463 141.529 77.6636 141.612 77.6636 141.7ZM79.9029 147.064C79.5455 147.064 79.2709 146.964 79.0789 146.764C78.8895 146.561 78.7949 146.283 78.7949 145.928V143.636H78.3749C78.3215 143.636 78.2762 143.619 78.2389 143.584C78.2015 143.549 78.1829 143.497 78.1829 143.428V143.036L78.8429 142.928L79.0509 141.808C79.0642 141.755 79.0895 141.713 79.1269 141.684C79.1642 141.655 79.2122 141.64 79.2709 141.64H79.7829V142.932H80.8789V143.636H79.7829V145.86C79.7829 145.988 79.8135 146.088 79.8749 146.16C79.9389 146.232 80.0255 146.268 80.1349 146.268C80.1962 146.268 80.2469 146.261 80.2869 146.248C80.3295 146.232 80.3655 146.216 80.3949 146.2C80.4269 146.184 80.4549 146.169 80.4789 146.156C80.5029 146.14 80.5269 146.132 80.5509 146.132C80.5802 146.132 80.6042 146.14 80.6229 146.156C80.6415 146.169 80.6615 146.191 80.6829 146.22L80.9789 146.7C80.8349 146.82 80.6695 146.911 80.4829 146.972C80.2962 147.033 80.1029 147.064 79.9029 147.064Z" fill="#0D465B"/>
<path d="M98.724 147H97.644V141.216H98.724V147ZM100.725 143.4C100.807 143.317 100.894 143.241 100.985 143.172C101.078 143.1 101.175 143.04 101.277 142.992C101.381 142.941 101.491 142.903 101.609 142.876C101.726 142.847 101.854 142.832 101.993 142.832C102.217 142.832 102.415 142.871 102.589 142.948C102.762 143.023 102.906 143.129 103.021 143.268C103.138 143.404 103.226 143.568 103.285 143.76C103.346 143.949 103.377 144.159 103.377 144.388V147H102.389V144.388C102.389 144.137 102.331 143.944 102.217 143.808C102.102 143.669 101.927 143.6 101.693 143.6C101.522 143.6 101.362 143.639 101.213 143.716C101.063 143.793 100.922 143.899 100.789 144.032V147H99.8005V142.896H100.405C100.533 142.896 100.617 142.956 100.657 143.076L100.725 143.4ZM106.82 143.696C106.793 143.739 106.765 143.769 106.736 143.788C106.707 143.804 106.669 143.812 106.624 143.812C106.576 143.812 106.524 143.799 106.468 143.772C106.415 143.745 106.352 143.716 106.28 143.684C106.208 143.649 106.125 143.619 106.032 143.592C105.941 143.565 105.833 143.552 105.708 143.552C105.513 143.552 105.36 143.593 105.248 143.676C105.139 143.759 105.084 143.867 105.084 144C105.084 144.088 105.112 144.163 105.168 144.224C105.227 144.283 105.303 144.335 105.396 144.38C105.492 144.425 105.6 144.467 105.72 144.504C105.84 144.539 105.961 144.577 106.084 144.62C106.209 144.663 106.332 144.712 106.452 144.768C106.572 144.821 106.679 144.891 106.772 144.976C106.868 145.059 106.944 145.159 107 145.276C107.059 145.393 107.088 145.535 107.088 145.7C107.088 145.897 107.052 146.08 106.98 146.248C106.911 146.413 106.807 146.557 106.668 146.68C106.529 146.8 106.357 146.895 106.152 146.964C105.949 147.031 105.715 147.064 105.448 147.064C105.307 147.064 105.168 147.051 105.032 147.024C104.899 147 104.769 146.965 104.644 146.92C104.521 146.875 104.407 146.821 104.3 146.76C104.196 146.699 104.104 146.632 104.024 146.56L104.252 146.184C104.281 146.139 104.316 146.104 104.356 146.08C104.396 146.056 104.447 146.044 104.508 146.044C104.569 146.044 104.627 146.061 104.68 146.096C104.736 146.131 104.8 146.168 104.872 146.208C104.944 146.248 105.028 146.285 105.124 146.32C105.223 146.355 105.347 146.372 105.496 146.372C105.613 146.372 105.713 146.359 105.796 146.332C105.881 146.303 105.951 146.265 106.004 146.22C106.06 146.175 106.1 146.123 106.124 146.064C106.151 146.003 106.164 145.94 106.164 145.876C106.164 145.78 106.135 145.701 106.076 145.64C106.02 145.579 105.944 145.525 105.848 145.48C105.755 145.435 105.647 145.395 105.524 145.36C105.404 145.323 105.28 145.283 105.152 145.24C105.027 145.197 104.903 145.148 104.78 145.092C104.66 145.033 104.552 144.96 104.456 144.872C104.363 144.784 104.287 144.676 104.228 144.548C104.172 144.42 104.144 144.265 104.144 144.084C104.144 143.916 104.177 143.756 104.244 143.604C104.311 143.452 104.408 143.32 104.536 143.208C104.667 143.093 104.828 143.003 105.02 142.936C105.215 142.867 105.439 142.832 105.692 142.832C105.975 142.832 106.232 142.879 106.464 142.972C106.696 143.065 106.889 143.188 107.044 143.34L106.82 143.696ZM108.856 142.896V147H107.864V142.896H108.856ZM108.992 141.7C108.992 141.785 108.974 141.865 108.94 141.94C108.905 142.015 108.858 142.08 108.8 142.136C108.744 142.192 108.677 142.237 108.6 142.272C108.522 142.304 108.44 142.32 108.352 142.32C108.266 142.32 108.185 142.304 108.108 142.272C108.033 142.237 107.968 142.192 107.912 142.136C107.856 142.08 107.81 142.015 107.776 141.94C107.744 141.865 107.728 141.785 107.728 141.7C107.728 141.612 107.744 141.529 107.776 141.452C107.81 141.375 107.856 141.308 107.912 141.252C107.968 141.196 108.033 141.152 108.108 141.12C108.185 141.085 108.266 141.068 108.352 141.068C108.44 141.068 108.522 141.085 108.6 141.12C108.677 141.152 108.744 141.196 108.8 141.252C108.858 141.308 108.905 141.375 108.94 141.452C108.974 141.529 108.992 141.612 108.992 141.7ZM111.231 147.064C110.874 147.064 110.599 146.964 110.407 146.764C110.218 146.561 110.123 146.283 110.123 145.928V143.636H109.703C109.65 143.636 109.604 143.619 109.567 143.584C109.53 143.549 109.511 143.497 109.511 143.428V143.036L110.171 142.928L110.379 141.808C110.392 141.755 110.418 141.713 110.455 141.684C110.492 141.655 110.54 141.64 110.599 141.64H111.111V142.932H112.207V143.636H111.111V145.86C111.111 145.988 111.142 146.088 111.203 146.16C111.267 146.232 111.354 146.268 111.463 146.268C111.524 146.268 111.575 146.261 111.615 146.248C111.658 146.232 111.694 146.216 111.723 146.2C111.755 146.184 111.783 146.169 111.807 146.156C111.831 146.14 111.855 146.132 111.879 146.132C111.908 146.132 111.932 146.14 111.951 146.156C111.97 146.169 111.99 146.191 112.011 146.22L112.307 146.7C112.163 146.82 111.998 146.911 111.811 146.972C111.624 147.033 111.431 147.064 111.231 147.064ZM116.376 142.896V147H115.772C115.641 147 115.558 146.94 115.524 146.82L115.456 146.492C115.288 146.663 115.102 146.801 114.9 146.908C114.697 147.012 114.458 147.064 114.184 147.064C113.96 147.064 113.761 147.027 113.588 146.952C113.417 146.875 113.273 146.767 113.156 146.628C113.038 146.489 112.949 146.325 112.888 146.136C112.829 145.944 112.8 145.733 112.8 145.504V142.896H113.788V145.504C113.788 145.755 113.845 145.949 113.96 146.088C114.077 146.224 114.252 146.292 114.484 146.292C114.654 146.292 114.814 146.255 114.964 146.18C115.113 146.103 115.254 145.997 115.388 145.864V142.896H116.376ZM118.379 142.896V147H117.387V142.896H118.379ZM118.515 141.7C118.515 141.785 118.498 141.865 118.463 141.94C118.429 142.015 118.382 142.08 118.323 142.136C118.267 142.192 118.201 142.237 118.123 142.272C118.046 142.304 117.963 142.32 117.875 142.32C117.79 142.32 117.709 142.304 117.631 142.272C117.557 142.237 117.491 142.192 117.435 142.136C117.379 142.08 117.334 142.015 117.299 141.94C117.267 141.865 117.251 141.785 117.251 141.7C117.251 141.612 117.267 141.529 117.299 141.452C117.334 141.375 117.379 141.308 117.435 141.252C117.491 141.196 117.557 141.152 117.631 141.12C117.709 141.085 117.79 141.068 117.875 141.068C117.963 141.068 118.046 141.085 118.123 141.12C118.201 141.152 118.267 141.196 118.323 141.252C118.382 141.308 118.429 141.375 118.463 141.452C118.498 141.529 118.515 141.612 118.515 141.7ZM123.526 147H122.538V143.636H120.634V145.86C120.634 145.988 120.665 146.088 120.726 146.16C120.79 146.232 120.877 146.268 120.986 146.268C121.048 146.268 121.098 146.261 121.138 146.248C121.181 146.232 121.217 146.216 121.246 146.2C121.278 146.184 121.306 146.169 121.33 146.156C121.354 146.14 121.378 146.132 121.402 146.132C121.432 146.132 121.456 146.14 121.474 146.156C121.493 146.169 121.513 146.191 121.534 146.22L121.83 146.7C121.686 146.82 121.521 146.911 121.334 146.972C121.148 147.033 120.954 147.064 120.754 147.064C120.397 147.064 120.122 146.964 119.93 146.764C119.741 146.561 119.646 146.283 119.646 145.928V143.636H119.226C119.173 143.636 119.128 143.619 119.09 143.584C119.053 143.549 119.034 143.497 119.034 143.428V143.036L119.694 142.924L119.902 141.808C119.916 141.755 119.941 141.713 119.978 141.684C120.016 141.655 120.064 141.64 120.122 141.64H120.634V142.932H123.526V147ZM123.698 141.684C123.698 141.769 123.681 141.851 123.646 141.928C123.612 142.003 123.565 142.068 123.506 142.124C123.45 142.18 123.382 142.225 123.302 142.26C123.225 142.292 123.142 142.308 123.054 142.308C122.969 142.308 122.889 142.292 122.814 142.26C122.74 142.225 122.674 142.18 122.618 142.124C122.562 142.068 122.517 142.003 122.482 141.928C122.45 141.851 122.434 141.769 122.434 141.684C122.434 141.596 122.45 141.515 122.482 141.44C122.517 141.363 122.562 141.296 122.618 141.24C122.674 141.181 122.74 141.136 122.814 141.104C122.889 141.069 122.969 141.052 123.054 141.052C123.142 141.052 123.225 141.069 123.302 141.104C123.382 141.136 123.45 141.181 123.506 141.24C123.565 141.296 123.612 141.363 123.646 141.44C123.681 141.515 123.698 141.596 123.698 141.684ZM126.351 142.832C126.655 142.832 126.931 142.881 127.179 142.98C127.43 143.079 127.643 143.219 127.819 143.4C127.998 143.581 128.135 143.803 128.231 144.064C128.327 144.325 128.375 144.617 128.375 144.94C128.375 145.265 128.327 145.559 128.231 145.82C128.135 146.081 127.998 146.304 127.819 146.488C127.643 146.672 127.43 146.813 127.179 146.912C126.931 147.011 126.655 147.06 126.351 147.06C126.044 147.06 125.766 147.011 125.515 146.912C125.264 146.813 125.05 146.672 124.871 146.488C124.695 146.304 124.558 146.081 124.459 145.82C124.363 145.559 124.315 145.265 124.315 144.94C124.315 144.617 124.363 144.325 124.459 144.064C124.558 143.803 124.695 143.581 124.871 143.4C125.05 143.219 125.264 143.079 125.515 142.98C125.766 142.881 126.044 142.832 126.351 142.832ZM126.351 146.3C126.692 146.3 126.944 146.185 127.107 145.956C127.272 145.727 127.355 145.391 127.355 144.948C127.355 144.505 127.272 144.168 127.107 143.936C126.944 143.704 126.692 143.588 126.351 143.588C126.004 143.588 125.747 143.705 125.579 143.94C125.414 144.172 125.331 144.508 125.331 144.948C125.331 145.388 125.414 145.724 125.579 145.956C125.747 146.185 126.004 146.3 126.351 146.3ZM130.053 143.4C130.135 143.317 130.222 143.241 130.313 143.172C130.406 143.1 130.503 143.04 130.605 142.992C130.709 142.941 130.819 142.903 130.937 142.876C131.054 142.847 131.182 142.832 131.321 142.832C131.545 142.832 131.743 142.871 131.917 142.948C132.09 143.023 132.234 143.129 132.349 143.268C132.466 143.404 132.554 143.568 132.613 143.76C132.674 143.949 132.705 144.159 132.705 144.388V147H131.717V144.388C131.717 144.137 131.659 143.944 131.545 143.808C131.43 143.669 131.255 143.6 131.021 143.6C130.85 143.6 130.69 143.639 130.541 143.716C130.391 143.793 130.25 143.899 130.117 144.032V147H129.129V142.896H129.733C129.861 142.896 129.945 142.956 129.985 143.076L130.053 143.4Z" fill="#0D465B"/>
<path d="M177.616 145.636C177.675 145.636 177.727 145.659 177.772 145.704L178.196 146.164C177.961 146.455 177.672 146.677 177.328 146.832C176.987 146.987 176.576 147.064 176.096 147.064C175.667 147.064 175.28 146.991 174.936 146.844C174.595 146.697 174.303 146.493 174.06 146.232C173.817 145.971 173.631 145.659 173.5 145.296C173.372 144.933 173.308 144.537 173.308 144.108C173.308 143.673 173.377 143.276 173.516 142.916C173.655 142.553 173.849 142.241 174.1 141.98C174.353 141.719 174.655 141.516 175.004 141.372C175.353 141.225 175.74 141.152 176.164 141.152C176.585 141.152 176.959 141.221 177.284 141.36C177.612 141.499 177.891 141.68 178.12 141.904L177.76 142.404C177.739 142.436 177.711 142.464 177.676 142.488C177.644 142.512 177.599 142.524 177.54 142.524C177.5 142.524 177.459 142.513 177.416 142.492C177.373 142.468 177.327 142.44 177.276 142.408C177.225 142.373 177.167 142.336 177.1 142.296C177.033 142.256 176.956 142.22 176.868 142.188C176.78 142.153 176.677 142.125 176.56 142.104C176.445 142.08 176.312 142.068 176.16 142.068C175.901 142.068 175.664 142.115 175.448 142.208C175.235 142.299 175.051 142.432 174.896 142.608C174.741 142.781 174.621 142.995 174.536 143.248C174.451 143.499 174.408 143.785 174.408 144.108C174.408 144.433 174.453 144.723 174.544 144.976C174.637 145.229 174.763 145.443 174.92 145.616C175.077 145.789 175.263 145.923 175.476 146.016C175.689 146.107 175.919 146.152 176.164 146.152C176.311 146.152 176.443 146.144 176.56 146.128C176.68 146.112 176.789 146.087 176.888 146.052C176.989 146.017 177.084 145.973 177.172 145.92C177.263 145.864 177.352 145.796 177.44 145.716C177.467 145.692 177.495 145.673 177.524 145.66C177.553 145.644 177.584 145.636 177.616 145.636ZM180.507 142.832C180.811 142.832 181.087 142.881 181.335 142.98C181.586 143.079 181.799 143.219 181.975 143.4C182.154 143.581 182.291 143.803 182.387 144.064C182.483 144.325 182.531 144.617 182.531 144.94C182.531 145.265 182.483 145.559 182.387 145.82C182.291 146.081 182.154 146.304 181.975 146.488C181.799 146.672 181.586 146.813 181.335 146.912C181.087 147.011 180.811 147.06 180.507 147.06C180.2 147.06 179.922 147.011 179.671 146.912C179.42 146.813 179.206 146.672 179.027 146.488C178.851 146.304 178.714 146.081 178.615 145.82C178.519 145.559 178.471 145.265 178.471 144.94C178.471 144.617 178.519 144.325 178.615 144.064C178.714 143.803 178.851 143.581 179.027 143.4C179.206 143.219 179.42 143.079 179.671 142.98C179.922 142.881 180.2 142.832 180.507 142.832ZM180.507 146.3C180.848 146.3 181.1 146.185 181.263 145.956C181.428 145.727 181.511 145.391 181.511 144.948C181.511 144.505 181.428 144.168 181.263 143.936C181.1 143.704 180.848 143.588 180.507 143.588C180.16 143.588 179.903 143.705 179.735 143.94C179.57 144.172 179.487 144.508 179.487 144.948C179.487 145.388 179.57 145.724 179.735 145.956C179.903 146.185 180.16 146.3 180.507 146.3ZM183.285 147V142.896H183.889C184.017 142.896 184.101 142.956 184.141 143.076L184.205 143.38C184.277 143.3 184.352 143.227 184.429 143.16C184.509 143.093 184.593 143.036 184.681 142.988C184.772 142.94 184.868 142.903 184.969 142.876C185.073 142.847 185.186 142.832 185.309 142.832C185.568 142.832 185.78 142.903 185.945 143.044C186.113 143.183 186.238 143.368 186.321 143.6C186.385 143.464 186.465 143.348 186.561 143.252C186.657 143.153 186.762 143.073 186.877 143.012C186.992 142.951 187.113 142.905 187.241 142.876C187.372 142.847 187.502 142.832 187.633 142.832C187.86 142.832 188.061 142.867 188.237 142.936C188.413 143.005 188.561 143.107 188.681 143.24C188.801 143.373 188.892 143.536 188.953 143.728C189.017 143.92 189.049 144.14 189.049 144.388V147H188.061V144.388C188.061 144.127 188.004 143.931 187.889 143.8C187.774 143.667 187.606 143.6 187.385 143.6C187.284 143.6 187.189 143.617 187.101 143.652C187.016 143.687 186.94 143.737 186.873 143.804C186.809 143.868 186.758 143.949 186.721 144.048C186.684 144.147 186.665 144.26 186.665 144.388V147H185.673V144.388C185.673 144.113 185.617 143.913 185.505 143.788C185.396 143.663 185.234 143.6 185.021 143.6C184.877 143.6 184.742 143.636 184.617 143.708C184.494 143.777 184.38 143.873 184.273 143.996V147H183.285ZM190.976 145.936C191.088 146.072 191.209 146.168 191.34 146.224C191.473 146.28 191.617 146.308 191.772 146.308C191.921 146.308 192.056 146.28 192.176 146.224C192.296 146.168 192.397 146.083 192.48 145.968C192.565 145.853 192.631 145.709 192.676 145.536C192.721 145.36 192.744 145.153 192.744 144.916C192.744 144.676 192.724 144.473 192.684 144.308C192.647 144.14 192.592 144.004 192.52 143.9C192.448 143.796 192.36 143.72 192.256 143.672C192.155 143.624 192.039 143.6 191.908 143.6C191.703 143.6 191.528 143.644 191.384 143.732C191.24 143.817 191.104 143.939 190.976 144.096V145.936ZM190.924 143.456C191.092 143.267 191.283 143.113 191.496 142.996C191.709 142.879 191.96 142.82 192.248 142.82C192.472 142.82 192.676 142.867 192.86 142.96C193.047 143.053 193.207 143.189 193.34 143.368C193.476 143.544 193.58 143.763 193.652 144.024C193.727 144.283 193.764 144.58 193.764 144.916C193.764 145.223 193.723 145.507 193.64 145.768C193.557 146.029 193.439 146.256 193.284 146.448C193.132 146.64 192.947 146.791 192.728 146.9C192.512 147.007 192.269 147.06 192 147.06C191.771 147.06 191.575 147.025 191.412 146.956C191.249 146.884 191.104 146.785 190.976 146.66V148.34H189.988V142.896H190.592C190.72 142.896 190.804 142.956 190.844 143.076L190.924 143.456ZM195.848 147.064C195.491 147.064 195.216 146.964 195.024 146.764C194.835 146.561 194.74 146.283 194.74 145.928V143.636H194.32C194.267 143.636 194.222 143.619 194.184 143.584C194.147 143.549 194.128 143.497 194.128 143.428V143.036L194.788 142.928L194.996 141.808C195.01 141.755 195.035 141.713 195.072 141.684C195.11 141.655 195.158 141.64 195.216 141.64H195.728V142.932H196.824V143.636H195.728V145.86C195.728 145.988 195.759 146.088 195.82 146.16C195.884 146.232 195.971 146.268 196.08 146.268C196.142 146.268 196.192 146.261 196.232 146.248C196.275 146.232 196.311 146.216 196.34 146.2C196.372 146.184 196.4 146.169 196.424 146.156C196.448 146.14 196.472 146.132 196.496 146.132C196.526 146.132 196.55 146.14 196.568 146.156C196.587 146.169 196.607 146.191 196.628 146.22L196.924 146.7C196.78 146.82 196.615 146.911 196.428 146.972C196.242 147.033 196.048 147.064 195.848 147.064ZM200.07 144.476C200.07 144.348 200.051 144.228 200.014 144.116C199.979 144.001 199.926 143.901 199.854 143.816C199.782 143.731 199.69 143.664 199.578 143.616C199.468 143.565 199.34 143.54 199.194 143.54C198.908 143.54 198.683 143.621 198.518 143.784C198.355 143.947 198.251 144.177 198.206 144.476H200.07ZM198.186 145.072C198.202 145.283 198.239 145.465 198.298 145.62C198.356 145.772 198.434 145.899 198.53 146C198.626 146.099 198.739 146.173 198.87 146.224C199.003 146.272 199.15 146.296 199.31 146.296C199.47 146.296 199.607 146.277 199.722 146.24C199.839 146.203 199.94 146.161 200.026 146.116C200.114 146.071 200.19 146.029 200.254 145.992C200.32 145.955 200.384 145.936 200.446 145.936C200.528 145.936 200.59 145.967 200.63 146.028L200.914 146.388C200.804 146.516 200.682 146.624 200.546 146.712C200.41 146.797 200.267 146.867 200.118 146.92C199.971 146.971 199.82 147.007 199.666 147.028C199.514 147.049 199.366 147.06 199.222 147.06C198.936 147.06 198.671 147.013 198.426 146.92C198.18 146.824 197.967 146.684 197.786 146.5C197.604 146.313 197.462 146.084 197.358 145.812C197.254 145.537 197.201 145.22 197.201 144.86C197.201 144.58 197.247 144.317 197.338 144.072C197.428 143.824 197.558 143.609 197.726 143.428C197.896 143.244 198.103 143.099 198.346 142.992C198.591 142.885 198.867 142.832 199.174 142.832C199.432 142.832 199.671 142.873 199.89 142.956C200.108 143.039 200.296 143.16 200.454 143.32C200.611 143.477 200.734 143.672 200.822 143.904C200.912 144.133 200.957 144.396 200.957 144.692C200.957 144.841 200.942 144.943 200.91 144.996C200.878 145.047 200.816 145.072 200.726 145.072H198.186Z" fill="#0D465B"/>
</svg>
