<svg width="72" height="185" viewBox="0 0 72 185" fill="none" xmlns="http://www.w3.org/2000/svg">
<circle cx="2.15187" cy="183.204" r="1.4507" fill="#D6A20E"/>
<circle cx="2.15187" cy="1.69044" r="1.4507" fill="#D6A20E"/>
<circle cx="2.15187" cy="24.3972" r="1.4507" fill="#D6A20E"/>
<circle cx="2.15187" cy="47.1045" r="1.4507" fill="#D6A20E"/>
<circle cx="2.15187" cy="69.8111" r="1.4507" fill="#D6A20E"/>
<circle cx="2.15187" cy="92.5171" r="1.4507" fill="#D6A20E"/>
<circle cx="2.15187" cy="115.225" r="1.4507" fill="#D6A20E"/>
<circle cx="2.15187" cy="137.931" r="1.4507" fill="#D6A20E"/>
<circle cx="2.15187" cy="160.638" r="1.4507" fill="#D6A20E"/>
<circle cx="24.8589" cy="183.204" r="1.4507" fill="#D6A20E"/>
<circle cx="24.8589" cy="1.69044" r="1.4507" fill="#D6A20E"/>
<circle cx="24.8589" cy="24.3972" r="1.4507" fill="#D6A20E"/>
<circle cx="24.8589" cy="47.1045" r="1.4507" fill="#D6A20E"/>
<circle cx="24.8589" cy="69.8111" r="1.4507" fill="#D6A20E"/>
<circle cx="24.8589" cy="92.5171" r="1.4507" fill="#D6A20E"/>
<circle cx="24.8589" cy="115.224" r="1.4507" fill="#D6A20E"/>
<circle cx="24.8589" cy="137.931" r="1.4507" fill="#D6A20E"/>
<circle cx="24.8589" cy="160.638" r="1.4507" fill="#D6A20E"/>
<circle cx="47.5659" cy="183.204" r="1.4507" fill="#D6A20E"/>
<circle cx="47.5659" cy="1.69044" r="1.4507" fill="#D6A20E"/>
<circle cx="47.5659" cy="24.3972" r="1.4507" fill="#D6A20E"/>
<circle cx="47.5659" cy="47.1045" r="1.4507" fill="#D6A20E"/>
<circle cx="47.5659" cy="69.8111" r="1.4507" fill="#D6A20E"/>
<circle cx="47.5659" cy="92.5171" r="1.4507" fill="#D6A20E"/>
<circle cx="47.5659" cy="115.224" r="1.4507" fill="#D6A20E"/>
<circle cx="47.5659" cy="137.931" r="1.4507" fill="#D6A20E"/>
<circle cx="47.5659" cy="160.638" r="1.4507" fill="#D6A20E"/>
<circle cx="70.271" cy="183.204" r="1.4507" fill="#D6A20E"/>
<circle cx="70.271" cy="1.69044" r="1.4507" fill="#D6A20E"/>
<circle cx="70.271" cy="24.3972" r="1.4507" fill="#D6A20E"/>
<circle cx="70.271" cy="47.1045" r="1.4507" fill="#D6A20E"/>
<circle cx="70.271" cy="69.8111" r="1.4507" fill="#D6A20E"/>
<circle cx="70.271" cy="92.5171" r="1.4507" fill="#D6A20E"/>
<circle cx="70.271" cy="115.224" r="1.4507" fill="#D6A20E"/>
<circle cx="70.271" cy="137.931" r="1.4507" fill="#D6A20E"/>
<circle cx="70.271" cy="160.638" r="1.4507" fill="#D6A20E"/>
</svg>
