<svg width="493" height="225" viewBox="0 0 493 225" fill="none" xmlns="http://www.w3.org/2000/svg">
<path d="M65.6 215.704C65.6 216.456 65.518 217.108 65.354 217.66C65.194 218.208 64.974 218.662 64.694 219.022C64.414 219.382 64.082 219.65 63.698 219.826C63.318 220.002 62.91 220.09 62.474 220.09C62.034 220.09 61.624 220.002 61.244 219.826C60.868 219.65 60.54 219.382 60.26 219.022C59.98 218.662 59.76 218.208 59.6 217.66C59.44 217.108 59.36 216.456 59.36 215.704C59.36 214.952 59.44 214.3 59.6 213.748C59.76 213.196 59.98 212.74 60.26 212.38C60.54 212.016 60.868 211.746 61.244 211.57C61.624 211.394 62.034 211.306 62.474 211.306C62.91 211.306 63.318 211.394 63.698 211.57C64.082 211.746 64.414 212.016 64.694 212.38C64.974 212.74 65.194 213.196 65.354 213.748C65.518 214.3 65.6 214.952 65.6 215.704ZM64.49 215.704C64.49 215.048 64.434 214.498 64.322 214.054C64.214 213.606 64.066 213.246 63.878 212.974C63.694 212.702 63.48 212.508 63.236 212.392C62.992 212.272 62.738 212.212 62.474 212.212C62.21 212.212 61.956 212.272 61.712 212.392C61.468 212.508 61.254 212.702 61.07 212.974C60.886 213.246 60.738 213.606 60.626 214.054C60.518 214.498 60.464 215.048 60.464 215.704C60.464 216.36 60.518 216.91 60.626 217.354C60.738 217.798 60.886 218.156 61.07 218.428C61.254 218.7 61.468 218.896 61.712 219.016C61.956 219.132 62.21 219.19 62.474 219.19C62.738 219.19 62.992 219.132 63.236 219.016C63.48 218.896 63.694 218.7 63.878 218.428C64.066 218.156 64.214 217.798 64.322 217.354C64.434 216.91 64.49 216.36 64.49 215.704ZM72.0689 219.184V220H67.4609V219.184H69.3029V213.322C69.3029 213.146 69.3089 212.968 69.3209 212.788L67.7909 214.102C67.7389 214.146 67.6869 214.174 67.6349 214.186C67.5829 214.194 67.5349 214.194 67.4909 214.186C67.4469 214.178 67.4049 214.162 67.3649 214.138C67.3289 214.114 67.3009 214.088 67.2809 214.06L66.9449 213.598L69.5069 211.384H70.3769V219.184H72.0689Z" fill="#8497AB"/>
<path d="M21.018 186.704C21.018 187.456 20.936 188.108 20.772 188.66C20.612 189.208 20.392 189.662 20.112 190.022C19.832 190.382 19.5 190.65 19.116 190.826C18.736 191.002 18.328 191.09 17.892 191.09C17.452 191.09 17.042 191.002 16.662 190.826C16.286 190.65 15.958 190.382 15.678 190.022C15.398 189.662 15.178 189.208 15.018 188.66C14.858 188.108 14.778 187.456 14.778 186.704C14.778 185.952 14.858 185.3 15.018 184.748C15.178 184.196 15.398 183.74 15.678 183.38C15.958 183.016 16.286 182.746 16.662 182.57C17.042 182.394 17.452 182.306 17.892 182.306C18.328 182.306 18.736 182.394 19.116 182.57C19.5 182.746 19.832 183.016 20.112 183.38C20.392 183.74 20.612 184.196 20.772 184.748C20.936 185.3 21.018 185.952 21.018 186.704ZM19.908 186.704C19.908 186.048 19.852 185.498 19.74 185.054C19.632 184.606 19.484 184.246 19.296 183.974C19.112 183.702 18.898 183.508 18.654 183.392C18.41 183.272 18.156 183.212 17.892 183.212C17.628 183.212 17.374 183.272 17.13 183.392C16.886 183.508 16.672 183.702 16.488 183.974C16.304 184.246 16.156 184.606 16.044 185.054C15.936 185.498 15.882 186.048 15.882 186.704C15.882 187.36 15.936 187.91 16.044 188.354C16.156 188.798 16.304 189.156 16.488 189.428C16.672 189.7 16.886 189.896 17.13 190.016C17.374 190.132 17.628 190.19 17.892 190.19C18.156 190.19 18.41 190.132 18.654 190.016C18.898 189.896 19.112 189.7 19.296 189.428C19.484 189.156 19.632 188.798 19.74 188.354C19.852 187.91 19.908 187.36 19.908 186.704ZM25.7109 184.478C25.7109 184.814 25.6589 185.116 25.5549 185.384C25.4509 185.648 25.3109 185.872 25.1349 186.056C24.9629 186.236 24.7609 186.374 24.5289 186.47C24.3009 186.566 24.0589 186.614 23.8029 186.614C23.5349 186.614 23.2849 186.566 23.0529 186.47C22.8209 186.374 22.6189 186.236 22.4469 186.056C22.2789 185.872 22.1469 185.648 22.0509 185.384C21.9549 185.116 21.9069 184.814 21.9069 184.478C21.9069 184.134 21.9549 183.828 22.0509 183.56C22.1469 183.292 22.2789 183.066 22.4469 182.882C22.6189 182.698 22.8209 182.558 23.0529 182.462C23.2849 182.366 23.5349 182.318 23.8029 182.318C24.0749 182.318 24.3269 182.366 24.5589 182.462C24.7909 182.558 24.9929 182.698 25.1649 182.882C25.3369 183.066 25.4709 183.292 25.5669 183.56C25.6629 183.828 25.7109 184.134 25.7109 184.478ZM24.8829 184.478C24.8829 184.214 24.8549 183.99 24.7989 183.806C24.7429 183.622 24.6649 183.472 24.5649 183.356C24.4689 183.236 24.3549 183.15 24.2229 183.098C24.0909 183.046 23.9509 183.02 23.8029 183.02C23.6549 183.02 23.5169 183.046 23.3889 183.098C23.2609 183.15 23.1489 183.236 23.0529 183.356C22.9569 183.472 22.8809 183.622 22.8249 183.806C22.7689 183.99 22.7409 184.214 22.7409 184.478C22.7409 184.738 22.7689 184.96 22.8249 185.144C22.8809 185.324 22.9569 185.472 23.0529 185.588C23.1489 185.7 23.2609 185.782 23.3889 185.834C23.5169 185.882 23.6549 185.906 23.8029 185.906C23.9509 185.906 24.0909 185.882 24.2229 185.834C24.3549 185.782 24.4689 185.7 24.5649 185.588C24.6649 185.472 24.7429 185.324 24.7989 185.144C24.8549 184.96 24.8829 184.738 24.8829 184.478ZM28.7529 182.582C28.7929 182.534 28.8389 182.492 28.8909 182.456C28.9469 182.42 29.0209 182.402 29.1129 182.402H29.8869L23.5989 190.826C23.5629 190.878 23.5169 190.92 23.4609 190.952C23.4049 190.984 23.3369 191 23.2569 191H22.4709L28.7529 182.582ZM30.4689 188.972C30.4689 189.308 30.4169 189.608 30.3129 189.872C30.2089 190.136 30.0689 190.36 29.8929 190.544C29.7209 190.724 29.5189 190.862 29.2869 190.958C29.0589 191.054 28.8169 191.102 28.5609 191.102C28.2889 191.102 28.0369 191.054 27.8049 190.958C27.5769 190.862 27.3769 190.724 27.2049 190.544C27.0369 190.36 26.9049 190.136 26.8089 189.872C26.7129 189.608 26.6649 189.308 26.6649 188.972C26.6649 188.628 26.7129 188.322 26.8089 188.054C26.9049 187.782 27.0369 187.554 27.2049 187.37C27.3769 187.186 27.5769 187.046 27.8049 186.95C28.0369 186.854 28.2889 186.806 28.5609 186.806C28.8289 186.806 29.0789 186.854 29.3109 186.95C29.5469 187.046 29.7489 187.186 29.9169 187.37C30.0889 187.554 30.2229 187.782 30.3189 188.054C30.4189 188.322 30.4689 188.628 30.4689 188.972ZM29.6409 188.972C29.6409 188.708 29.6129 188.484 29.5569 188.3C29.5009 188.112 29.4229 187.96 29.3229 187.844C29.2269 187.728 29.1129 187.644 28.9809 187.592C28.8489 187.54 28.7089 187.514 28.5609 187.514C28.4129 187.514 28.2729 187.54 28.1409 187.592C28.0129 187.644 27.9009 187.728 27.8049 187.844C27.7089 187.96 27.6329 188.112 27.5769 188.3C27.5249 188.484 27.4989 188.708 27.4989 188.972C27.4989 189.232 27.5249 189.452 27.5769 189.632C27.6329 189.812 27.7089 189.96 27.8049 190.076C27.9009 190.188 28.0129 190.27 28.1409 190.322C28.2729 190.37 28.4129 190.394 28.5609 190.394C28.7089 190.394 28.8489 190.37 28.9809 190.322C29.1129 190.27 29.2269 190.188 29.3229 190.076C29.4229 189.96 29.5009 189.812 29.5569 189.632C29.6129 189.452 29.6409 189.232 29.6409 188.972Z" fill="#8497AB"/>
<path d="M13.379 145.986C13.495 145.986 13.587 146.02 13.655 146.088C13.723 146.156 13.757 146.244 13.757 146.352V147H8.02103V146.634C8.02103 146.558 8.03703 146.48 8.06903 146.4C8.10103 146.32 8.15103 146.246 8.21903 146.178L10.973 143.412C11.201 143.18 11.409 142.958 11.597 142.746C11.785 142.53 11.945 142.314 12.077 142.098C12.209 141.882 12.311 141.664 12.383 141.444C12.455 141.22 12.491 140.982 12.491 140.73C12.491 140.478 12.451 140.258 12.371 140.07C12.291 139.878 12.181 139.72 12.041 139.596C11.905 139.472 11.743 139.38 11.555 139.32C11.367 139.256 11.165 139.224 10.949 139.224C10.729 139.224 10.527 139.256 10.343 139.32C10.159 139.384 9.99503 139.474 9.85103 139.59C9.71103 139.702 9.59303 139.836 9.49703 139.992C9.40103 140.148 9.33303 140.32 9.29303 140.508C9.24503 140.648 9.17903 140.742 9.09503 140.79C9.01503 140.834 8.90103 140.846 8.75303 140.826L8.19503 140.73C8.25103 140.338 8.35903 139.992 8.51903 139.692C8.68303 139.388 8.88703 139.134 9.13103 138.93C9.37903 138.726 9.66103 138.572 9.97703 138.468C10.293 138.36 10.635 138.306 11.003 138.306C11.367 138.306 11.707 138.36 12.023 138.468C12.339 138.576 12.613 138.734 12.845 138.942C13.077 139.146 13.259 139.396 13.391 139.692C13.523 139.988 13.589 140.324 13.589 140.7C13.589 141.02 13.541 141.318 13.445 141.594C13.349 141.866 13.219 142.126 13.055 142.374C12.891 142.622 12.701 142.864 12.485 143.1C12.273 143.336 12.047 143.574 11.807 143.814L9.53903 146.13C9.69903 146.086 9.86103 146.052 10.025 146.028C10.189 146 10.347 145.986 10.499 145.986H13.379ZM16.59 141.648C17.038 141.552 17.45 141.504 17.826 141.504C18.274 141.504 18.67 141.57 19.014 141.702C19.358 141.834 19.644 142.016 19.872 142.248C20.104 142.48 20.278 142.754 20.394 143.07C20.514 143.386 20.574 143.73 20.574 144.102C20.574 144.558 20.494 144.97 20.334 145.338C20.178 145.706 19.96 146.022 19.68 146.286C19.404 146.546 19.078 146.746 18.702 146.886C18.326 147.026 17.92 147.096 17.484 147.096C17.232 147.096 16.99 147.07 16.758 147.018C16.526 146.97 16.308 146.904 16.104 146.82C15.904 146.736 15.718 146.64 15.546 146.532C15.374 146.424 15.222 146.31 15.09 146.19L15.42 145.734C15.492 145.63 15.586 145.578 15.702 145.578C15.782 145.578 15.872 145.61 15.972 145.674C16.072 145.734 16.194 145.802 16.338 145.878C16.482 145.954 16.65 146.024 16.842 146.088C17.038 146.148 17.27 146.178 17.538 146.178C17.838 146.178 18.108 146.13 18.348 146.034C18.588 145.938 18.794 145.802 18.966 145.626C19.138 145.446 19.27 145.232 19.362 144.984C19.454 144.736 19.5 144.458 19.5 144.15C19.5 143.882 19.46 143.64 19.38 143.424C19.304 143.208 19.186 143.024 19.026 142.872C18.87 142.72 18.674 142.602 18.438 142.518C18.202 142.434 17.926 142.392 17.61 142.392C17.394 142.392 17.168 142.41 16.932 142.446C16.7 142.482 16.462 142.54 16.218 142.62L15.546 142.422L16.236 138.402H20.31V138.87C20.31 139.022 20.262 139.148 20.166 139.248C20.074 139.344 19.914 139.392 19.686 139.392H16.986L16.59 141.648ZM25.7109 140.478C25.7109 140.814 25.6589 141.116 25.5549 141.384C25.4509 141.648 25.3109 141.872 25.1349 142.056C24.9629 142.236 24.7609 142.374 24.5289 142.47C24.3009 142.566 24.0589 142.614 23.8029 142.614C23.5349 142.614 23.2849 142.566 23.0529 142.47C22.8209 142.374 22.6189 142.236 22.4469 142.056C22.2789 141.872 22.1469 141.648 22.0509 141.384C21.9549 141.116 21.9069 140.814 21.9069 140.478C21.9069 140.134 21.9549 139.828 22.0509 139.56C22.1469 139.292 22.2789 139.066 22.4469 138.882C22.6189 138.698 22.8209 138.558 23.0529 138.462C23.2849 138.366 23.5349 138.318 23.8029 138.318C24.0749 138.318 24.3269 138.366 24.5589 138.462C24.7909 138.558 24.9929 138.698 25.1649 138.882C25.3369 139.066 25.4709 139.292 25.5669 139.56C25.6629 139.828 25.7109 140.134 25.7109 140.478ZM24.8829 140.478C24.8829 140.214 24.8549 139.99 24.7989 139.806C24.7429 139.622 24.6649 139.472 24.5649 139.356C24.4689 139.236 24.3549 139.15 24.2229 139.098C24.0909 139.046 23.9509 139.02 23.8029 139.02C23.6549 139.02 23.5169 139.046 23.3889 139.098C23.2609 139.15 23.1489 139.236 23.0529 139.356C22.9569 139.472 22.8809 139.622 22.8249 139.806C22.7689 139.99 22.7409 140.214 22.7409 140.478C22.7409 140.738 22.7689 140.96 22.8249 141.144C22.8809 141.324 22.9569 141.472 23.0529 141.588C23.1489 141.7 23.2609 141.782 23.3889 141.834C23.5169 141.882 23.6549 141.906 23.8029 141.906C23.9509 141.906 24.0909 141.882 24.2229 141.834C24.3549 141.782 24.4689 141.7 24.5649 141.588C24.6649 141.472 24.7429 141.324 24.7989 141.144C24.8549 140.96 24.8829 140.738 24.8829 140.478ZM28.7529 138.582C28.7929 138.534 28.8389 138.492 28.8909 138.456C28.9469 138.42 29.0209 138.402 29.1129 138.402H29.8869L23.5989 146.826C23.5629 146.878 23.5169 146.92 23.4609 146.952C23.4049 146.984 23.3369 147 23.2569 147H22.4709L28.7529 138.582ZM30.4689 144.972C30.4689 145.308 30.4169 145.608 30.3129 145.872C30.2089 146.136 30.0689 146.36 29.8929 146.544C29.7209 146.724 29.5189 146.862 29.2869 146.958C29.0589 147.054 28.8169 147.102 28.5609 147.102C28.2889 147.102 28.0369 147.054 27.8049 146.958C27.5769 146.862 27.3769 146.724 27.2049 146.544C27.0369 146.36 26.9049 146.136 26.8089 145.872C26.7129 145.608 26.6649 145.308 26.6649 144.972C26.6649 144.628 26.7129 144.322 26.8089 144.054C26.9049 143.782 27.0369 143.554 27.2049 143.37C27.3769 143.186 27.5769 143.046 27.8049 142.95C28.0369 142.854 28.2889 142.806 28.5609 142.806C28.8289 142.806 29.0789 142.854 29.3109 142.95C29.5469 143.046 29.7489 143.186 29.9169 143.37C30.0889 143.554 30.2229 143.782 30.3189 144.054C30.4189 144.322 30.4689 144.628 30.4689 144.972ZM29.6409 144.972C29.6409 144.708 29.6129 144.484 29.5569 144.3C29.5009 144.112 29.4229 143.96 29.3229 143.844C29.2269 143.728 29.1129 143.644 28.9809 143.592C28.8489 143.54 28.7089 143.514 28.5609 143.514C28.4129 143.514 28.2729 143.54 28.1409 143.592C28.0129 143.644 27.9009 143.728 27.8049 143.844C27.7089 143.96 27.6329 144.112 27.5769 144.3C27.5249 144.484 27.4989 144.708 27.4989 144.972C27.4989 145.232 27.5249 145.452 27.5769 145.632C27.6329 145.812 27.7089 145.96 27.8049 146.076C27.9009 146.188 28.0129 146.27 28.1409 146.322C28.2729 146.37 28.4129 146.394 28.5609 146.394C28.7089 146.394 28.8489 146.37 28.9809 146.322C29.1129 146.27 29.2269 146.188 29.3229 146.076C29.4229 145.96 29.5009 145.812 29.5569 145.632C29.6129 145.452 29.6409 145.232 29.6409 144.972Z" fill="#8497AB"/>
<path d="M9.62903 97.648C10.077 97.552 10.489 97.504 10.865 97.504C11.313 97.504 11.709 97.57 12.053 97.702C12.397 97.834 12.683 98.016 12.911 98.248C13.143 98.48 13.317 98.754 13.433 99.07C13.553 99.386 13.613 99.73 13.613 100.102C13.613 100.558 13.533 100.97 13.373 101.338C13.217 101.706 12.999 102.022 12.719 102.286C12.443 102.546 12.117 102.746 11.741 102.886C11.365 103.026 10.959 103.096 10.523 103.096C10.271 103.096 10.029 103.07 9.79703 103.018C9.56503 102.97 9.34703 102.904 9.14303 102.82C8.94303 102.736 8.75703 102.64 8.58503 102.532C8.41303 102.424 8.26103 102.31 8.12903 102.19L8.45903 101.734C8.53103 101.63 8.62503 101.578 8.74103 101.578C8.82103 101.578 8.91103 101.61 9.01103 101.674C9.11103 101.734 9.23303 101.802 9.37703 101.878C9.52103 101.954 9.68903 102.024 9.88103 102.088C10.077 102.148 10.309 102.178 10.577 102.178C10.877 102.178 11.147 102.13 11.387 102.034C11.627 101.938 11.833 101.802 12.005 101.626C12.177 101.446 12.309 101.232 12.401 100.984C12.493 100.736 12.539 100.458 12.539 100.15C12.539 99.882 12.499 99.64 12.419 99.424C12.343 99.208 12.225 99.024 12.065 98.872C11.909 98.72 11.713 98.602 11.477 98.518C11.241 98.434 10.965 98.392 10.649 98.392C10.433 98.392 10.207 98.41 9.97103 98.446C9.73903 98.482 9.50103 98.54 9.25703 98.62L8.58503 98.422L9.27503 94.402H13.349V94.87C13.349 95.022 13.301 95.148 13.205 95.248C13.113 95.344 12.953 95.392 12.725 95.392H10.025L9.62903 97.648ZM21.018 98.704C21.018 99.456 20.936 100.108 20.772 100.66C20.612 101.208 20.392 101.662 20.112 102.022C19.832 102.382 19.5 102.65 19.116 102.826C18.736 103.002 18.328 103.09 17.892 103.09C17.452 103.09 17.042 103.002 16.662 102.826C16.286 102.65 15.958 102.382 15.678 102.022C15.398 101.662 15.178 101.208 15.018 100.66C14.858 100.108 14.778 99.456 14.778 98.704C14.778 97.952 14.858 97.3 15.018 96.748C15.178 96.196 15.398 95.74 15.678 95.38C15.958 95.016 16.286 94.746 16.662 94.57C17.042 94.394 17.452 94.306 17.892 94.306C18.328 94.306 18.736 94.394 19.116 94.57C19.5 94.746 19.832 95.016 20.112 95.38C20.392 95.74 20.612 96.196 20.772 96.748C20.936 97.3 21.018 97.952 21.018 98.704ZM19.908 98.704C19.908 98.048 19.852 97.498 19.74 97.054C19.632 96.606 19.484 96.246 19.296 95.974C19.112 95.702 18.898 95.508 18.654 95.392C18.41 95.272 18.156 95.212 17.892 95.212C17.628 95.212 17.374 95.272 17.13 95.392C16.886 95.508 16.672 95.702 16.488 95.974C16.304 96.246 16.156 96.606 16.044 97.054C15.936 97.498 15.882 98.048 15.882 98.704C15.882 99.36 15.936 99.91 16.044 100.354C16.156 100.798 16.304 101.156 16.488 101.428C16.672 101.7 16.886 101.896 17.13 102.016C17.374 102.132 17.628 102.19 17.892 102.19C18.156 102.19 18.41 102.132 18.654 102.016C18.898 101.896 19.112 101.7 19.296 101.428C19.484 101.156 19.632 100.798 19.74 100.354C19.852 99.91 19.908 99.36 19.908 98.704ZM25.7109 96.478C25.7109 96.814 25.6589 97.116 25.5549 97.384C25.4509 97.648 25.3109 97.872 25.1349 98.056C24.9629 98.236 24.7609 98.374 24.5289 98.47C24.3009 98.566 24.0589 98.614 23.8029 98.614C23.5349 98.614 23.2849 98.566 23.0529 98.47C22.8209 98.374 22.6189 98.236 22.4469 98.056C22.2789 97.872 22.1469 97.648 22.0509 97.384C21.9549 97.116 21.9069 96.814 21.9069 96.478C21.9069 96.134 21.9549 95.828 22.0509 95.56C22.1469 95.292 22.2789 95.066 22.4469 94.882C22.6189 94.698 22.8209 94.558 23.0529 94.462C23.2849 94.366 23.5349 94.318 23.8029 94.318C24.0749 94.318 24.3269 94.366 24.5589 94.462C24.7909 94.558 24.9929 94.698 25.1649 94.882C25.3369 95.066 25.4709 95.292 25.5669 95.56C25.6629 95.828 25.7109 96.134 25.7109 96.478ZM24.8829 96.478C24.8829 96.214 24.8549 95.99 24.7989 95.806C24.7429 95.622 24.6649 95.472 24.5649 95.356C24.4689 95.236 24.3549 95.15 24.2229 95.098C24.0909 95.046 23.9509 95.02 23.8029 95.02C23.6549 95.02 23.5169 95.046 23.3889 95.098C23.2609 95.15 23.1489 95.236 23.0529 95.356C22.9569 95.472 22.8809 95.622 22.8249 95.806C22.7689 95.99 22.7409 96.214 22.7409 96.478C22.7409 96.738 22.7689 96.96 22.8249 97.144C22.8809 97.324 22.9569 97.472 23.0529 97.588C23.1489 97.7 23.2609 97.782 23.3889 97.834C23.5169 97.882 23.6549 97.906 23.8029 97.906C23.9509 97.906 24.0909 97.882 24.2229 97.834C24.3549 97.782 24.4689 97.7 24.5649 97.588C24.6649 97.472 24.7429 97.324 24.7989 97.144C24.8549 96.96 24.8829 96.738 24.8829 96.478ZM28.7529 94.582C28.7929 94.534 28.8389 94.492 28.8909 94.456C28.9469 94.42 29.0209 94.402 29.1129 94.402H29.8869L23.5989 102.826C23.5629 102.878 23.5169 102.92 23.4609 102.952C23.4049 102.984 23.3369 103 23.2569 103H22.4709L28.7529 94.582ZM30.4689 100.972C30.4689 101.308 30.4169 101.608 30.3129 101.872C30.2089 102.136 30.0689 102.36 29.8929 102.544C29.7209 102.724 29.5189 102.862 29.2869 102.958C29.0589 103.054 28.8169 103.102 28.5609 103.102C28.2889 103.102 28.0369 103.054 27.8049 102.958C27.5769 102.862 27.3769 102.724 27.2049 102.544C27.0369 102.36 26.9049 102.136 26.8089 101.872C26.7129 101.608 26.6649 101.308 26.6649 100.972C26.6649 100.628 26.7129 100.322 26.8089 100.054C26.9049 99.782 27.0369 99.554 27.2049 99.37C27.3769 99.186 27.5769 99.046 27.8049 98.95C28.0369 98.854 28.2889 98.806 28.5609 98.806C28.8289 98.806 29.0789 98.854 29.3109 98.95C29.5469 99.046 29.7489 99.186 29.9169 99.37C30.0889 99.554 30.2229 99.782 30.3189 100.054C30.4189 100.322 30.4689 100.628 30.4689 100.972ZM29.6409 100.972C29.6409 100.708 29.6129 100.484 29.5569 100.3C29.5009 100.112 29.4229 99.96 29.3229 99.844C29.2269 99.728 29.1129 99.644 28.9809 99.592C28.8489 99.54 28.7089 99.514 28.5609 99.514C28.4129 99.514 28.2729 99.54 28.1409 99.592C28.0129 99.644 27.9009 99.728 27.8049 99.844C27.7089 99.96 27.6329 100.112 27.5769 100.3C27.5249 100.484 27.4989 100.708 27.4989 100.972C27.4989 101.232 27.5249 101.452 27.5769 101.632C27.6329 101.812 27.7089 101.96 27.8049 102.076C27.9009 102.188 28.0129 102.27 28.1409 102.322C28.2729 102.37 28.4129 102.394 28.5609 102.394C28.7089 102.394 28.8489 102.37 28.9809 102.322C29.1129 102.27 29.2269 102.188 29.3229 102.076C29.4229 101.96 29.5009 101.812 29.5569 101.632C29.6129 101.452 29.6409 101.232 29.6409 100.972Z" fill="#8497AB"/>
<path d="M13.943 50.402V50.882C13.943 51.018 13.927 51.13 13.895 51.218C13.867 51.306 13.839 51.38 13.811 51.44L10.247 58.622C10.195 58.726 10.123 58.816 10.031 58.892C9.93903 58.964 9.81703 59 9.66503 59H8.89703L12.509 51.908C12.561 51.808 12.615 51.716 12.671 51.632C12.727 51.548 12.787 51.468 12.851 51.392H8.36303C8.29503 51.392 8.23503 51.366 8.18303 51.314C8.13103 51.258 8.10503 51.196 8.10503 51.128V50.402H13.943ZM16.59 53.648C17.038 53.552 17.45 53.504 17.826 53.504C18.274 53.504 18.67 53.57 19.014 53.702C19.358 53.834 19.644 54.016 19.872 54.248C20.104 54.48 20.278 54.754 20.394 55.07C20.514 55.386 20.574 55.73 20.574 56.102C20.574 56.558 20.494 56.97 20.334 57.338C20.178 57.706 19.96 58.022 19.68 58.286C19.404 58.546 19.078 58.746 18.702 58.886C18.326 59.026 17.92 59.096 17.484 59.096C17.232 59.096 16.99 59.07 16.758 59.018C16.526 58.97 16.308 58.904 16.104 58.82C15.904 58.736 15.718 58.64 15.546 58.532C15.374 58.424 15.222 58.31 15.09 58.19L15.42 57.734C15.492 57.63 15.586 57.578 15.702 57.578C15.782 57.578 15.872 57.61 15.972 57.674C16.072 57.734 16.194 57.802 16.338 57.878C16.482 57.954 16.65 58.024 16.842 58.088C17.038 58.148 17.27 58.178 17.538 58.178C17.838 58.178 18.108 58.13 18.348 58.034C18.588 57.938 18.794 57.802 18.966 57.626C19.138 57.446 19.27 57.232 19.362 56.984C19.454 56.736 19.5 56.458 19.5 56.15C19.5 55.882 19.46 55.64 19.38 55.424C19.304 55.208 19.186 55.024 19.026 54.872C18.87 54.72 18.674 54.602 18.438 54.518C18.202 54.434 17.926 54.392 17.61 54.392C17.394 54.392 17.168 54.41 16.932 54.446C16.7 54.482 16.462 54.54 16.218 54.62L15.546 54.422L16.236 50.402H20.31V50.87C20.31 51.022 20.262 51.148 20.166 51.248C20.074 51.344 19.914 51.392 19.686 51.392H16.986L16.59 53.648ZM25.7109 52.478C25.7109 52.814 25.6589 53.116 25.5549 53.384C25.4509 53.648 25.3109 53.872 25.1349 54.056C24.9629 54.236 24.7609 54.374 24.5289 54.47C24.3009 54.566 24.0589 54.614 23.8029 54.614C23.5349 54.614 23.2849 54.566 23.0529 54.47C22.8209 54.374 22.6189 54.236 22.4469 54.056C22.2789 53.872 22.1469 53.648 22.0509 53.384C21.9549 53.116 21.9069 52.814 21.9069 52.478C21.9069 52.134 21.9549 51.828 22.0509 51.56C22.1469 51.292 22.2789 51.066 22.4469 50.882C22.6189 50.698 22.8209 50.558 23.0529 50.462C23.2849 50.366 23.5349 50.318 23.8029 50.318C24.0749 50.318 24.3269 50.366 24.5589 50.462C24.7909 50.558 24.9929 50.698 25.1649 50.882C25.3369 51.066 25.4709 51.292 25.5669 51.56C25.6629 51.828 25.7109 52.134 25.7109 52.478ZM24.8829 52.478C24.8829 52.214 24.8549 51.99 24.7989 51.806C24.7429 51.622 24.6649 51.472 24.5649 51.356C24.4689 51.236 24.3549 51.15 24.2229 51.098C24.0909 51.046 23.9509 51.02 23.8029 51.02C23.6549 51.02 23.5169 51.046 23.3889 51.098C23.2609 51.15 23.1489 51.236 23.0529 51.356C22.9569 51.472 22.8809 51.622 22.8249 51.806C22.7689 51.99 22.7409 52.214 22.7409 52.478C22.7409 52.738 22.7689 52.96 22.8249 53.144C22.8809 53.324 22.9569 53.472 23.0529 53.588C23.1489 53.7 23.2609 53.782 23.3889 53.834C23.5169 53.882 23.6549 53.906 23.8029 53.906C23.9509 53.906 24.0909 53.882 24.2229 53.834C24.3549 53.782 24.4689 53.7 24.5649 53.588C24.6649 53.472 24.7429 53.324 24.7989 53.144C24.8549 52.96 24.8829 52.738 24.8829 52.478ZM28.7529 50.582C28.7929 50.534 28.8389 50.492 28.8909 50.456C28.9469 50.42 29.0209 50.402 29.1129 50.402H29.8869L23.5989 58.826C23.5629 58.878 23.5169 58.92 23.4609 58.952C23.4049 58.984 23.3369 59 23.2569 59H22.4709L28.7529 50.582ZM30.4689 56.972C30.4689 57.308 30.4169 57.608 30.3129 57.872C30.2089 58.136 30.0689 58.36 29.8929 58.544C29.7209 58.724 29.5189 58.862 29.2869 58.958C29.0589 59.054 28.8169 59.102 28.5609 59.102C28.2889 59.102 28.0369 59.054 27.8049 58.958C27.5769 58.862 27.3769 58.724 27.2049 58.544C27.0369 58.36 26.9049 58.136 26.8089 57.872C26.7129 57.608 26.6649 57.308 26.6649 56.972C26.6649 56.628 26.7129 56.322 26.8089 56.054C26.9049 55.782 27.0369 55.554 27.2049 55.37C27.3769 55.186 27.5769 55.046 27.8049 54.95C28.0369 54.854 28.2889 54.806 28.5609 54.806C28.8289 54.806 29.0789 54.854 29.3109 54.95C29.5469 55.046 29.7489 55.186 29.9169 55.37C30.0889 55.554 30.2229 55.782 30.3189 56.054C30.4189 56.322 30.4689 56.628 30.4689 56.972ZM29.6409 56.972C29.6409 56.708 29.6129 56.484 29.5569 56.3C29.5009 56.112 29.4229 55.96 29.3229 55.844C29.2269 55.728 29.1129 55.644 28.9809 55.592C28.8489 55.54 28.7089 55.514 28.5609 55.514C28.4129 55.514 28.2729 55.54 28.1409 55.592C28.0129 55.644 27.9009 55.728 27.8049 55.844C27.7089 55.96 27.6329 56.112 27.5769 56.3C27.5249 56.484 27.4989 56.708 27.4989 56.972C27.4989 57.232 27.5249 57.452 27.5769 57.632C27.6329 57.812 27.7089 57.96 27.8049 58.076C27.9009 58.188 28.0129 58.27 28.1409 58.322C28.2729 58.37 28.4129 58.394 28.5609 58.394C28.7089 58.394 28.8489 58.37 28.9809 58.322C29.1129 58.27 29.2269 58.188 29.3229 58.076C29.4229 57.96 29.5009 57.812 29.5569 57.632C29.6129 57.452 29.6409 57.232 29.6409 56.972Z" fill="#8497AB"/>
<path d="M6.60409 14.184V15H1.99609V14.184H3.83809L3.83809 8.322C3.83809 8.146 3.84409 7.968 3.85609 7.788L2.32609 9.102C2.27409 9.146 2.22209 9.174 2.17009 9.186C2.11809 9.194 2.07009 9.194 2.02609 9.186C1.98209 9.178 1.94009 9.162 1.90009 9.138C1.86409 9.114 1.83609 9.088 1.81609 9.06L1.48009 8.598L4.04209 6.384H4.91209L4.91209 14.184H6.60409ZM14.057 10.704C14.057 11.456 13.975 12.108 13.811 12.66C13.651 13.208 13.431 13.662 13.151 14.022C12.871 14.382 12.539 14.65 12.155 14.826C11.775 15.002 11.367 15.09 10.931 15.09C10.491 15.09 10.081 15.002 9.70103 14.826C9.32503 14.65 8.99703 14.382 8.71703 14.022C8.43703 13.662 8.21703 13.208 8.05703 12.66C7.89703 12.108 7.81703 11.456 7.81703 10.704C7.81703 9.952 7.89703 9.3 8.05703 8.748C8.21703 8.196 8.43703 7.74 8.71703 7.38C8.99703 7.016 9.32503 6.746 9.70103 6.57C10.081 6.394 10.491 6.306 10.931 6.306C11.367 6.306 11.775 6.394 12.155 6.57C12.539 6.746 12.871 7.016 13.151 7.38C13.431 7.74 13.651 8.196 13.811 8.748C13.975 9.3 14.057 9.952 14.057 10.704ZM12.947 10.704C12.947 10.048 12.891 9.498 12.779 9.054C12.671 8.606 12.523 8.246 12.335 7.974C12.151 7.702 11.937 7.508 11.693 7.392C11.449 7.272 11.195 7.212 10.931 7.212C10.667 7.212 10.413 7.272 10.169 7.392C9.92503 7.508 9.71103 7.702 9.52703 7.974C9.34303 8.246 9.19503 8.606 9.08303 9.054C8.97503 9.498 8.92103 10.048 8.92103 10.704C8.92103 11.36 8.97503 11.91 9.08303 12.354C9.19503 12.798 9.34303 13.156 9.52703 13.428C9.71103 13.7 9.92503 13.896 10.169 14.016C10.413 14.132 10.667 14.19 10.931 14.19C11.195 14.19 11.449 14.132 11.693 14.016C11.937 13.896 12.151 13.7 12.335 13.428C12.523 13.156 12.671 12.798 12.779 12.354C12.891 11.91 12.947 11.36 12.947 10.704ZM21.018 10.704C21.018 11.456 20.936 12.108 20.772 12.66C20.612 13.208 20.392 13.662 20.112 14.022C19.832 14.382 19.5 14.65 19.116 14.826C18.736 15.002 18.328 15.09 17.892 15.09C17.452 15.09 17.042 15.002 16.662 14.826C16.286 14.65 15.958 14.382 15.678 14.022C15.398 13.662 15.178 13.208 15.018 12.66C14.858 12.108 14.778 11.456 14.778 10.704C14.778 9.952 14.858 9.3 15.018 8.748C15.178 8.196 15.398 7.74 15.678 7.38C15.958 7.016 16.286 6.746 16.662 6.57C17.042 6.394 17.452 6.306 17.892 6.306C18.328 6.306 18.736 6.394 19.116 6.57C19.5 6.746 19.832 7.016 20.112 7.38C20.392 7.74 20.612 8.196 20.772 8.748C20.936 9.3 21.018 9.952 21.018 10.704ZM19.908 10.704C19.908 10.048 19.852 9.498 19.74 9.054C19.632 8.606 19.484 8.246 19.296 7.974C19.112 7.702 18.898 7.508 18.654 7.392C18.41 7.272 18.156 7.212 17.892 7.212C17.628 7.212 17.374 7.272 17.13 7.392C16.886 7.508 16.672 7.702 16.488 7.974C16.304 8.246 16.156 8.606 16.044 9.054C15.936 9.498 15.882 10.048 15.882 10.704C15.882 11.36 15.936 11.91 16.044 12.354C16.156 12.798 16.304 13.156 16.488 13.428C16.672 13.7 16.886 13.896 17.13 14.016C17.374 14.132 17.628 14.19 17.892 14.19C18.156 14.19 18.41 14.132 18.654 14.016C18.898 13.896 19.112 13.7 19.296 13.428C19.484 13.156 19.632 12.798 19.74 12.354C19.852 11.91 19.908 11.36 19.908 10.704ZM25.7109 8.478C25.7109 8.814 25.6589 9.116 25.5549 9.384C25.4509 9.648 25.3109 9.872 25.1349 10.056C24.9629 10.236 24.7609 10.374 24.5289 10.47C24.3009 10.566 24.0589 10.614 23.8029 10.614C23.5349 10.614 23.2849 10.566 23.0529 10.47C22.8209 10.374 22.6189 10.236 22.4469 10.056C22.2789 9.872 22.1469 9.648 22.0509 9.384C21.9549 9.116 21.9069 8.814 21.9069 8.478C21.9069 8.134 21.9549 7.828 22.0509 7.56C22.1469 7.292 22.2789 7.066 22.4469 6.882C22.6189 6.698 22.8209 6.558 23.0529 6.462C23.2849 6.366 23.5349 6.318 23.8029 6.318C24.0749 6.318 24.3269 6.366 24.5589 6.462C24.7909 6.558 24.9929 6.698 25.1649 6.882C25.3369 7.066 25.4709 7.292 25.5669 7.56C25.6629 7.828 25.7109 8.134 25.7109 8.478ZM24.8829 8.478C24.8829 8.214 24.8549 7.99 24.7989 7.806C24.7429 7.622 24.6649 7.472 24.5649 7.356C24.4689 7.236 24.3549 7.15 24.2229 7.098C24.0909 7.046 23.9509 7.02 23.8029 7.02C23.6549 7.02 23.5169 7.046 23.3889 7.098C23.2609 7.15 23.1489 7.236 23.0529 7.356C22.9569 7.472 22.8809 7.622 22.8249 7.806C22.7689 7.99 22.7409 8.214 22.7409 8.478C22.7409 8.738 22.7689 8.96 22.8249 9.144C22.8809 9.324 22.9569 9.472 23.0529 9.588C23.1489 9.7 23.2609 9.782 23.3889 9.834C23.5169 9.882 23.6549 9.906 23.8029 9.906C23.9509 9.906 24.0909 9.882 24.2229 9.834C24.3549 9.782 24.4689 9.7 24.5649 9.588C24.6649 9.472 24.7429 9.324 24.7989 9.144C24.8549 8.96 24.8829 8.738 24.8829 8.478ZM28.7529 6.582C28.7929 6.534 28.8389 6.492 28.8909 6.456C28.9469 6.42 29.0209 6.402 29.1129 6.402H29.8869L23.5989 14.826C23.5629 14.878 23.5169 14.92 23.4609 14.952C23.4049 14.984 23.3369 15 23.2569 15H22.4709L28.7529 6.582ZM30.4689 12.972C30.4689 13.308 30.4169 13.608 30.3129 13.872C30.2089 14.136 30.0689 14.36 29.8929 14.544C29.7209 14.724 29.5189 14.862 29.2869 14.958C29.0589 15.054 28.8169 15.102 28.5609 15.102C28.2889 15.102 28.0369 15.054 27.8049 14.958C27.5769 14.862 27.3769 14.724 27.2049 14.544C27.0369 14.36 26.9049 14.136 26.8089 13.872C26.7129 13.608 26.6649 13.308 26.6649 12.972C26.6649 12.628 26.7129 12.322 26.8089 12.054C26.9049 11.782 27.0369 11.554 27.2049 11.37C27.3769 11.186 27.5769 11.046 27.8049 10.95C28.0369 10.854 28.2889 10.806 28.5609 10.806C28.8289 10.806 29.0789 10.854 29.3109 10.95C29.5469 11.046 29.7489 11.186 29.9169 11.37C30.0889 11.554 30.2229 11.782 30.3189 12.054C30.4189 12.322 30.4689 12.628 30.4689 12.972ZM29.6409 12.972C29.6409 12.708 29.6129 12.484 29.5569 12.3C29.5009 12.112 29.4229 11.96 29.3229 11.844C29.2269 11.728 29.1129 11.644 28.9809 11.592C28.8489 11.54 28.7089 11.514 28.5609 11.514C28.4129 11.514 28.2729 11.54 28.1409 11.592C28.0129 11.644 27.9009 11.728 27.8049 11.844C27.7089 11.96 27.6329 12.112 27.5769 12.3C27.5249 12.484 27.4989 12.708 27.4989 12.972C27.4989 13.232 27.5249 13.452 27.5769 13.632C27.6329 13.812 27.7089 13.96 27.8049 14.076C27.9009 14.188 28.0129 14.27 28.1409 14.322C28.2729 14.37 28.4129 14.394 28.5609 14.394C28.7089 14.394 28.8489 14.37 28.9809 14.322C29.1129 14.27 29.2269 14.188 29.3229 14.076C29.4229 13.96 29.5009 13.812 29.5569 13.632C29.6129 13.452 29.6409 13.232 29.6409 12.972Z" fill="#8497AB"/>
<path d="M217.6 215.704C217.6 216.456 217.518 217.108 217.354 217.66C217.194 218.208 216.974 218.662 216.694 219.022C216.414 219.382 216.082 219.65 215.698 219.826C215.318 220.002 214.91 220.09 214.474 220.09C214.034 220.09 213.624 220.002 213.244 219.826C212.868 219.65 212.54 219.382 212.26 219.022C211.98 218.662 211.76 218.208 211.6 217.66C211.44 217.108 211.36 216.456 211.36 215.704C211.36 214.952 211.44 214.3 211.6 213.748C211.76 213.196 211.98 212.74 212.26 212.38C212.54 212.016 212.868 211.746 213.244 211.57C213.624 211.394 214.034 211.306 214.474 211.306C214.91 211.306 215.318 211.394 215.698 211.57C216.082 211.746 216.414 212.016 216.694 212.38C216.974 212.74 217.194 213.196 217.354 213.748C217.518 214.3 217.6 214.952 217.6 215.704ZM216.49 215.704C216.49 215.048 216.434 214.498 216.322 214.054C216.214 213.606 216.066 213.246 215.878 212.974C215.694 212.702 215.48 212.508 215.236 212.392C214.992 212.272 214.738 212.212 214.474 212.212C214.21 212.212 213.956 212.272 213.712 212.392C213.468 212.508 213.254 212.702 213.07 212.974C212.886 213.246 212.738 213.606 212.626 214.054C212.518 214.498 212.464 215.048 212.464 215.704C212.464 216.36 212.518 216.91 212.626 217.354C212.738 217.798 212.886 218.156 213.07 218.428C213.254 218.7 213.468 218.896 213.712 219.016C213.956 219.132 214.21 219.19 214.474 219.19C214.738 219.19 214.992 219.132 215.236 219.016C215.48 218.896 215.694 218.7 215.878 218.428C216.066 218.156 216.214 217.798 216.322 217.354C216.434 216.91 216.49 216.36 216.49 215.704ZM220.133 214.648C220.581 214.552 220.993 214.504 221.369 214.504C221.817 214.504 222.213 214.57 222.557 214.702C222.901 214.834 223.187 215.016 223.415 215.248C223.647 215.48 223.821 215.754 223.937 216.07C224.057 216.386 224.117 216.73 224.117 217.102C224.117 217.558 224.037 217.97 223.877 218.338C223.721 218.706 223.503 219.022 223.223 219.286C222.947 219.546 222.621 219.746 222.245 219.886C221.869 220.026 221.463 220.096 221.027 220.096C220.775 220.096 220.533 220.07 220.301 220.018C220.069 219.97 219.851 219.904 219.647 219.82C219.447 219.736 219.261 219.64 219.089 219.532C218.917 219.424 218.765 219.31 218.633 219.19L218.963 218.734C219.035 218.63 219.129 218.578 219.245 218.578C219.325 218.578 219.415 218.61 219.515 218.674C219.615 218.734 219.737 218.802 219.881 218.878C220.025 218.954 220.193 219.024 220.385 219.088C220.581 219.148 220.813 219.178 221.081 219.178C221.381 219.178 221.651 219.13 221.891 219.034C222.131 218.938 222.337 218.802 222.509 218.626C222.681 218.446 222.813 218.232 222.905 217.984C222.997 217.736 223.043 217.458 223.043 217.15C223.043 216.882 223.003 216.64 222.923 216.424C222.847 216.208 222.729 216.024 222.569 215.872C222.413 215.72 222.217 215.602 221.981 215.518C221.745 215.434 221.469 215.392 221.153 215.392C220.937 215.392 220.711 215.41 220.475 215.446C220.243 215.482 220.005 215.54 219.761 215.62L219.089 215.422L219.779 211.402H223.853V211.87C223.853 212.022 223.805 212.148 223.709 212.248C223.617 212.344 223.457 212.392 223.229 212.392H220.529L220.133 214.648Z" fill="#8497AB"/>
<path d="M369.6 215.704C369.6 216.456 369.518 217.108 369.354 217.66C369.194 218.208 368.974 218.662 368.694 219.022C368.414 219.382 368.082 219.65 367.698 219.826C367.318 220.002 366.91 220.09 366.474 220.09C366.034 220.09 365.624 220.002 365.244 219.826C364.868 219.65 364.54 219.382 364.26 219.022C363.98 218.662 363.76 218.208 363.6 217.66C363.44 217.108 363.36 216.456 363.36 215.704C363.36 214.952 363.44 214.3 363.6 213.748C363.76 213.196 363.98 212.74 364.26 212.38C364.54 212.016 364.868 211.746 365.244 211.57C365.624 211.394 366.034 211.306 366.474 211.306C366.91 211.306 367.318 211.394 367.698 211.57C368.082 211.746 368.414 212.016 368.694 212.38C368.974 212.74 369.194 213.196 369.354 213.748C369.518 214.3 369.6 214.952 369.6 215.704ZM368.49 215.704C368.49 215.048 368.434 214.498 368.322 214.054C368.214 213.606 368.066 213.246 367.878 212.974C367.694 212.702 367.48 212.508 367.236 212.392C366.992 212.272 366.738 212.212 366.474 212.212C366.21 212.212 365.956 212.272 365.712 212.392C365.468 212.508 365.254 212.702 365.07 212.974C364.886 213.246 364.738 213.606 364.626 214.054C364.518 214.498 364.464 215.048 364.464 215.704C364.464 216.36 364.518 216.91 364.626 217.354C364.738 217.798 364.886 218.156 365.07 218.428C365.254 218.7 365.468 218.896 365.712 219.016C365.956 219.132 366.21 219.19 366.474 219.19C366.738 219.19 366.992 219.132 367.236 219.016C367.48 218.896 367.694 218.7 367.878 218.428C368.066 218.156 368.214 217.798 368.322 217.354C368.434 216.91 368.49 216.36 368.49 215.704ZM371.659 213.928C371.659 214.2 371.697 214.444 371.773 214.66C371.853 214.872 371.965 215.052 372.109 215.2C372.257 215.348 372.435 215.46 372.643 215.536C372.855 215.612 373.091 215.65 373.351 215.65C373.639 215.65 373.893 215.604 374.113 215.512C374.337 215.416 374.525 215.29 374.677 215.134C374.829 214.978 374.945 214.798 375.025 214.594C375.105 214.39 375.145 214.178 375.145 213.958C375.145 213.69 375.101 213.448 375.013 213.232C374.929 213.012 374.811 212.826 374.659 212.674C374.507 212.522 374.325 212.406 374.113 212.326C373.905 212.242 373.675 212.2 373.423 212.2C373.159 212.2 372.919 212.244 372.703 212.332C372.487 212.416 372.301 212.534 372.145 212.686C371.989 212.838 371.869 213.02 371.785 213.232C371.701 213.444 371.659 213.676 371.659 213.928ZM374.155 216.574C374.243 216.458 374.325 216.348 374.401 216.244C374.477 216.14 374.549 216.036 374.617 215.932C374.397 216.108 374.149 216.242 373.873 216.334C373.597 216.426 373.305 216.472 372.997 216.472C372.673 216.472 372.365 216.418 372.073 216.31C371.785 216.202 371.531 216.044 371.311 215.836C371.091 215.624 370.915 215.366 370.783 215.062C370.655 214.754 370.591 214.402 370.591 214.006C370.591 213.63 370.661 213.278 370.801 212.95C370.941 212.622 371.137 212.336 371.389 212.092C371.641 211.848 371.941 211.656 372.289 211.516C372.637 211.376 373.019 211.306 373.435 211.306C373.847 211.306 374.221 211.374 374.557 211.51C374.893 211.646 375.181 211.836 375.421 212.08C375.661 212.324 375.845 212.616 375.973 212.956C376.105 213.296 376.171 213.672 376.171 214.084C376.171 214.332 376.147 214.568 376.099 214.792C376.055 215.012 375.989 215.23 375.901 215.446C375.817 215.658 375.713 215.87 375.589 216.082C375.465 216.29 375.325 216.504 375.169 216.724L373.075 219.748C373.023 219.824 372.949 219.886 372.853 219.934C372.757 219.978 372.647 220 372.523 220H371.539L374.155 216.574Z" fill="#8497AB"/>
<path d="M103.6 215.704C103.6 216.456 103.518 217.108 103.354 217.66C103.194 218.208 102.974 218.662 102.694 219.022C102.414 219.382 102.082 219.65 101.698 219.826C101.318 220.002 100.91 220.09 100.474 220.09C100.034 220.09 99.624 220.002 99.244 219.826C98.868 219.65 98.54 219.382 98.26 219.022C97.98 218.662 97.76 218.208 97.6 217.66C97.44 217.108 97.36 216.456 97.36 215.704C97.36 214.952 97.44 214.3 97.6 213.748C97.76 213.196 97.98 212.74 98.26 212.38C98.54 212.016 98.868 211.746 99.244 211.57C99.624 211.394 100.034 211.306 100.474 211.306C100.91 211.306 101.318 211.394 101.698 211.57C102.082 211.746 102.414 212.016 102.694 212.38C102.974 212.74 103.194 213.196 103.354 213.748C103.518 214.3 103.6 214.952 103.6 215.704ZM102.49 215.704C102.49 215.048 102.434 214.498 102.322 214.054C102.214 213.606 102.066 213.246 101.878 212.974C101.694 212.702 101.48 212.508 101.236 212.392C100.992 212.272 100.738 212.212 100.474 212.212C100.21 212.212 99.956 212.272 99.712 212.392C99.468 212.508 99.254 212.702 99.07 212.974C98.886 213.246 98.738 213.606 98.626 214.054C98.518 214.498 98.464 215.048 98.464 215.704C98.464 216.36 98.518 216.91 98.626 217.354C98.738 217.798 98.886 218.156 99.07 218.428C99.254 218.7 99.468 218.896 99.712 219.016C99.956 219.132 100.21 219.19 100.474 219.19C100.738 219.19 100.992 219.132 101.236 219.016C101.48 218.896 101.694 218.7 101.878 218.428C102.066 218.156 102.214 217.798 102.322 217.354C102.434 216.91 102.49 216.36 102.49 215.704ZM109.883 218.986C109.999 218.986 110.091 219.02 110.159 219.088C110.227 219.156 110.261 219.244 110.261 219.352V220H104.525V219.634C104.525 219.558 104.541 219.48 104.573 219.4C104.605 219.32 104.655 219.246 104.723 219.178L107.477 216.412C107.705 216.18 107.913 215.958 108.101 215.746C108.289 215.53 108.449 215.314 108.581 215.098C108.713 214.882 108.815 214.664 108.887 214.444C108.959 214.22 108.995 213.982 108.995 213.73C108.995 213.478 108.955 213.258 108.875 213.07C108.795 212.878 108.685 212.72 108.545 212.596C108.409 212.472 108.247 212.38 108.059 212.32C107.871 212.256 107.669 212.224 107.453 212.224C107.233 212.224 107.031 212.256 106.847 212.32C106.663 212.384 106.499 212.474 106.355 212.59C106.215 212.702 106.097 212.836 106.001 212.992C105.905 213.148 105.837 213.32 105.797 213.508C105.749 213.648 105.683 213.742 105.599 213.79C105.519 213.834 105.405 213.846 105.257 213.826L104.699 213.73C104.755 213.338 104.863 212.992 105.023 212.692C105.187 212.388 105.391 212.134 105.635 211.93C105.883 211.726 106.165 211.572 106.481 211.468C106.797 211.36 107.139 211.306 107.507 211.306C107.871 211.306 108.211 211.36 108.527 211.468C108.843 211.576 109.117 211.734 109.349 211.942C109.581 212.146 109.763 212.396 109.895 212.692C110.027 212.988 110.093 213.324 110.093 213.7C110.093 214.02 110.045 214.318 109.949 214.594C109.853 214.866 109.723 215.126 109.559 215.374C109.395 215.622 109.205 215.864 108.989 216.1C108.777 216.336 108.551 216.574 108.311 216.814L106.043 219.13C106.203 219.086 106.365 219.052 106.529 219.028C106.693 219 106.851 218.986 107.003 218.986H109.883Z" fill="#8497AB"/>
<path d="M255.6 215.704C255.6 216.456 255.518 217.108 255.354 217.66C255.194 218.208 254.974 218.662 254.694 219.022C254.414 219.382 254.082 219.65 253.698 219.826C253.318 220.002 252.91 220.09 252.474 220.09C252.034 220.09 251.624 220.002 251.244 219.826C250.868 219.65 250.54 219.382 250.26 219.022C249.98 218.662 249.76 218.208 249.6 217.66C249.44 217.108 249.36 216.456 249.36 215.704C249.36 214.952 249.44 214.3 249.6 213.748C249.76 213.196 249.98 212.74 250.26 212.38C250.54 212.016 250.868 211.746 251.244 211.57C251.624 211.394 252.034 211.306 252.474 211.306C252.91 211.306 253.318 211.394 253.698 211.57C254.082 211.746 254.414 212.016 254.694 212.38C254.974 212.74 255.194 213.196 255.354 213.748C255.518 214.3 255.6 214.952 255.6 215.704ZM254.49 215.704C254.49 215.048 254.434 214.498 254.322 214.054C254.214 213.606 254.066 213.246 253.878 212.974C253.694 212.702 253.48 212.508 253.236 212.392C252.992 212.272 252.738 212.212 252.474 212.212C252.21 212.212 251.956 212.272 251.712 212.392C251.468 212.508 251.254 212.702 251.07 212.974C250.886 213.246 250.738 213.606 250.626 214.054C250.518 214.498 250.464 215.048 250.464 215.704C250.464 216.36 250.518 216.91 250.626 217.354C250.738 217.798 250.886 218.156 251.07 218.428C251.254 218.7 251.468 218.896 251.712 219.016C251.956 219.132 252.21 219.19 252.474 219.19C252.738 219.19 252.992 219.132 253.236 219.016C253.48 218.896 253.694 218.7 253.878 218.428C254.066 218.156 254.214 217.798 254.322 217.354C254.434 216.91 254.49 216.36 254.49 215.704ZM259.429 219.208C259.717 219.208 259.977 219.162 260.209 219.07C260.445 218.978 260.645 218.85 260.809 218.686C260.977 218.522 261.105 218.328 261.193 218.104C261.285 217.88 261.331 217.636 261.331 217.372C261.331 217.092 261.287 216.84 261.199 216.616C261.111 216.388 260.985 216.196 260.821 216.04C260.661 215.88 260.469 215.758 260.245 215.674C260.021 215.59 259.775 215.548 259.507 215.548C259.219 215.548 258.959 215.598 258.727 215.698C258.495 215.794 258.297 215.926 258.133 216.094C257.973 216.258 257.849 216.45 257.761 216.67C257.677 216.886 257.635 217.112 257.635 217.348C257.635 217.624 257.675 217.876 257.755 218.104C257.835 218.332 257.951 218.528 258.103 218.692C258.259 218.856 258.447 218.984 258.667 219.076C258.891 219.164 259.145 219.208 259.429 219.208ZM258.805 214.624C258.729 214.72 258.655 214.814 258.583 214.906C258.515 214.994 258.449 215.082 258.385 215.17C258.589 215.03 258.813 214.922 259.057 214.846C259.301 214.77 259.567 214.732 259.855 214.732C260.203 214.732 260.531 214.79 260.839 214.906C261.147 215.018 261.415 215.184 261.643 215.404C261.875 215.62 262.059 215.888 262.195 216.208C262.331 216.524 262.399 216.886 262.399 217.294C262.399 217.69 262.327 218.058 262.183 218.398C262.039 218.738 261.837 219.034 261.577 219.286C261.321 219.538 261.011 219.736 260.647 219.88C260.287 220.024 259.889 220.096 259.453 220.096C259.021 220.096 258.629 220.028 258.277 219.892C257.925 219.752 257.625 219.556 257.377 219.304C257.133 219.048 256.943 218.74 256.807 218.38C256.675 218.016 256.609 217.61 256.609 217.162C256.609 216.786 256.691 216.386 256.855 215.962C257.023 215.534 257.289 215.078 257.653 214.594L259.837 211.66C259.893 211.588 259.969 211.528 260.065 211.48C260.165 211.428 260.279 211.402 260.407 211.402H261.355L258.805 214.624Z" fill="#8497AB"/>
<path d="M407.108 219.184V220H402.5V219.184H404.342V213.322C404.342 213.146 404.348 212.968 404.36 212.788L402.83 214.102C402.778 214.146 402.726 214.174 402.674 214.186C402.622 214.194 402.574 214.194 402.53 214.186C402.486 214.178 402.444 214.162 402.404 214.138C402.368 214.114 402.34 214.088 402.32 214.06L401.984 213.598L404.546 211.384H405.416V219.184H407.108ZM414.561 215.704C414.561 216.456 414.479 217.108 414.315 217.66C414.155 218.208 413.935 218.662 413.655 219.022C413.375 219.382 413.043 219.65 412.659 219.826C412.279 220.002 411.871 220.09 411.435 220.09C410.995 220.09 410.585 220.002 410.205 219.826C409.829 219.65 409.501 219.382 409.221 219.022C408.941 218.662 408.721 218.208 408.561 217.66C408.401 217.108 408.321 216.456 408.321 215.704C408.321 214.952 408.401 214.3 408.561 213.748C408.721 213.196 408.941 212.74 409.221 212.38C409.501 212.016 409.829 211.746 410.205 211.57C410.585 211.394 410.995 211.306 411.435 211.306C411.871 211.306 412.279 211.394 412.659 211.57C413.043 211.746 413.375 212.016 413.655 212.38C413.935 212.74 414.155 213.196 414.315 213.748C414.479 214.3 414.561 214.952 414.561 215.704ZM413.451 215.704C413.451 215.048 413.395 214.498 413.283 214.054C413.175 213.606 413.027 213.246 412.839 212.974C412.655 212.702 412.441 212.508 412.197 212.392C411.953 212.272 411.699 212.212 411.435 212.212C411.171 212.212 410.917 212.272 410.673 212.392C410.429 212.508 410.215 212.702 410.031 212.974C409.847 213.246 409.699 213.606 409.587 214.054C409.479 214.498 409.425 215.048 409.425 215.704C409.425 216.36 409.479 216.91 409.587 217.354C409.699 217.798 409.847 218.156 410.031 218.428C410.215 218.7 410.429 218.896 410.673 219.016C410.917 219.132 411.171 219.19 411.435 219.19C411.699 219.19 411.953 219.132 412.197 219.016C412.441 218.896 412.655 218.7 412.839 218.428C413.027 218.156 413.175 217.798 413.283 217.354C413.395 216.91 413.451 216.36 413.451 215.704Z" fill="#8497AB"/>
<path d="M141.6 215.704C141.6 216.456 141.518 217.108 141.354 217.66C141.194 218.208 140.974 218.662 140.694 219.022C140.414 219.382 140.082 219.65 139.698 219.826C139.318 220.002 138.91 220.09 138.474 220.09C138.034 220.09 137.624 220.002 137.244 219.826C136.868 219.65 136.54 219.382 136.26 219.022C135.98 218.662 135.76 218.208 135.6 217.66C135.44 217.108 135.36 216.456 135.36 215.704C135.36 214.952 135.44 214.3 135.6 213.748C135.76 213.196 135.98 212.74 136.26 212.38C136.54 212.016 136.868 211.746 137.244 211.57C137.624 211.394 138.034 211.306 138.474 211.306C138.91 211.306 139.318 211.394 139.698 211.57C140.082 211.746 140.414 212.016 140.694 212.38C140.974 212.74 141.194 213.196 141.354 213.748C141.518 214.3 141.6 214.952 141.6 215.704ZM140.49 215.704C140.49 215.048 140.434 214.498 140.322 214.054C140.214 213.606 140.066 213.246 139.878 212.974C139.694 212.702 139.48 212.508 139.236 212.392C138.992 212.272 138.738 212.212 138.474 212.212C138.21 212.212 137.956 212.272 137.712 212.392C137.468 212.508 137.254 212.702 137.07 212.974C136.886 213.246 136.738 213.606 136.626 214.054C136.518 214.498 136.464 215.048 136.464 215.704C136.464 216.36 136.518 216.91 136.626 217.354C136.738 217.798 136.886 218.156 137.07 218.428C137.254 218.7 137.468 218.896 137.712 219.016C137.956 219.132 138.21 219.19 138.474 219.19C138.738 219.19 138.992 219.132 139.236 219.016C139.48 218.896 139.694 218.7 139.878 218.428C140.066 218.156 140.214 217.798 140.322 217.354C140.434 216.91 140.49 216.36 140.49 215.704ZM142.741 213.73C142.797 213.338 142.905 212.992 143.065 212.692C143.225 212.388 143.427 212.134 143.671 211.93C143.919 211.726 144.201 211.572 144.517 211.468C144.837 211.36 145.181 211.306 145.549 211.306C145.913 211.306 146.249 211.358 146.557 211.462C146.865 211.566 147.129 211.714 147.349 211.906C147.573 212.098 147.747 212.33 147.871 212.602C147.995 212.874 148.057 213.176 148.057 213.508C148.057 213.78 148.021 214.024 147.949 214.24C147.881 214.452 147.781 214.638 147.649 214.798C147.521 214.958 147.365 215.094 147.181 215.206C146.997 215.318 146.791 215.41 146.563 215.482C147.123 215.626 147.543 215.874 147.823 216.226C148.107 216.574 148.249 217.01 148.249 217.534C148.249 217.93 148.173 218.286 148.021 218.602C147.873 218.918 147.669 219.188 147.409 219.412C147.149 219.632 146.845 219.802 146.497 219.922C146.153 220.038 145.783 220.096 145.387 220.096C144.931 220.096 144.541 220.04 144.217 219.928C143.893 219.812 143.619 219.654 143.395 219.454C143.171 219.254 142.987 219.018 142.843 218.746C142.699 218.47 142.577 218.172 142.477 217.852L142.939 217.66C143.059 217.608 143.175 217.594 143.287 217.618C143.403 217.642 143.487 217.708 143.539 217.816C143.591 217.928 143.655 218.062 143.731 218.218C143.811 218.374 143.919 218.524 144.055 218.668C144.191 218.812 144.363 218.934 144.571 219.034C144.783 219.134 145.051 219.184 145.375 219.184C145.675 219.184 145.937 219.136 146.161 219.04C146.389 218.94 146.577 218.812 146.725 218.656C146.877 218.5 146.991 218.326 147.067 218.134C147.143 217.942 147.181 217.752 147.181 217.564C147.181 217.332 147.151 217.12 147.091 216.928C147.031 216.736 146.919 216.57 146.755 216.43C146.591 216.29 146.365 216.18 146.077 216.1C145.793 216.02 145.427 215.98 144.979 215.98V215.206C145.347 215.202 145.659 215.162 145.915 215.086C146.175 215.01 146.385 214.906 146.545 214.774C146.709 214.642 146.827 214.484 146.899 214.3C146.975 214.116 147.013 213.912 147.013 213.688C147.013 213.44 146.973 213.224 146.893 213.04C146.817 212.856 146.711 212.704 146.575 212.584C146.439 212.464 146.277 212.374 146.089 212.314C145.905 212.254 145.705 212.224 145.489 212.224C145.273 212.224 145.071 212.256 144.883 212.32C144.699 212.384 144.535 212.474 144.391 212.59C144.251 212.702 144.133 212.836 144.037 212.992C143.941 213.148 143.873 213.32 143.833 213.508C143.781 213.648 143.715 213.742 143.635 213.79C143.559 213.834 143.447 213.846 143.299 213.826L142.741 213.73Z" fill="#8497AB"/>
<path d="M293.6 215.704C293.6 216.456 293.518 217.108 293.354 217.66C293.194 218.208 292.974 218.662 292.694 219.022C292.414 219.382 292.082 219.65 291.698 219.826C291.318 220.002 290.91 220.09 290.474 220.09C290.034 220.09 289.624 220.002 289.244 219.826C288.868 219.65 288.54 219.382 288.26 219.022C287.98 218.662 287.76 218.208 287.6 217.66C287.44 217.108 287.36 216.456 287.36 215.704C287.36 214.952 287.44 214.3 287.6 213.748C287.76 213.196 287.98 212.74 288.26 212.38C288.54 212.016 288.868 211.746 289.244 211.57C289.624 211.394 290.034 211.306 290.474 211.306C290.91 211.306 291.318 211.394 291.698 211.57C292.082 211.746 292.414 212.016 292.694 212.38C292.974 212.74 293.194 213.196 293.354 213.748C293.518 214.3 293.6 214.952 293.6 215.704ZM292.49 215.704C292.49 215.048 292.434 214.498 292.322 214.054C292.214 213.606 292.066 213.246 291.878 212.974C291.694 212.702 291.48 212.508 291.236 212.392C290.992 212.272 290.738 212.212 290.474 212.212C290.21 212.212 289.956 212.272 289.712 212.392C289.468 212.508 289.254 212.702 289.07 212.974C288.886 213.246 288.738 213.606 288.626 214.054C288.518 214.498 288.464 215.048 288.464 215.704C288.464 216.36 288.518 216.91 288.626 217.354C288.738 217.798 288.886 218.156 289.07 218.428C289.254 218.7 289.468 218.896 289.712 219.016C289.956 219.132 290.21 219.19 290.474 219.19C290.738 219.19 290.992 219.132 291.236 219.016C291.48 218.896 291.694 218.7 291.878 218.428C292.066 218.156 292.214 217.798 292.322 217.354C292.434 216.91 292.49 216.36 292.49 215.704ZM300.447 211.402V211.882C300.447 212.018 300.431 212.13 300.399 212.218C300.371 212.306 300.343 212.38 300.315 212.44L296.751 219.622C296.699 219.726 296.627 219.816 296.535 219.892C296.443 219.964 296.321 220 296.169 220H295.401L299.013 212.908C299.065 212.808 299.119 212.716 299.175 212.632C299.231 212.548 299.291 212.468 299.355 212.392H294.867C294.799 212.392 294.739 212.366 294.687 212.314C294.635 212.258 294.609 212.196 294.609 212.128V211.402H300.447Z" fill="#8497AB"/>
<path d="M445.108 219.184V220H440.5V219.184H442.342V213.322C442.342 213.146 442.348 212.968 442.36 212.788L440.83 214.102C440.778 214.146 440.726 214.174 440.674 214.186C440.622 214.194 440.574 214.194 440.53 214.186C440.486 214.178 440.444 214.162 440.404 214.138C440.368 214.114 440.34 214.088 440.32 214.06L439.984 213.598L442.546 211.384H443.416V219.184H445.108ZM452.069 219.184V220H447.461V219.184H449.303V213.322C449.303 213.146 449.309 212.968 449.321 212.788L447.791 214.102C447.739 214.146 447.687 214.174 447.635 214.186C447.583 214.194 447.535 214.194 447.491 214.186C447.447 214.178 447.405 214.162 447.365 214.138C447.329 214.114 447.301 214.088 447.281 214.06L446.945 213.598L449.507 211.384H450.377V219.184H452.069Z" fill="#8497AB"/>
<path d="M179.6 215.704C179.6 216.456 179.518 217.108 179.354 217.66C179.194 218.208 178.974 218.662 178.694 219.022C178.414 219.382 178.082 219.65 177.698 219.826C177.318 220.002 176.91 220.09 176.474 220.09C176.034 220.09 175.624 220.002 175.244 219.826C174.868 219.65 174.54 219.382 174.26 219.022C173.98 218.662 173.76 218.208 173.6 217.66C173.44 217.108 173.36 216.456 173.36 215.704C173.36 214.952 173.44 214.3 173.6 213.748C173.76 213.196 173.98 212.74 174.26 212.38C174.54 212.016 174.868 211.746 175.244 211.57C175.624 211.394 176.034 211.306 176.474 211.306C176.91 211.306 177.318 211.394 177.698 211.57C178.082 211.746 178.414 212.016 178.694 212.38C178.974 212.74 179.194 213.196 179.354 213.748C179.518 214.3 179.6 214.952 179.6 215.704ZM178.49 215.704C178.49 215.048 178.434 214.498 178.322 214.054C178.214 213.606 178.066 213.246 177.878 212.974C177.694 212.702 177.48 212.508 177.236 212.392C176.992 212.272 176.738 212.212 176.474 212.212C176.21 212.212 175.956 212.272 175.712 212.392C175.468 212.508 175.254 212.702 175.07 212.974C174.886 213.246 174.738 213.606 174.626 214.054C174.518 214.498 174.464 215.048 174.464 215.704C174.464 216.36 174.518 216.91 174.626 217.354C174.738 217.798 174.886 218.156 175.07 218.428C175.254 218.7 175.468 218.896 175.712 219.016C175.956 219.132 176.21 219.19 176.474 219.19C176.738 219.19 176.992 219.132 177.236 219.016C177.48 218.896 177.694 218.7 177.878 218.428C178.066 218.156 178.214 217.798 178.322 217.354C178.434 216.91 178.49 216.36 178.49 215.704ZM184.341 216.898V213.352C184.341 213.248 184.345 213.134 184.353 213.01C184.361 212.886 184.373 212.76 184.389 212.632L181.257 216.898H184.341ZM186.579 216.898V217.51C186.579 217.574 186.559 217.628 186.519 217.672C186.483 217.716 186.425 217.738 186.345 217.738H185.277V220H184.341V217.738H180.525C180.445 217.738 180.375 217.716 180.315 217.672C180.259 217.624 180.223 217.566 180.207 217.498L180.099 216.952L184.281 211.402H185.277V216.898H186.579Z" fill="#8497AB"/>
<path d="M331.6 215.704C331.6 216.456 331.518 217.108 331.354 217.66C331.194 218.208 330.974 218.662 330.694 219.022C330.414 219.382 330.082 219.65 329.698 219.826C329.318 220.002 328.91 220.09 328.474 220.09C328.034 220.09 327.624 220.002 327.244 219.826C326.868 219.65 326.54 219.382 326.26 219.022C325.98 218.662 325.76 218.208 325.6 217.66C325.44 217.108 325.36 216.456 325.36 215.704C325.36 214.952 325.44 214.3 325.6 213.748C325.76 213.196 325.98 212.74 326.26 212.38C326.54 212.016 326.868 211.746 327.244 211.57C327.624 211.394 328.034 211.306 328.474 211.306C328.91 211.306 329.318 211.394 329.698 211.57C330.082 211.746 330.414 212.016 330.694 212.38C330.974 212.74 331.194 213.196 331.354 213.748C331.518 214.3 331.6 214.952 331.6 215.704ZM330.49 215.704C330.49 215.048 330.434 214.498 330.322 214.054C330.214 213.606 330.066 213.246 329.878 212.974C329.694 212.702 329.48 212.508 329.236 212.392C328.992 212.272 328.738 212.212 328.474 212.212C328.21 212.212 327.956 212.272 327.712 212.392C327.468 212.508 327.254 212.702 327.07 212.974C326.886 213.246 326.738 213.606 326.626 214.054C326.518 214.498 326.464 215.048 326.464 215.704C326.464 216.36 326.518 216.91 326.626 217.354C326.738 217.798 326.886 218.156 327.07 218.428C327.254 218.7 327.468 218.896 327.712 219.016C327.956 219.132 328.21 219.19 328.474 219.19C328.738 219.19 328.992 219.132 329.236 219.016C329.48 218.896 329.694 218.7 329.878 218.428C330.066 218.156 330.214 217.798 330.322 217.354C330.434 216.91 330.49 216.36 330.49 215.704ZM335.441 219.244C335.721 219.244 335.971 219.206 336.191 219.13C336.415 219.05 336.603 218.94 336.755 218.8C336.911 218.656 337.029 218.486 337.109 218.29C337.193 218.09 337.235 217.87 337.235 217.63C337.235 217.334 337.185 217.082 337.085 216.874C336.989 216.662 336.857 216.49 336.689 216.358C336.525 216.226 336.335 216.13 336.119 216.07C335.903 216.006 335.677 215.974 335.441 215.974C335.205 215.974 334.979 216.006 334.763 216.07C334.547 216.13 334.355 216.226 334.187 216.358C334.023 216.49 333.891 216.662 333.791 216.874C333.695 217.082 333.647 217.334 333.647 217.63C333.647 217.87 333.687 218.09 333.767 218.29C333.851 218.486 333.969 218.656 334.121 218.8C334.277 218.94 334.465 219.05 334.685 219.13C334.909 219.206 335.161 219.244 335.441 219.244ZM335.441 212.134C335.185 212.134 334.959 212.172 334.763 212.248C334.571 212.324 334.409 212.428 334.277 212.56C334.149 212.692 334.051 212.846 333.983 213.022C333.919 213.198 333.887 213.386 333.887 213.586C333.887 213.782 333.915 213.972 333.971 214.156C334.027 214.34 334.117 214.504 334.241 214.648C334.365 214.788 334.525 214.902 334.721 214.99C334.921 215.074 335.161 215.116 335.441 215.116C335.721 215.116 335.959 215.074 336.155 214.99C336.355 214.902 336.517 214.788 336.641 214.648C336.765 214.504 336.855 214.34 336.911 214.156C336.967 213.972 336.995 213.782 336.995 213.586C336.995 213.386 336.961 213.198 336.893 213.022C336.829 212.846 336.731 212.692 336.599 212.56C336.471 212.428 336.309 212.324 336.113 212.248C335.921 212.172 335.697 212.134 335.441 212.134ZM336.671 215.518C337.207 215.67 337.619 215.924 337.907 216.28C338.195 216.636 338.339 217.092 338.339 217.648C338.339 218.024 338.267 218.364 338.123 218.668C337.983 218.968 337.785 219.224 337.529 219.436C337.277 219.648 336.973 219.812 336.617 219.928C336.261 220.04 335.869 220.096 335.441 220.096C335.013 220.096 334.621 220.04 334.265 219.928C333.909 219.812 333.603 219.648 333.347 219.436C333.091 219.224 332.893 218.968 332.753 218.668C332.613 218.364 332.543 218.024 332.543 217.648C332.543 217.092 332.687 216.636 332.975 216.28C333.263 215.924 333.675 215.67 334.211 215.518C333.759 215.35 333.417 215.1 333.185 214.768C332.957 214.432 332.843 214.032 332.843 213.568C332.843 213.252 332.905 212.956 333.029 212.68C333.153 212.404 333.329 212.164 333.557 211.96C333.785 211.756 334.057 211.596 334.373 211.48C334.693 211.364 335.049 211.306 335.441 211.306C335.829 211.306 336.183 211.364 336.503 211.48C336.823 211.596 337.097 211.756 337.325 211.96C337.553 212.164 337.729 212.404 337.853 212.68C337.977 212.956 338.039 213.252 338.039 213.568C338.039 214.032 337.923 214.432 337.691 214.768C337.463 215.1 337.123 215.35 336.671 215.518Z" fill="#8497AB"/>
<path d="M483.108 219.184V220H478.5V219.184H480.342V213.322C480.342 213.146 480.348 212.968 480.36 212.788L478.83 214.102C478.778 214.146 478.726 214.174 478.674 214.186C478.622 214.194 478.574 214.194 478.53 214.186C478.486 214.178 478.444 214.162 478.404 214.138C478.368 214.114 478.34 214.088 478.32 214.06L477.984 213.598L480.546 211.384H481.416V219.184H483.108ZM489.883 218.986C489.999 218.986 490.091 219.02 490.159 219.088C490.227 219.156 490.261 219.244 490.261 219.352V220H484.525V219.634C484.525 219.558 484.541 219.48 484.573 219.4C484.605 219.32 484.655 219.246 484.723 219.178L487.477 216.412C487.705 216.18 487.913 215.958 488.101 215.746C488.289 215.53 488.449 215.314 488.581 215.098C488.713 214.882 488.815 214.664 488.887 214.444C488.959 214.22 488.995 213.982 488.995 213.73C488.995 213.478 488.955 213.258 488.875 213.07C488.795 212.878 488.685 212.72 488.545 212.596C488.409 212.472 488.247 212.38 488.059 212.32C487.871 212.256 487.669 212.224 487.453 212.224C487.233 212.224 487.031 212.256 486.847 212.32C486.663 212.384 486.499 212.474 486.355 212.59C486.215 212.702 486.097 212.836 486.001 212.992C485.905 213.148 485.837 213.32 485.797 213.508C485.749 213.648 485.683 213.742 485.599 213.79C485.519 213.834 485.405 213.846 485.257 213.826L484.699 213.73C484.755 213.338 484.863 212.992 485.023 212.692C485.187 212.388 485.391 212.134 485.635 211.93C485.883 211.726 486.165 211.572 486.481 211.468C486.797 211.36 487.139 211.306 487.507 211.306C487.871 211.306 488.211 211.36 488.527 211.468C488.843 211.576 489.117 211.734 489.349 211.942C489.581 212.146 489.763 212.396 489.895 212.692C490.027 212.988 490.093 213.324 490.093 213.7C490.093 214.02 490.045 214.318 489.949 214.594C489.853 214.866 489.723 215.126 489.559 215.374C489.395 215.622 489.205 215.864 488.989 216.1C488.777 216.336 488.551 216.574 488.311 216.814L486.043 219.13C486.203 219.086 486.365 219.052 486.529 219.028C486.693 219 486.851 218.986 487.003 218.986H489.883Z" fill="#8497AB"/>
<mask id="path-18-inside-1_401_6600" fill="white">
<path fill-rule="evenodd" clip-rule="evenodd" d="M61 189.405L493 189.405V190.042L61 190.042V189.405Z"/>
</mask>
<path d="M61 189.405V188.405H60V189.405H61ZM493 189.405H494V188.405H493V189.405ZM493 190.042V191.042H494V190.042H493ZM61 190.042H60V191.042H61V190.042ZM61 190.405L493 190.405V188.405L61 188.405V190.405ZM492 189.405V190.042H494V189.405H492ZM493 189.042L61 189.042V191.042L493 191.042V189.042ZM62 190.042V189.405H60V190.042H62Z" fill="#E4E8EB" mask="url(#path-18-inside-1_401_6600)"/>
<mask id="path-20-inside-2_401_6600" fill="white">
<path fill-rule="evenodd" clip-rule="evenodd" d="M61 144.803L493 144.803V145.441L61 145.441V144.803Z"/>
</mask>
<path d="M61 144.803V143.803H60V144.803H61ZM493 144.803H494V143.803H493V144.803ZM493 145.441V146.441H494V145.441H493ZM61 145.441H60V146.441H61V145.441ZM61 145.803L493 145.803V143.803L61 143.803V145.803ZM492 144.803V145.441H494V144.803H492ZM493 144.441L61 144.441V146.441L493 146.441V144.441ZM62 145.441V144.803H60V145.441H62Z" fill="#E4E8EB" mask="url(#path-20-inside-2_401_6600)"/>
<mask id="path-22-inside-3_401_6600" fill="white">
<path fill-rule="evenodd" clip-rule="evenodd" d="M61 100.202L493 100.202V100.84L61 100.84V100.202Z"/>
</mask>
<path d="M61 100.202V99.2024H60V100.202H61ZM493 100.202H494V99.2024H493V100.202ZM493 100.84V101.84H494V100.84H493ZM61 100.84H60V101.84H61V100.84ZM61 101.202L493 101.202V99.2024L61 99.2024V101.202ZM492 100.202V100.84H494V100.202H492ZM493 99.8396L61 99.8396V101.84L493 101.84V99.8396ZM62 100.84V100.202H60V100.84H62Z" fill="#E4E8EB" mask="url(#path-22-inside-3_401_6600)"/>
<mask id="path-24-inside-4_401_6600" fill="white">
<path fill-rule="evenodd" clip-rule="evenodd" d="M61 55.6013L493 55.6013V56.2385L61 56.2385V55.6013Z"/>
</mask>
<path d="M61 55.6013V54.6013H60V55.6013H61ZM493 55.6013H494V54.6013H493V55.6013ZM493 56.2385V57.2385H494V56.2385H493ZM61 56.2385H60V57.2385H61V56.2385ZM61 56.6013L493 56.6013V54.6013L61 54.6013V56.6013ZM492 55.6013V56.2385H494V55.6013H492ZM493 55.2385L61 55.2385V57.2385L493 57.2385V55.2385ZM62 56.2385V55.6013H60V56.2385H62Z" fill="#E4E8EB" mask="url(#path-24-inside-4_401_6600)"/>
<mask id="path-26-inside-5_401_6600" fill="white">
<path fill-rule="evenodd" clip-rule="evenodd" d="M61 11L493 11V11.6372L61 11.6372V11Z"/>
</mask>
<path d="M61 11V10H60V11H61ZM493 11H494V10H493V11ZM493 11.6372V12.6372H494V11.6372H493ZM61 11.6372H60V12.6372H61V11.6372ZM61 12L493 12V10L61 10V12ZM492 11V11.6372H494V11H492ZM493 10.6372L61 10.6372V12.6372L493 12.6372V10.6372ZM62 11.6372V11H60V11.6372H62Z" fill="#E4E8EB" mask="url(#path-26-inside-5_401_6600)"/>
<path d="M61 125C61 122.239 63.2386 120 66 120C68.7614 120 71 122.239 71 125L71 190H61L61 125Z" fill="#F6A200"/>
<path d="M289 16C289 13.2386 291.239 11 294 11C296.761 11 299 13.2386 299 16V190H289V16Z" fill="#005B88"/>
<path d="M99 16C99 13.2386 101.239 11 104 11C106.761 11 109 13.2386 109 16L109 190H99L99 16Z" fill="#005B88"/>
<path d="M327 63C327 60.2386 329.239 58 332 58C334.761 58 337 60.2386 337 63V190H327V63Z" fill="#005B88"/>
<path d="M137 63C137 60.2386 139.239 58 142 58C144.761 58 147 60.2386 147 63L147 190H137L137 63Z" fill="#005B88"/>
<path d="M365 91C365 88.2386 367.239 86 370 86C372.761 86 375 88.2386 375 91V190H365V91Z" fill="#FFCD3C"/>
<path d="M175 91C175 88.2386 177.239 86 180 86C182.761 86 185 88.2386 185 91V190H175V91Z" fill="#FFCD3C"/>
<path d="M403 48C403 45.2386 405.239 43 408 43C410.761 43 413 45.2386 413 48V190H403V48Z" fill="#005B88"/>
<path d="M213 125C213 122.239 215.239 120 218 120C220.761 120 223 122.239 223 125V190H213V125Z" fill="#F6A200"/>
<path d="M441 150C441 147.239 443.239 145 446 145C448.761 145 451 147.239 451 150V190H441V150Z" fill="#F6A200"/>
<path d="M251 52C251 49.2386 253.239 47 256 47C258.761 47 261 49.2386 261 52V190H251L251 52Z" fill="#FFCD3C"/>
<path d="M479 23C479 20.2386 481.239 18 484 18C486.761 18 489 20.2386 489 23V190H479V23Z" fill="#005B88"/>
</svg>
