<svg width="499" height="240" viewBox="0 0 499 240" fill="none" xmlns="http://www.w3.org/2000/svg">
<path d="M120.896 56.8848C122.98 63.138 125.065 54.8004 120.896 56.8848V56.8848ZM116.727 56.8848C118.811 56.8848 118.811 56.8848 116.727 56.8848C114.643 56.8848 118.811 56.8848 116.727 56.8848ZM125.065 31.8719C125.065 31.8719 127.149 31.8719 127.149 29.7875C127.149 29.7875 122.98 29.7875 120.896 29.7875C120.896 31.8719 122.98 31.8719 125.065 31.8719ZM343.928 144.43C343.928 146.514 343.928 150.683 346.012 148.599C346.012 146.514 343.928 144.43 343.928 144.43ZM433.557 217.384C433.557 219.469 435.642 221.553 437.726 221.553C437.726 221.553 437.726 221.553 439.81 221.553C439.81 219.469 439.81 219.469 439.81 219.469C437.726 217.384 433.557 217.384 433.557 217.384ZM431.473 215.3C433.557 215.3 433.557 215.3 431.473 215.3V215.3ZM466.908 225.722C468.992 225.722 468.992 221.553 473.161 221.553C471.077 219.469 477.33 219.469 473.161 217.384C471.077 215.3 471.077 219.469 468.992 219.469C466.908 221.553 464.823 221.553 464.823 223.638C462.739 225.722 464.823 227.806 466.908 225.722ZM475.245 211.131V213.216H473.161C473.161 213.216 473.161 215.3 473.161 213.216L475.245 215.3C475.245 215.3 475.245 213.216 477.33 213.216C479.414 211.131 481.499 209.047 477.33 209.047C477.33 211.131 475.245 209.047 475.245 211.131C475.245 211.131 475.245 209.047 475.245 206.962C471.077 204.878 475.245 211.131 475.245 211.131ZM460.655 186.118C462.739 188.203 462.739 188.203 464.823 190.287C464.823 188.203 460.655 186.118 460.655 186.118ZM412.713 171.527C410.629 173.612 414.798 173.612 412.713 171.527C414.798 173.612 414.798 173.612 412.713 171.527C414.798 173.612 412.713 173.612 412.713 171.527ZM429.388 173.612C427.304 175.696 429.388 181.949 425.22 181.949L421.051 179.865C421.051 177.781 421.051 177.781 423.135 175.696C421.051 175.696 418.966 173.612 416.882 173.612C416.882 173.612 416.882 173.612 418.966 175.696C418.966 175.696 416.882 177.781 414.798 177.781C412.713 179.865 416.882 179.865 412.713 179.865C410.629 179.865 410.629 177.781 408.544 179.865C406.46 179.865 406.46 181.949 404.375 181.949V184.034C404.375 184.034 404.375 184.034 402.291 184.034C400.207 184.034 400.207 188.203 398.122 188.203C396.038 188.203 393.953 188.203 391.869 190.287C391.869 190.287 389.785 192.371 389.785 190.287C389.785 192.371 389.785 194.456 389.785 196.54C387.7 194.456 389.785 200.709 389.785 200.709C391.869 204.878 391.869 206.962 389.785 209.047C391.869 209.047 391.869 211.131 393.953 211.131C396.038 211.131 396.038 209.047 398.122 209.047C400.207 209.047 400.207 209.047 402.291 209.047C402.291 209.047 402.291 206.962 404.375 206.962L406.46 204.878H408.544C410.629 204.878 414.797 202.793 416.882 204.878C418.966 204.878 421.051 213.215 423.135 206.962C425.22 206.962 423.135 209.047 423.135 209.047C425.22 209.047 425.22 209.047 423.135 211.131C425.22 211.131 425.22 213.215 427.304 215.3C427.304 215.3 429.388 215.3 431.473 215.3C433.557 215.3 431.473 213.216 433.557 213.216C433.557 213.216 433.557 215.3 435.642 215.3C437.726 215.3 441.895 213.216 441.895 211.131C441.895 209.047 441.895 206.962 443.979 204.878C446.064 200.709 446.064 196.54 443.979 192.371C443.979 192.371 443.979 190.287 441.895 190.287V188.203H439.81V186.118L437.726 184.034C435.642 181.949 435.642 179.865 435.642 177.781C435.642 177.781 433.557 177.781 433.557 175.696C431.473 175.696 431.473 173.612 429.388 173.612ZM454.401 169.443C454.401 171.527 454.401 171.527 454.401 169.443C454.401 169.443 454.401 171.527 454.401 169.443ZM446.064 165.274C446.064 165.274 448.148 167.358 446.064 165.274C448.148 165.274 448.148 165.274 446.064 165.274ZM437.726 165.274C437.726 167.358 443.979 165.274 441.895 163.19C443.979 163.19 437.726 165.274 437.726 165.274ZM414.798 167.358C414.798 169.443 416.882 169.443 414.798 167.358V167.358ZM406.46 167.358C406.46 167.358 408.544 167.358 406.46 167.358C408.544 167.358 408.544 167.358 406.46 167.358ZM418.966 165.274C418.966 167.358 421.051 163.19 418.966 165.274V165.274ZM416.882 163.19C418.966 163.19 418.966 163.19 421.051 165.274C423.135 165.274 423.135 165.274 423.135 167.358C423.135 169.443 423.135 169.443 423.135 169.443C423.135 169.443 421.051 169.443 423.135 171.527H425.22C427.304 171.527 427.304 173.612 429.388 173.612C431.473 173.612 431.473 171.527 433.557 171.527L435.642 173.612C437.726 173.612 435.642 173.612 437.726 175.696C441.895 175.696 439.81 175.696 437.726 173.612H435.642V171.527C435.642 171.527 433.557 169.443 435.642 169.443C435.642 169.443 433.557 167.358 431.473 165.274C429.388 163.19 427.304 163.19 425.22 163.19C421.051 161.105 421.051 163.19 418.966 163.19C421.051 161.105 418.966 161.105 416.882 163.19C416.882 163.19 416.882 161.105 416.882 163.19ZM406.46 159.021C404.375 159.021 406.46 159.021 406.46 159.021V159.021ZM414.798 159.021C412.713 159.021 414.798 159.021 414.798 159.021C414.798 161.105 416.882 161.105 418.966 161.105C416.882 156.936 416.882 159.021 414.798 159.021ZM414.798 156.936C410.629 156.936 416.882 154.852 414.798 156.936V156.936ZM412.713 159.021C412.713 159.021 412.713 161.105 412.713 159.021V159.021ZM410.629 161.105C410.629 161.105 412.713 161.105 414.798 161.105C412.713 161.105 410.629 161.105 410.629 161.105ZM408.544 161.105C408.544 161.105 408.544 163.19 408.544 161.105V161.105ZM410.629 152.768C408.544 154.852 408.544 154.852 408.544 156.936C408.544 159.021 408.544 156.936 410.629 156.936C410.629 154.852 410.629 154.852 410.629 152.768C410.629 154.852 410.629 154.852 410.629 152.768ZM396.038 161.105C396.038 161.105 398.122 163.19 396.038 161.105C398.122 163.19 398.122 165.274 398.122 165.274C398.122 165.274 398.122 163.19 398.122 161.105L400.207 165.274C402.291 165.274 400.207 161.105 398.122 161.105C408.544 159.021 396.038 154.852 396.038 161.105ZM406.46 154.852C404.375 154.852 398.122 154.852 400.207 156.936C402.291 156.936 402.291 156.936 404.375 154.852C404.375 156.936 404.375 156.936 406.46 154.852C406.46 154.852 404.375 156.936 406.46 154.852C406.46 154.852 404.375 154.852 406.46 154.852ZM404.375 171.527C404.375 173.612 408.544 169.443 410.629 169.443C406.46 167.359 404.375 169.443 404.375 171.527ZM402.291 171.527C402.291 171.527 404.375 171.527 402.291 171.527C404.375 171.527 404.375 171.527 402.291 171.527C404.375 171.527 402.291 171.527 402.291 171.527ZM398.122 169.443C400.207 171.527 404.375 169.443 404.375 169.443C404.375 167.359 400.207 167.359 398.122 169.443ZM398.122 169.443C396.038 169.443 400.207 171.527 398.122 169.443C398.122 169.443 400.207 171.527 398.122 169.443ZM393.953 169.443C391.869 169.443 396.038 169.443 398.122 169.443C396.038 169.443 396.038 167.359 393.953 169.443ZM379.363 165.274C381.447 167.358 383.531 167.358 385.616 167.358C387.7 167.358 389.785 169.443 393.953 169.443C393.953 167.359 391.869 167.358 389.785 167.358C389.785 167.358 389.785 167.358 391.869 167.358C387.7 165.274 383.531 165.274 379.363 165.274ZM375.194 163.19C375.194 165.274 375.194 165.274 375.194 163.19V163.19ZM385.616 154.852C383.531 156.936 385.616 159.021 385.616 161.105C387.7 163.19 387.7 163.19 391.869 163.19C393.953 163.19 393.953 165.274 396.038 161.105V159.021L398.122 156.936C396.038 154.852 396.038 154.852 396.038 152.768C398.122 152.768 396.038 152.768 398.122 150.683L393.953 148.599C391.869 148.599 391.869 150.683 391.869 150.683C389.785 152.768 385.616 154.852 385.616 154.852ZM368.94 159.021L371.025 163.19C371.025 161.105 368.94 159.021 368.94 159.021ZM366.856 154.852C366.856 156.936 368.94 156.936 366.856 154.852C368.94 154.852 368.94 156.936 366.856 154.852ZM366.856 152.768C364.772 152.768 366.856 152.768 366.856 152.768C364.772 152.768 366.856 154.852 366.856 152.768ZM366.856 150.683C364.772 148.599 366.856 150.683 366.856 150.683C364.772 150.683 366.856 152.768 368.94 154.852C371.025 156.936 371.025 159.021 373.109 161.105C373.109 163.19 377.278 165.274 377.278 165.274C379.363 165.274 379.363 163.19 381.447 161.105C381.447 159.021 379.363 159.021 377.278 159.021C377.278 156.936 368.94 150.683 366.856 150.683ZM404.375 144.43C402.291 144.43 402.291 146.514 402.291 146.514C404.375 144.43 404.375 146.514 406.46 148.599C406.46 146.514 406.46 146.514 406.46 146.514V142.346C406.46 142.346 406.46 146.514 404.375 144.43ZM400.207 138.177L402.291 142.346C402.291 144.43 404.375 144.43 402.291 142.346C404.375 140.261 400.207 138.177 400.207 138.177ZM402.291 138.177C404.375 140.261 404.375 142.346 406.46 142.346C406.46 140.261 404.375 140.261 404.375 138.177H402.291ZM398.122 140.261C396.038 142.346 393.953 144.43 393.953 146.514C398.122 144.43 398.122 142.346 398.122 140.261ZM400.207 131.924C398.122 134.008 398.122 138.177 400.207 138.177C400.207 136.092 404.375 131.924 400.207 131.924ZM402.291 121.501C402.291 121.501 400.207 123.586 400.207 125.67C400.207 123.586 402.291 123.586 402.291 121.501ZM437.726 90.2353C435.642 90.2353 435.642 92.3197 433.557 92.3197C431.473 92.3197 431.473 92.3197 427.304 90.2353C427.304 90.2353 427.304 96.4885 425.22 94.4041C425.22 94.4041 423.135 98.573 425.22 96.4886C423.135 96.4886 423.135 100.657 421.051 102.742C421.051 102.742 421.051 102.742 421.051 100.657L418.966 102.742L416.882 104.826C414.797 102.742 408.544 106.911 408.544 108.995H410.629C410.629 111.079 408.544 111.079 410.629 111.079C410.629 108.995 412.713 106.911 410.629 106.911C410.629 104.826 414.797 104.826 416.882 104.826C414.797 106.911 412.713 104.826 412.713 106.911C414.798 106.911 414.797 104.826 416.882 104.826C416.882 106.911 418.966 104.826 418.966 104.826C425.22 104.826 423.135 104.826 425.22 98.573C425.22 96.4886 427.304 94.4042 425.22 92.3197C427.304 92.3197 429.388 94.4042 429.388 92.3197C433.557 94.4042 437.726 90.2353 437.726 90.2353ZM441.895 88.1509C439.81 88.1509 439.81 88.1509 441.895 88.1509C439.81 90.2353 441.895 88.1509 441.895 88.1509ZM448.148 79.8133C448.148 81.8977 448.148 81.8977 448.148 79.8133C448.148 79.8133 448.148 81.8977 448.148 79.8133ZM464.823 73.56C464.823 71.4756 464.823 73.56 464.823 73.56C464.823 71.4756 464.823 73.56 464.823 73.56C466.908 73.56 464.823 73.56 464.823 73.56ZM462.739 73.56C462.739 71.4756 462.739 71.4756 462.739 73.56C462.739 71.4756 462.739 71.4756 462.739 73.56C464.823 73.56 462.739 73.56 462.739 73.56ZM460.655 65.2224C458.57 65.2224 460.655 63.138 460.655 65.2224C458.57 65.2224 460.655 65.2224 460.655 65.2224ZM494.005 54.8004C496.089 54.8004 496.09 54.8004 498.174 54.8004C496.09 52.716 494.005 54.8004 494.005 54.8004ZM481.499 38.1251C483.583 38.1251 485.667 38.1251 485.667 38.1251L483.583 36.0407C481.499 36.0407 479.414 36.0407 481.499 38.1251C481.499 38.1251 479.414 38.1251 481.499 38.1251ZM435.642 25.6186C437.726 25.6186 441.895 27.703 441.895 25.6186C439.81 25.6186 435.642 25.6186 435.642 25.6186ZM427.304 29.7875C429.388 29.7875 431.473 29.7875 431.473 29.7875H427.304ZM427.304 29.7875C427.304 27.703 429.388 29.7875 427.304 29.7875V29.7875ZM423.135 25.6186C425.22 27.703 433.557 27.703 433.557 23.5342C431.473 23.5342 429.388 21.4498 429.388 25.6186C431.473 21.4498 427.304 23.5342 427.304 23.5342C425.22 23.5342 423.135 23.5342 423.135 25.6186ZM421.051 25.6186C421.051 23.5342 421.051 25.6186 421.051 25.6186C418.966 23.5342 421.051 25.6186 421.051 25.6186ZM421.051 27.703C421.051 29.7874 421.051 29.7874 421.051 27.703C421.051 27.703 421.051 29.7874 421.051 27.703ZM381.447 17.281H379.363C379.363 17.281 381.447 19.3654 381.447 17.281ZM364.772 21.4498C364.772 21.4498 366.856 21.4498 364.772 21.4498C364.772 21.4498 366.856 19.3654 364.772 21.4498ZM371.025 19.3654L377.278 17.281C379.363 15.1966 373.109 15.1966 373.109 15.1966C373.109 13.1122 371.025 19.3654 371.025 19.3654ZM366.856 11.0278C362.687 11.0278 362.687 15.1966 366.856 15.1966C371.025 15.1966 371.025 15.1966 371.025 13.1122C371.025 11.0278 371.025 13.1122 366.856 11.0278C368.94 11.0278 368.94 11.0278 366.856 11.0278ZM362.687 11.0278C364.772 13.1122 366.856 8.94335 368.94 8.94335C366.856 6.85894 362.687 6.85894 360.603 11.0278H362.687ZM362.687 13.1122H360.603C358.518 15.1966 362.687 13.1122 362.687 13.1122ZM358.518 6.85894C356.434 6.85894 358.518 8.94335 358.518 6.85894C358.518 8.94335 360.603 6.85894 358.518 6.85894ZM302.239 42.2939C300.155 42.2939 298.071 40.2095 300.155 44.3783C300.155 42.2939 302.239 42.2939 302.239 42.2939ZM308.493 31.8719C306.408 31.8719 304.324 36.0407 304.324 36.0407H306.408C308.493 36.0407 306.408 38.1251 308.493 38.1251C310.577 38.1251 312.661 38.1251 312.661 38.1251C312.661 36.0407 310.577 36.0407 310.577 33.9563C310.577 31.8719 312.661 29.7875 312.661 29.7875C314.746 27.703 318.915 25.6186 323.083 23.5342C325.168 23.5342 329.337 21.4498 329.337 21.4498C329.337 19.3654 325.168 21.4498 325.168 21.4498C323.083 21.4498 314.746 23.5342 314.746 25.6186H312.661C312.661 27.703 306.408 27.703 308.493 31.8719C308.493 29.7874 308.493 29.7874 308.493 31.8719C308.493 31.8719 308.493 29.7874 308.493 31.8719ZM329.337 31.8719C331.421 31.8719 331.421 31.8719 329.337 31.8719C327.252 31.8719 331.421 29.7874 329.337 31.8719ZM318.915 8.94335C320.999 11.0278 320.999 8.94335 323.083 8.94335C323.083 6.85894 320.999 8.94335 318.915 8.94335ZM314.746 8.94335C314.746 11.0278 316.83 11.0278 316.83 11.0278C316.83 8.94335 316.83 6.85894 314.746 8.94335ZM314.746 11.0278C314.746 11.0278 314.746 13.1122 314.746 11.0278V11.0278ZM310.577 11.0278C310.577 11.0278 310.577 13.1122 310.577 11.0278C312.661 13.1122 314.746 11.0278 314.746 11.0278C312.661 8.94335 310.577 11.0278 310.577 11.0278ZM306.408 11.0278C308.493 8.94335 310.577 8.94335 312.661 8.94335C312.661 6.85894 314.746 8.94335 314.746 6.85894H312.661V4.77453H310.577H308.493C308.493 8.94335 308.493 8.94335 306.408 11.0278C306.408 11.0278 306.408 8.94335 306.408 11.0278ZM300.155 8.94335C298.071 8.94335 298.071 8.94335 295.986 8.94335C295.986 11.0278 298.071 8.94335 300.155 8.94335C295.986 11.0278 300.155 13.1122 302.239 11.0278C304.324 6.85894 302.239 8.94335 300.155 8.94335ZM258.467 11.0278C258.467 13.1122 260.551 11.0278 262.636 11.0278C262.636 13.1122 260.551 13.1122 258.467 11.0278C260.551 15.1966 268.889 13.1122 270.973 11.0278C268.889 8.94335 266.804 11.0278 264.72 11.0278C264.72 11.0278 264.72 11.0278 264.72 8.94335C262.636 8.94335 262.636 8.94335 262.636 11.0278C262.636 11.0278 258.467 8.94335 258.467 11.0278ZM256.382 17.281C256.382 17.281 252.214 17.281 252.214 19.3654L256.382 17.281C256.382 19.3654 252.214 19.3654 252.214 19.3654C252.214 19.3654 254.298 21.4498 256.382 21.4498C258.467 19.3654 260.551 17.281 260.551 15.1966H262.636C262.636 17.281 262.636 15.1966 262.636 17.281V19.3654C264.72 17.281 264.72 19.3654 264.72 19.3654C264.72 19.3654 266.804 19.3654 266.804 17.281C266.804 15.1966 264.72 17.281 264.72 15.1966L258.467 11.0278C258.467 11.0278 258.467 11.0278 256.382 11.0278C256.382 11.0278 256.382 11.0278 256.382 8.94335C254.298 8.94335 254.298 8.94335 252.214 8.94335V11.0278V8.94335H250.129C250.129 8.94335 250.129 8.94335 250.129 6.85894C248.045 6.85894 243.876 8.94335 248.045 8.94335V11.0278C248.045 11.0278 248.045 8.94335 245.96 8.94335C245.96 8.94335 248.045 13.1122 248.045 8.94335C248.045 8.94335 248.045 11.0278 250.129 8.94335C250.129 8.94335 250.129 6.85894 252.214 6.85894C252.214 15.1966 256.382 15.1966 256.382 17.281ZM435.642 63.138C439.81 63.138 439.81 61.0536 441.895 63.138C443.979 63.138 441.895 65.2224 443.979 65.2224C446.064 65.2224 446.064 63.138 448.148 65.2224C448.148 65.2224 448.148 65.2224 450.232 65.2224C450.232 63.138 448.148 65.2224 450.232 63.138L452.317 61.0536C454.401 58.9692 456.486 61.0536 456.486 63.138C460.655 63.138 460.655 58.9692 462.739 58.9692C460.655 61.0536 460.655 63.138 458.57 65.2224C454.401 65.2224 450.232 65.2224 448.148 69.3912C448.148 71.4756 448.148 75.6445 448.148 77.7289C448.148 79.8133 448.148 81.8977 450.232 79.8133C452.317 77.7289 452.317 73.56 456.486 73.56C456.486 71.4756 456.486 69.3912 458.57 71.4756C458.57 69.3912 458.57 69.3912 458.57 67.3068C458.57 67.3068 458.57 67.3068 456.486 67.3068L458.57 63.138C460.655 61.0536 460.655 63.138 460.655 63.138C460.655 63.138 460.655 63.138 462.739 63.138C462.739 63.138 462.739 61.0536 464.823 61.0536H466.908C468.992 61.0536 466.908 63.138 468.992 63.138C468.992 58.9692 477.33 56.8848 479.414 56.8848C481.499 56.8848 481.499 58.9692 481.499 54.8004C481.499 52.716 479.414 52.716 477.33 52.716H481.499C483.583 52.716 483.583 50.6315 483.583 50.6315C485.667 50.6315 485.667 50.6315 485.667 52.716H487.752C489.836 52.716 489.836 54.8004 489.836 54.8004C491.921 54.8004 489.836 54.8004 491.921 54.8004C494.005 54.8004 491.921 52.716 491.921 52.716C491.921 52.716 496.089 54.8004 494.005 50.6315C494.005 50.6315 489.836 48.5471 487.752 48.5471C487.752 48.5471 489.836 50.6315 487.752 48.5471V46.4627H485.667L483.583 44.3783C481.499 44.3783 481.499 42.2939 479.414 42.2939C475.245 40.2095 468.992 40.2095 466.908 42.2939C460.655 44.3783 471.077 44.3783 466.908 42.2939C464.823 40.2095 464.823 42.2939 462.739 42.2939C460.655 42.2939 458.57 42.2939 456.486 42.2939V44.3783C454.401 42.2939 454.401 38.1251 450.232 38.1251C448.148 38.1251 446.064 38.1251 443.979 38.1251C441.895 38.1251 441.895 36.0407 439.81 36.0407C437.726 33.9563 433.557 38.1251 433.557 36.0407C431.473 36.0407 431.473 36.0407 429.388 36.0407C427.304 36.0407 427.304 36.0407 425.22 36.0407C425.22 38.1251 427.304 38.1251 427.304 38.1251C425.22 38.1251 425.22 38.1251 423.135 38.1251C423.135 38.1251 423.135 38.1251 423.135 40.2095C421.051 40.2095 421.051 38.1251 421.051 38.1251H416.882C414.797 38.1251 414.798 40.2095 414.798 40.2095L412.713 38.1251C412.713 38.1251 412.713 36.0407 412.713 33.9563C410.629 31.8719 410.629 33.9563 408.544 33.9563C406.46 33.9563 404.375 31.8719 404.375 36.0407C402.291 36.0407 400.207 36.0407 398.122 36.0407L396.038 33.9563C393.953 33.9563 391.869 33.9563 389.785 33.9563C389.785 33.9563 389.785 33.9563 389.785 31.8719H387.7C387.7 31.8719 391.869 29.7875 389.785 29.7875C387.7 29.7875 387.7 31.8719 385.616 31.8719C385.616 33.9563 383.531 33.9563 381.447 33.9563C383.531 33.9563 391.869 29.7874 391.869 27.703C391.869 23.5342 383.531 23.5342 383.531 23.5342C383.531 23.5342 383.531 23.5342 383.531 21.4498C381.447 21.4498 381.447 21.4498 379.363 21.4498L381.447 19.3654C377.278 19.3654 377.278 21.4498 375.194 21.4498C373.109 21.4498 373.109 23.5342 368.94 23.5342C368.94 23.5342 366.856 23.5342 364.772 23.5342C364.772 23.5342 362.687 25.6186 360.603 25.6186C358.518 25.6186 358.518 25.6186 356.434 25.6186C356.434 25.6186 354.35 27.703 352.265 27.703C350.181 29.7874 354.35 27.703 352.265 29.7875C350.181 31.8719 346.012 29.7874 343.928 31.8719C343.928 33.9563 348.096 36.0407 346.012 36.0407L343.928 33.9563C341.843 33.9563 341.843 33.9563 339.759 33.9563C339.759 33.9563 341.843 33.9563 341.843 36.0407C335.59 36.0407 341.843 36.0407 341.843 38.1251C341.843 36.0407 337.674 38.1251 337.674 36.0407C337.674 36.0407 337.674 33.9563 337.674 31.8719C337.674 33.9563 335.59 33.9563 335.59 36.0407V40.2095C337.674 42.2939 337.674 40.2095 337.674 40.2095C339.759 40.2095 339.759 42.2939 339.759 44.3783H341.843C339.759 46.4627 339.759 38.1251 335.59 42.2939V44.3783L333.505 46.4627C331.421 48.5471 331.421 46.4627 329.337 46.4627C329.337 46.4627 331.421 46.4627 333.505 44.3783C335.59 44.3783 335.59 42.2939 335.59 40.2095C333.506 40.2095 333.505 33.9563 333.505 31.8719C333.505 29.7874 329.337 29.7875 327.252 29.7875L325.168 33.9563C325.168 31.8719 325.168 38.1251 325.168 36.0407C325.168 36.0407 327.252 36.0407 327.252 38.1251C327.252 38.1251 329.337 38.1251 329.337 40.2095C329.337 42.2939 327.252 40.2095 327.252 40.2095C325.168 40.2095 323.083 38.1251 320.999 38.1251C318.915 38.1251 316.83 36.0407 314.746 36.0407C312.661 36.0407 318.915 40.2095 314.746 42.2939C314.746 38.1251 306.408 44.3783 308.493 40.2095C306.408 42.2939 302.239 44.3783 300.155 44.3783C300.155 44.3783 293.902 48.5471 295.986 44.3783C300.155 44.3783 295.986 42.2939 293.902 42.2939C293.902 42.2939 295.986 48.5471 293.902 48.5471H291.817L289.733 50.6315C289.733 50.6315 291.817 52.716 289.733 52.716C287.648 52.716 285.564 52.716 285.564 50.6315C283.48 52.716 287.649 52.716 287.649 52.716H285.564C283.48 50.6315 283.48 52.716 283.48 50.6315C283.48 48.5471 281.395 46.4627 279.311 46.4627C281.395 46.4627 293.902 52.716 291.817 46.4627C291.817 44.3783 287.649 44.3783 287.649 42.2939C285.564 42.2939 283.48 42.2939 281.395 42.2939C279.311 40.2095 275.142 40.2095 275.142 40.2095C277.226 40.2095 275.142 40.2095 275.142 38.1251C273.058 36.0407 273.058 38.1251 273.058 38.1251V36.0407H270.973V38.1251C270.973 38.1251 270.973 38.1251 268.889 36.0407C268.889 38.1251 268.889 38.1251 268.889 36.0407C268.889 36.0407 264.72 38.1251 266.804 36.0407C264.72 36.0407 264.72 38.1251 264.72 38.1251H262.636V40.2095L260.551 38.1251C260.551 40.2095 260.551 42.2939 258.467 40.2095C256.382 42.2939 258.467 40.2095 258.467 42.2939C256.382 42.2939 256.382 42.2939 256.382 40.2095C256.382 40.2095 256.382 40.2095 254.298 42.2939C252.214 42.2939 252.214 42.2939 252.214 44.3783C252.214 44.3783 254.298 42.2939 256.382 44.3783C254.298 44.3783 250.129 48.5471 250.129 50.6315C250.129 50.6315 248.045 50.6315 248.045 52.716C248.045 52.716 248.045 52.716 250.129 52.716C250.129 54.8004 245.96 54.8004 245.96 54.8004C245.96 54.8004 245.96 54.8004 245.96 56.8848C241.792 56.8848 241.792 58.9692 239.707 63.138C243.876 63.138 237.623 65.2224 241.791 65.2224C241.791 65.2224 241.791 65.2224 241.791 67.3068C245.96 67.3068 245.96 67.3068 248.045 65.2224C250.129 65.2224 250.129 71.4756 252.214 71.4756V73.56C254.298 73.56 254.298 73.56 254.298 73.56C256.382 73.56 256.382 71.4756 258.467 71.4756C258.467 71.4756 258.467 71.4756 256.382 71.4756C256.382 71.4756 258.467 69.3912 258.467 67.3068C258.467 65.2224 260.551 65.2224 258.467 65.2224C258.467 63.138 256.382 61.0536 258.467 58.9692C258.467 56.8848 260.551 56.8848 262.636 56.8848C262.636 56.8848 262.636 54.8004 264.72 52.716C266.804 52.716 268.889 52.716 268.889 54.8004C268.889 56.8848 260.551 58.9692 264.72 63.138C266.804 67.3068 273.058 63.138 277.226 65.2224C275.142 67.3068 273.058 67.3068 270.973 67.3068L266.804 69.3912H264.72C264.72 71.4756 266.804 69.3912 266.804 69.3912C266.804 69.3912 268.889 69.3912 268.889 71.4756C266.804 75.6445 266.804 71.4756 264.72 71.4756C262.636 71.4756 262.636 75.6445 262.636 77.7289C260.551 77.7289 258.467 77.7289 260.551 79.8133C258.467 77.7289 256.382 79.8133 254.298 79.8133C254.298 79.8133 250.129 77.7289 250.129 79.8133H248.045C248.045 77.7289 252.214 81.8977 252.214 75.6445H250.129V73.56C250.129 71.4756 250.129 71.4756 248.045 73.56C245.96 75.6445 248.045 75.6445 248.045 77.7289C248.045 81.8977 248.045 79.8133 245.96 79.8133C243.876 79.8133 241.791 81.8977 241.791 81.8977C243.876 83.9821 239.707 83.9821 237.623 86.0665L235.538 88.1509C233.454 88.1509 233.454 88.1509 233.454 88.1509C235.538 92.3197 231.369 90.2353 229.285 90.2353C227.201 92.3197 229.285 90.2353 229.285 92.3197L231.369 94.4041C235.538 102.742 225.116 98.573 220.947 98.573C220.947 100.657 220.947 104.826 220.947 106.911C220.947 108.995 220.947 106.911 223.032 108.995C225.116 108.995 225.116 108.995 227.201 111.079C229.285 111.079 231.369 108.995 233.454 106.911C233.454 106.911 233.454 106.911 235.538 106.911V104.826V102.742L239.707 100.657V98.573C239.707 98.573 241.792 98.573 243.876 98.573C243.876 98.573 245.96 96.4886 248.045 96.4886C250.129 96.4886 250.129 98.573 252.214 100.657C256.382 102.742 262.636 106.911 252.214 106.911C254.298 111.079 258.467 106.911 258.467 104.826C258.467 104.826 258.467 104.826 256.382 104.826H258.467C258.467 102.742 254.298 100.657 252.214 100.657C252.214 98.573 250.129 98.573 250.129 98.573C250.129 94.4042 254.298 98.573 256.382 100.657C258.467 102.742 260.551 102.742 260.551 104.826L262.636 108.995C262.636 108.995 262.636 108.995 260.551 108.995C260.551 111.079 262.636 111.079 262.636 108.995C262.636 113.164 266.804 108.995 268.889 108.995C268.889 108.995 268.889 108.995 266.804 108.995C266.804 108.995 264.72 106.911 264.72 104.826H266.804C270.973 100.657 270.973 113.164 273.058 113.164V111.079C275.142 113.164 275.142 111.079 277.226 113.164H279.311C279.311 113.164 281.395 115.248 283.48 113.164C283.48 113.164 283.48 113.164 283.48 111.079C287.648 111.079 287.648 113.164 285.564 115.248C285.564 117.333 283.48 117.333 283.48 119.417C281.395 119.417 281.395 119.417 279.311 119.417C281.395 119.417 281.395 125.67 283.48 123.586C285.564 127.755 287.648 131.924 289.733 134.008C291.817 136.092 293.902 138.177 293.902 140.261C295.986 144.43 293.902 146.514 298.071 146.514C300.155 146.514 302.239 144.43 304.324 144.43C306.408 144.43 308.493 142.346 308.493 142.346C310.577 142.346 312.661 142.346 312.661 140.261L314.746 138.177C314.746 136.092 314.746 136.092 316.83 136.092L314.746 134.008C312.661 131.924 314.746 131.924 312.661 134.008C312.661 134.008 312.661 131.924 310.577 129.839L308.493 131.924C306.408 131.924 300.155 131.924 306.408 129.839L302.239 127.755C302.239 127.755 300.155 125.67 300.155 123.586C300.155 119.417 302.239 121.501 302.239 123.586C304.324 125.67 306.408 125.67 308.493 127.755H310.577C310.577 127.755 310.577 129.839 312.661 129.839C314.746 129.839 316.83 129.839 318.915 129.839C323.083 129.839 323.083 129.839 325.168 131.924C327.252 131.924 327.252 134.008 329.337 134.008C325.168 134.008 329.337 136.092 331.421 136.092C333.506 136.092 331.421 134.008 333.505 136.092C333.505 138.177 333.505 138.177 333.505 140.261C333.505 142.346 335.59 144.43 335.59 146.514C335.59 148.599 337.674 152.768 337.674 152.768C339.759 152.768 339.759 152.768 341.843 150.683C341.843 148.599 341.843 148.599 341.843 146.514V144.43C341.843 142.346 341.843 144.43 343.928 142.346C346.012 140.261 350.181 136.092 352.265 134.008L358.518 131.924C358.518 131.924 360.603 136.092 360.603 138.177C362.687 138.177 360.603 140.261 362.687 142.346C364.772 142.346 364.772 140.261 364.772 142.346C366.856 142.346 368.94 148.599 368.94 150.683C368.94 152.768 366.856 152.768 368.94 154.852C368.94 156.936 371.025 156.936 371.025 159.021C371.025 161.105 373.109 167.358 377.278 165.274C375.194 163.19 375.194 159.021 375.194 159.021C373.109 156.936 371.025 156.936 371.025 154.852V150.683C373.109 148.599 371.025 150.683 373.109 150.683C375.194 150.683 375.194 150.683 375.194 152.768H377.278V154.852C379.363 152.768 381.447 152.768 381.447 150.683C383.531 148.599 381.447 144.43 381.447 142.346C379.363 138.177 377.278 134.008 383.531 134.008C383.531 136.092 381.447 138.177 381.447 138.177C383.531 140.261 383.531 134.008 383.531 134.008C385.616 134.008 387.7 131.924 387.7 131.924C389.785 131.924 389.785 131.924 391.869 129.839C393.953 127.755 398.122 125.67 398.122 121.501C398.122 119.417 398.122 121.501 398.122 119.417C398.122 119.417 398.122 119.417 398.122 117.333C398.122 115.248 396.038 113.164 396.038 113.164C396.038 111.079 398.122 111.079 400.207 111.079C400.207 108.995 400.207 111.079 398.122 108.995C398.122 108.995 398.122 111.079 396.038 111.079C396.038 108.995 391.869 111.079 393.953 106.911L396.038 104.826C400.207 102.742 398.122 102.742 396.038 106.911L400.207 104.826C402.291 104.826 400.207 106.911 400.207 108.995C404.375 106.911 402.291 113.164 402.291 115.248C404.375 115.248 408.544 113.164 406.46 111.079C406.46 108.995 404.375 108.995 404.375 104.826L406.46 104.826V102.742L408.544 100.657C408.544 100.657 410.629 100.657 412.713 100.657C414.798 100.657 414.798 100.657 414.798 98.573C416.882 96.4886 418.966 94.4042 418.966 92.3197C421.051 90.2353 418.966 88.1509 421.051 86.0665C423.135 79.8133 423.135 92.3197 423.135 94.4041C423.135 94.4041 423.135 94.4042 425.22 92.3197C425.22 92.3197 425.22 94.4041 427.304 94.4041C427.304 92.3197 423.135 90.2353 427.304 90.2353C427.304 90.2353 425.22 81.8977 425.22 79.8133C425.22 81.8977 425.22 81.8977 425.22 83.9821C423.135 83.9821 423.135 81.8977 421.051 79.8133C421.051 81.8977 418.966 81.8977 418.966 79.8133C418.966 79.8133 418.966 79.8133 418.966 81.8977C416.882 81.8977 418.966 81.8977 418.966 79.8133C416.882 81.8977 418.966 79.8133 418.966 77.7289C421.051 75.6445 421.051 75.6445 423.135 73.56C429.388 63.138 431.473 63.138 435.642 63.138ZM223.032 65.2224C223.032 67.3068 225.116 65.2224 223.032 65.2224V65.2224ZM225.116 81.8977C227.201 81.8977 227.201 81.8977 229.285 79.8133C231.369 79.8133 231.369 79.8133 233.454 79.8133C235.538 79.8133 235.538 77.7289 235.538 75.6445C235.538 73.5601 233.454 75.6445 233.454 75.6445V73.56L231.369 71.4756C229.285 69.3912 229.285 69.3912 229.285 69.3912C229.285 69.3912 233.454 65.2224 227.201 67.3068C227.201 67.3068 227.201 65.2224 229.285 65.2224C227.201 63.138 227.201 65.2224 227.201 67.3068C227.201 67.3068 223.032 69.3912 227.201 69.3912C227.201 69.3912 225.116 71.4756 227.201 71.4756H229.285C229.285 73.5601 231.369 73.5601 231.369 75.6445C233.454 77.7289 229.285 75.6445 229.285 77.7289C229.285 77.7289 229.285 77.7289 231.369 77.7289L229.285 79.8133C229.285 79.8133 231.369 79.8133 233.454 79.8133C229.285 79.8133 225.116 81.8977 225.116 81.8977ZM225.116 73.56C229.285 73.56 220.947 69.3912 220.947 73.56C218.863 73.56 216.779 75.6445 218.863 75.6445C214.694 79.8133 220.947 77.7289 223.032 77.7289C225.116 75.6445 225.116 75.6445 225.116 73.56ZM302.239 184.034C302.239 181.949 304.324 175.696 300.155 173.612L298.071 177.781C295.986 179.865 295.986 177.781 293.902 179.865V184.034C293.902 186.118 293.902 186.118 291.817 188.203C291.817 190.287 291.817 194.456 295.986 194.456C298.071 194.456 298.071 192.371 298.071 190.287C298.071 188.203 300.155 186.118 302.239 184.034C302.239 184.034 300.155 186.118 302.239 184.034ZM277.226 115.248C275.142 111.079 275.142 113.164 270.973 113.164C266.804 113.164 262.636 111.079 258.467 111.079C258.467 115.248 258.467 115.248 256.382 115.248H254.298H252.214C252.214 115.248 252.214 115.248 252.214 113.164C250.129 113.164 248.045 111.079 245.96 111.079C243.876 108.995 248.045 108.995 245.96 106.911C245.96 106.911 245.96 106.911 248.045 106.911C245.96 104.826 243.876 106.911 241.791 106.911C239.707 106.911 237.623 106.911 235.538 106.911C233.454 106.911 233.454 108.995 229.285 108.995C227.201 108.995 225.116 106.911 225.116 111.079H223.032C223.032 115.248 220.947 113.164 220.947 113.164C220.947 115.248 220.947 117.333 218.863 119.417C218.863 119.417 216.779 121.501 214.694 121.501C214.694 121.501 212.61 123.586 212.61 125.67C212.61 127.755 208.441 129.839 208.441 131.924H210.525C210.525 131.924 210.525 131.924 210.525 134.008C210.525 136.092 210.525 138.177 210.525 140.261C210.525 142.346 210.525 144.43 212.61 146.514C214.694 148.599 216.779 150.683 218.863 152.768L220.947 154.852C223.032 154.852 223.032 154.852 225.116 154.852C227.201 154.852 227.201 154.852 229.285 154.852C231.369 154.852 231.369 154.852 233.454 152.768C235.538 152.768 237.623 152.768 239.707 152.768C241.792 152.768 241.792 154.852 243.876 154.852C248.045 154.852 248.045 154.852 248.045 156.936C248.045 159.021 248.045 161.105 245.96 163.19C250.129 165.274 254.298 173.612 252.214 177.781C252.214 181.949 248.045 181.949 250.129 188.203C252.214 190.287 252.214 192.371 252.214 196.54C252.214 200.709 256.382 202.793 256.382 204.878C256.382 206.962 256.382 209.047 256.382 209.047C260.551 213.215 268.889 209.047 270.973 204.878C273.058 202.793 273.058 200.709 275.142 200.709C275.142 198.625 275.142 196.54 275.142 196.54C275.142 196.54 277.226 194.456 279.311 194.456C281.395 192.371 279.311 190.287 279.311 188.203C279.311 186.118 283.48 184.034 285.564 184.034C287.648 181.949 287.649 177.781 287.649 175.696C287.649 173.612 285.564 169.443 285.564 167.358C287.648 163.19 291.817 161.105 293.902 156.936C295.986 154.852 298.071 152.768 300.155 150.683C300.155 148.599 302.239 148.599 302.239 146.514C302.239 142.346 302.239 144.43 300.155 144.43C295.986 144.43 293.902 146.514 291.817 142.346C289.733 140.261 287.648 138.177 285.564 136.092C283.48 134.008 281.395 129.839 281.395 127.755C281.395 121.501 279.311 117.333 277.226 115.248ZM131.318 225.722C129.233 225.722 129.233 225.722 131.318 225.722H129.233L131.318 227.806C127.149 227.806 131.318 231.975 129.233 234.06C129.233 234.06 129.233 234.06 131.318 234.06C131.318 234.06 131.318 234.06 133.402 234.06C133.402 234.06 135.487 238.228 137.571 238.228C139.655 240.313 143.824 238.228 145.909 238.228C145.909 238.228 141.74 236.144 141.74 234.06C141.74 231.975 139.655 227.806 141.74 227.806C141.74 225.722 145.909 223.638 143.824 223.638C143.824 221.553 139.655 223.638 141.74 219.469H143.824V217.384C143.824 217.384 145.909 213.215 145.909 215.3C145.909 213.215 143.824 215.3 143.824 211.131C147.993 213.216 147.993 211.131 147.993 209.047C150.077 209.047 154.246 209.047 156.331 206.962C158.415 204.878 154.246 204.878 154.246 202.793C158.415 202.793 158.415 204.878 160.5 202.793C162.584 202.793 162.584 198.625 164.668 198.625C164.668 198.625 164.668 198.625 164.668 200.709C168.837 198.625 166.753 194.456 168.837 190.287C168.837 190.287 168.837 190.287 170.922 190.287C173.006 190.287 175.09 190.287 177.175 186.118C179.259 181.949 179.259 177.781 179.259 175.696C181.344 173.612 183.428 171.527 183.428 169.443C183.428 167.359 183.428 167.358 183.428 167.358C183.428 165.274 183.428 165.274 181.344 165.274C179.259 163.19 179.259 163.19 175.09 163.19C173.006 163.19 168.837 163.19 170.922 163.19L168.837 161.105C166.753 161.105 166.753 161.105 164.668 161.105V159.021H162.584C162.584 159.021 162.584 161.105 160.5 161.105C160.5 161.105 162.584 156.936 160.5 156.936C160.5 152.768 156.331 152.768 154.246 150.683C152.162 150.683 147.993 148.599 147.993 144.43C145.909 144.43 143.824 144.43 145.909 144.43C143.824 142.346 141.74 144.43 141.74 144.43C139.655 144.43 137.571 142.346 135.487 142.346C135.487 144.43 135.487 144.43 133.402 144.43V146.514C131.318 144.43 131.318 142.346 133.402 142.346C131.318 142.346 125.065 146.514 122.98 148.599C122.98 150.683 125.065 152.768 122.98 154.852C122.98 156.936 118.811 159.021 118.811 159.021C118.811 161.105 118.811 161.105 120.896 161.105C120.896 163.19 116.727 163.19 118.811 167.358C118.811 167.358 120.896 167.359 120.896 169.443L122.98 171.527C122.98 173.612 125.065 177.781 125.065 177.781C127.149 179.865 129.233 179.865 131.318 181.949C135.487 184.034 133.402 190.287 133.402 194.456C133.402 196.54 131.318 198.625 131.318 200.709C131.318 202.793 131.318 206.962 129.233 209.047C131.318 211.131 131.318 213.215 129.233 217.384V219.469C129.233 219.469 129.233 219.469 129.233 221.553C129.233 223.638 131.318 219.469 131.318 219.469C131.318 221.553 131.318 221.553 131.318 225.722C131.318 223.638 131.318 223.638 131.318 223.638C129.233 223.638 131.318 225.722 131.318 225.722ZM133.402 131.924C135.487 131.924 139.655 131.924 141.74 131.924C139.655 129.839 137.571 131.924 135.487 129.839C133.402 129.839 131.318 127.755 131.318 129.839C131.318 131.924 133.402 131.924 133.402 131.924ZM127.149 131.924C127.149 131.924 125.065 129.839 125.065 131.924C125.065 131.924 127.149 131.924 127.149 131.924ZM129.233 127.755C129.233 127.755 125.065 125.67 122.98 125.67C120.896 125.67 118.811 123.586 116.727 125.67C114.643 125.67 114.643 127.755 116.727 127.755H118.811C120.896 127.755 120.896 129.839 120.896 129.839C125.065 127.755 127.149 127.755 129.233 127.755ZM200.103 50.6315C202.188 50.6315 202.188 50.6315 202.188 52.716C200.103 50.6315 200.103 50.6315 200.103 50.6315C200.103 52.716 200.103 52.716 200.103 50.6315C202.188 52.716 200.103 54.8004 202.188 54.8004L206.357 54.8004C208.441 54.8004 208.441 54.8004 210.525 52.716C212.61 52.716 212.61 52.716 214.694 50.6315H212.61C212.61 46.4627 208.441 50.6315 206.357 50.6315H204.272C202.188 50.6315 204.272 48.5471 204.272 50.6315C200.103 48.5471 200.103 50.6315 200.103 50.6315ZM154.246 79.8133L150.077 86.0665C150.077 86.0665 152.162 86.0665 154.246 86.0665C156.331 86.0665 156.331 86.0665 158.415 88.1509C160.5 83.9821 158.415 83.9821 154.246 81.8977C154.246 81.8977 156.331 77.7289 154.246 79.8133C156.331 79.8133 154.246 79.8133 154.246 79.8133ZM147.993 81.8977C145.909 81.8977 145.909 79.8133 143.824 81.8977C145.909 81.8977 145.909 83.9821 147.993 81.8977ZM187.597 44.3783C189.681 42.2939 189.681 44.3783 187.597 44.3783C191.766 44.3783 191.766 44.3783 193.85 42.2939C195.934 42.2939 200.103 40.2095 200.103 38.1251C198.019 40.2095 191.766 36.0407 198.019 36.0407C198.019 36.0407 200.103 40.2095 202.188 36.0407C202.188 36.0407 200.103 31.8719 198.019 31.8719C198.019 31.8719 202.188 33.9563 200.103 31.8719C200.103 29.7874 198.019 29.7874 198.019 31.8719C198.019 31.8719 202.188 33.9563 202.188 31.8719C204.272 29.7874 200.103 29.7875 200.103 29.7875H204.272C204.272 29.7875 200.103 27.703 204.272 27.703C204.272 25.6186 200.103 25.6186 202.188 23.5342H204.272C206.357 23.5342 204.272 23.5342 206.357 25.6186C206.357 23.5342 208.441 21.4498 204.272 21.4498C204.272 19.3654 204.272 21.4498 206.357 19.3654C206.357 17.281 202.188 19.3654 202.188 19.3654C200.103 17.281 208.441 11.0278 210.525 11.0278C208.441 11.0278 208.441 11.0278 206.357 11.0278C208.441 11.0278 210.525 11.0278 212.61 8.94335C212.61 8.94335 216.779 8.94335 214.694 6.85894L210.525 6.85894C208.441 6.85894 206.357 6.85894 204.272 8.94335C202.188 8.94335 198.019 11.0278 198.019 11.0278C200.103 6.85894 202.188 6.85894 198.019 6.85894C198.019 8.94335 195.934 8.94335 193.85 8.94335C193.85 6.85894 195.934 8.94335 195.934 6.85894C193.85 4.77453 187.597 8.94335 185.512 6.85894C185.512 4.77453 198.019 4.77453 200.103 4.77453C198.019 4.77453 195.934 4.77453 193.85 4.77453C189.681 4.77453 187.597 4.77453 183.428 4.77453C185.512 2.69012 189.681 4.77453 193.85 4.77453C193.85 2.69012 179.259 2.69012 177.175 4.77453C175.09 4.77453 177.175 6.85894 175.09 6.85894C173.006 6.85894 173.006 6.85894 170.922 6.85894C168.837 6.85894 166.753 6.85894 164.668 6.85894C164.668 6.85894 166.753 6.85894 166.753 8.94335C166.753 8.94335 162.584 6.85894 164.668 8.94335L168.837 11.0278C166.753 6.85894 164.668 2.69012 162.584 2.69012L164.668 4.77453C162.584 4.77453 160.5 2.69012 158.415 2.69012C158.415 4.77453 158.415 6.85894 158.415 4.77453V2.69012C156.331 2.69012 152.162 4.77453 150.077 4.77453C150.077 4.77453 152.162 4.77453 154.246 6.85894C152.162 6.85894 152.162 6.85894 150.077 4.77453C150.077 4.77453 150.077 4.77453 147.993 4.77453C145.909 4.77453 147.993 6.85894 147.993 6.85894C145.909 6.85894 143.824 6.85894 141.74 8.94335C141.74 8.94335 139.655 8.94335 139.655 11.0278C141.74 11.0278 141.74 11.0278 141.74 11.0278V13.1122H139.655C137.571 13.1122 135.487 13.1122 133.402 15.1966C129.233 19.3654 137.571 19.3654 141.74 19.3654C141.74 21.4498 135.487 19.3654 135.487 21.4498L137.571 23.5342H139.655C141.74 23.5342 147.993 23.5342 150.077 23.5342C152.162 25.6186 154.246 29.7874 154.246 31.8719C152.162 36.0407 158.415 31.8719 160.5 38.1251C158.415 38.1251 156.331 36.0407 156.331 38.1251C156.331 40.2095 154.246 42.2939 158.415 42.2939C160.5 42.2939 160.5 40.2095 158.415 40.2095C162.584 40.2095 160.5 40.2095 162.584 44.3783C160.5 44.3783 160.5 44.3783 160.5 46.4627C156.331 46.4627 160.5 50.6315 160.5 50.6315H162.584C162.584 50.6315 160.5 50.6315 162.584 52.716V54.8004H164.668C162.584 56.8848 164.668 61.0536 166.753 63.138C168.837 63.138 173.006 65.2224 175.09 65.2224C177.175 65.2224 175.09 61.0536 177.175 61.0536C177.175 61.0536 177.175 61.0536 177.175 58.9692H179.259C181.344 56.8848 179.259 52.716 183.428 52.716C183.428 50.6315 183.428 52.716 183.428 50.6315C181.344 52.716 187.597 44.3783 187.597 44.3783ZM108.389 21.4498C110.474 23.5342 118.811 23.5342 120.896 21.4498C120.896 23.5342 125.065 21.4498 125.065 19.3654C125.065 19.3654 125.065 19.3654 122.98 19.3654C122.98 19.3654 122.98 19.3654 122.98 17.281C125.065 17.281 125.065 17.281 125.065 15.1966C127.149 15.1966 129.233 15.1966 127.149 13.1122H129.233C129.233 11.0278 125.065 11.0278 125.065 13.1122C127.149 11.0278 129.233 13.1122 131.318 11.0278C131.318 11.0278 131.318 11.0278 129.233 11.0278C131.318 11.0278 131.318 11.0278 133.402 11.0278C133.402 11.0278 133.402 11.0278 131.318 8.94335C135.487 8.94335 139.655 6.85894 141.74 4.77453C141.74 4.77453 137.571 4.77453 135.487 4.77453C137.571 2.69012 143.824 4.77453 145.909 2.69012C147.993 2.69012 141.74 2.69012 139.655 2.69012L135.487 0.605713C133.402 2.69012 125.065 0.605711 127.149 2.69012C125.065 2.69012 118.811 0.605709 118.811 4.77453C120.896 4.77453 122.98 4.77453 122.98 6.85894C120.896 4.77453 118.811 4.77453 116.727 2.69012C114.643 2.69012 114.643 2.69012 112.558 2.69012C110.474 4.77453 108.389 4.77453 106.305 6.85894C108.389 6.85894 108.389 8.94335 110.474 8.94335C112.558 8.94335 112.558 8.94335 116.727 8.94335C110.474 11.0278 118.811 8.94335 118.811 8.94335C120.896 8.94335 122.98 6.85894 127.149 6.85894C125.065 6.85894 125.065 6.85894 122.98 8.94335C125.065 8.94335 125.065 8.94335 125.065 8.94335C125.065 8.94335 120.896 11.0278 118.811 11.0278C120.896 11.0278 120.896 13.1122 122.98 13.1122C120.896 13.1122 116.727 11.0278 114.643 11.0278C114.643 13.1122 118.811 15.1966 120.896 15.1966C120.896 15.1966 120.896 17.281 118.811 17.281C114.643 13.1122 108.389 19.3654 116.727 17.281C116.727 17.281 116.727 17.281 114.643 17.281C114.643 19.3654 116.727 17.281 118.811 17.281C116.727 21.4498 112.558 17.281 110.474 17.281C112.558 19.3654 110.474 21.4498 108.389 21.4498ZM110.474 17.281C110.474 15.1966 110.474 15.1966 110.474 17.281C116.727 17.281 114.643 13.1122 112.558 11.0278L104.22 6.85894L106.305 6.85894L104.22 6.85894C104.22 6.85894 104.22 6.85894 104.22 8.94335H102.136V11.0278C104.22 13.1122 106.305 11.0278 108.389 13.1122C106.305 13.1122 106.305 13.1122 104.22 13.1122C104.22 17.281 108.389 17.281 110.474 17.281ZM106.305 19.3654C106.305 21.4498 108.389 21.4498 108.389 19.3654C108.389 19.3654 108.389 19.3654 106.305 19.3654ZM106.305 27.703C108.389 27.703 122.98 27.703 120.896 25.6186C118.811 23.5342 112.558 25.6186 110.474 25.6186C108.389 25.6186 108.389 21.4498 104.22 21.4498C106.305 23.5342 104.22 25.6186 106.305 27.703ZM100.052 25.6186C100.052 25.6186 104.22 27.703 104.22 25.6186C104.22 23.5342 100.052 25.6186 100.052 25.6186ZM102.136 23.5342C104.22 21.4498 102.136 21.4498 100.052 21.4498C97.9672 21.4498 102.136 23.5342 102.136 23.5342ZM100.052 19.3654C102.136 19.3654 102.136 19.3654 104.22 19.3654C102.136 17.281 100.052 17.281 100.052 19.3654ZM100.052 17.281C104.22 17.281 97.9672 15.1966 95.8828 15.1966C97.9672 17.281 97.9672 17.281 100.052 17.281ZM95.8828 13.1122C95.8828 13.1122 95.8828 11.0278 93.7984 11.0278C95.8828 13.1122 95.8828 13.1122 95.8828 13.1122ZM95.8828 19.3654C95.8828 15.1966 89.6296 13.1122 87.5452 13.1122C87.5452 15.1966 87.5452 15.1966 89.6296 15.1966C89.6296 15.1966 89.6296 15.1966 87.5452 15.1966C89.6296 17.281 93.7984 17.281 95.8828 19.3654ZM91.714 19.3654H89.6296C91.714 19.3654 91.714 19.3654 91.714 19.3654ZM91.714 25.6186C93.7984 25.6186 93.7984 25.6186 93.7984 27.703C95.8828 27.703 97.9672 27.703 97.9672 25.6186C97.9672 23.5342 95.8828 23.5342 93.7984 23.5342L95.8828 25.6186C95.8828 25.6186 93.7984 23.5342 91.714 23.5342C91.714 23.5342 91.714 23.5342 91.714 25.6186C91.714 23.5342 89.6296 21.4498 87.5452 21.4498C87.5452 23.5342 89.6296 23.5342 91.714 25.6186ZM87.5452 25.6186C87.5452 25.6186 89.6296 27.703 87.5452 25.6186C87.5452 25.6186 89.6296 25.6186 87.5452 25.6186ZM87.5452 19.3654C85.4608 19.3654 87.5452 21.4498 87.5452 19.3654V19.3654ZM125.065 46.4627C125.065 46.4627 129.233 46.4627 127.149 44.3783C127.149 42.2939 125.065 44.3783 125.065 46.4627ZM102.136 33.9563C102.136 33.9563 104.22 33.9563 102.136 33.9563C106.305 33.9563 106.305 31.8719 106.305 29.7875C104.22 29.7875 102.136 27.703 100.052 29.7875C100.052 29.7875 100.052 33.9563 102.136 33.9563ZM95.8828 36.0407C100.052 36.0407 100.052 33.9563 95.8828 31.8719C97.9672 31.8719 95.8828 29.7875 95.8828 29.7875C95.8828 29.7875 93.7984 29.7875 91.714 29.7875C93.7984 31.8719 91.714 33.9563 89.6296 31.8719C91.714 33.9563 95.8828 36.0407 95.8828 36.0407ZM87.5452 31.8719C87.5452 29.7874 85.4608 29.7875 83.3764 29.7875C85.4608 31.8719 87.5452 31.8719 87.5452 31.8719ZM83.3764 29.7875C83.3764 29.7875 83.3764 31.8719 83.3764 29.7875V29.7875ZM77.1232 17.281C79.2076 17.281 81.292 17.281 81.292 17.281C81.292 15.1966 77.1232 15.1966 77.1232 17.281ZM77.1232 19.3654C79.2076 19.3654 81.292 19.3654 77.1232 19.3654C79.2076 17.281 79.2076 17.281 81.292 17.281C79.2076 17.281 77.1232 17.281 77.1232 19.3654ZM75.0387 19.3654C75.0387 17.281 75.0387 17.281 75.0387 19.3654C72.9543 19.3654 75.0387 17.281 75.0387 19.3654ZM72.9543 21.4498C70.8699 23.5342 68.7855 25.6186 70.8699 25.6186C72.9543 25.6186 77.1232 25.6186 79.2076 25.6186C79.2076 25.6186 75.0387 25.6186 75.0387 27.703C75.0387 29.7874 77.1232 27.703 79.2076 27.703C81.292 27.703 87.5452 25.6186 87.5452 23.5342L83.3764 21.4498C81.292 21.4498 81.292 21.4498 81.292 23.5342H83.3764C81.292 25.6186 75.0387 23.5342 72.9543 21.4498ZM68.7855 23.5342C68.7855 25.6186 68.7855 25.6186 68.7855 23.5342V23.5342ZM70.8699 21.4498C72.9543 21.4498 72.9543 19.3654 72.9543 19.3654C68.7855 17.281 66.7011 21.4498 62.5323 23.5342C64.6167 25.6186 66.7011 23.5342 70.8699 21.4498C70.8699 21.4498 68.7855 23.5342 70.8699 21.4498ZM70.8699 40.2095C75.0387 40.2095 75.0387 42.2939 77.1232 42.2939C79.2076 42.2939 81.292 42.2939 83.3764 40.2095C85.4608 40.2095 93.7984 42.2939 89.6296 38.1251C91.714 38.1251 91.714 38.1251 91.714 38.1251C89.6296 38.1251 89.6296 38.1251 87.5452 36.0407C87.5452 36.0407 85.4608 29.7874 83.3764 31.8719C83.3764 33.9563 85.4608 36.0407 83.3764 36.0407C81.292 36.0407 81.292 31.8719 79.2076 31.8719C79.2076 31.8719 79.2076 31.8719 79.2076 33.9563H77.1232C77.1232 33.9563 77.1232 33.9563 77.1232 31.8719C75.0387 31.8719 72.9543 31.8719 72.9543 31.8719C72.9543 29.7874 70.8699 29.7874 68.7855 31.8719C68.7855 31.8719 68.7855 33.9563 68.7855 36.0407C70.8699 36.0407 72.9543 36.0407 72.9543 36.0407C70.8699 36.0407 70.8699 36.0407 68.7855 38.1251C70.8699 38.1251 75.0387 38.1251 77.1232 38.1251C77.1232 38.1251 70.8699 38.1251 70.8699 40.2095ZM83.3764 44.3783C85.4608 44.3783 85.4608 44.3783 85.4608 42.2939C85.4608 42.2939 83.3764 42.2939 83.3764 44.3783ZM64.6167 36.0407C66.7011 36.0407 66.7011 33.9563 68.7855 31.8719C72.9543 29.7874 72.9543 29.7874 68.7855 27.703C66.7011 27.703 62.5323 25.6186 60.4479 27.703C60.4479 27.703 60.4479 31.8719 58.3635 33.9563C60.4479 33.9563 62.5323 36.0407 64.6167 36.0407C62.5323 36.0407 62.5323 36.0407 64.6167 36.0407ZM4.16882 63.138C-3.10601e-07 63.138 2.08441 61.0536 4.16882 63.138V63.138ZM27.0973 61.0536C27.0973 58.9692 31.2661 61.0536 31.2661 61.0536C33.3506 61.0536 35.435 61.0536 37.5194 61.0536C41.6882 63.138 43.7726 65.2224 47.9414 65.2224C47.9414 65.2224 47.9414 67.3068 50.0258 67.3068C50.0258 67.3068 52.1102 67.3068 52.1102 69.3912C54.1946 71.4756 54.1946 73.56 54.1946 73.56C56.2791 75.6445 56.2791 75.6445 60.4479 77.7289C60.4479 81.8977 64.6167 83.9821 62.5323 86.0665C60.4479 83.9821 58.3635 79.8133 56.2791 79.8133C56.2791 81.8977 60.4479 81.8977 60.4479 86.0665C62.5323 88.1509 60.4479 92.3197 60.4479 94.4041C60.4479 98.573 62.5323 104.826 64.6167 106.911C66.7011 106.911 68.7855 106.911 70.8699 111.079C72.9543 113.164 72.9543 115.248 75.0387 117.333C75.0387 117.333 75.0387 117.333 75.0387 119.417L77.1232 121.501L79.2076 125.67C81.292 123.586 72.9543 115.248 72.9543 111.079C75.0387 111.079 79.2076 117.333 79.2076 117.333C83.3764 121.501 85.4608 123.586 87.5452 127.755C83.3764 129.839 97.9672 136.092 100.052 136.092H102.136C104.22 136.092 104.22 138.177 106.305 138.177C108.389 138.177 110.474 140.261 110.474 140.261C112.558 142.346 112.558 144.43 114.643 144.43C116.727 146.514 118.811 146.514 120.896 148.599C120.896 144.43 125.065 148.599 125.065 146.514C125.065 144.43 120.896 146.514 118.811 144.43C114.643 142.346 118.811 140.261 116.727 136.092C114.643 134.008 110.474 136.092 108.389 134.008C110.474 131.924 112.558 125.67 108.389 125.67C104.22 125.67 106.305 127.755 104.22 129.839C102.136 131.924 100.052 129.839 97.9672 129.839C93.7984 127.755 93.7984 119.417 95.8828 115.248C97.9672 111.079 102.136 115.248 106.305 113.164C106.305 111.079 108.389 111.079 110.474 111.079H114.643C116.727 111.079 118.811 119.417 118.811 119.417C120.896 119.417 116.727 111.079 118.811 106.911C120.896 104.826 122.98 104.826 125.065 102.742C125.065 100.657 125.065 100.657 125.065 98.573C127.149 98.573 125.065 98.573 127.149 98.573L129.233 94.4041C129.233 94.4041 133.402 94.4042 133.402 92.3197C133.402 92.3197 141.74 88.1509 143.824 90.2353C143.824 90.2353 141.74 90.2353 139.655 92.3197C137.571 94.4042 141.74 92.3197 141.74 92.3197C145.909 90.2353 147.993 88.1509 150.077 86.0665C147.993 86.0665 147.993 88.1509 143.824 88.1509C139.655 86.0665 143.824 83.9821 143.824 83.9821C141.74 79.8133 135.487 86.0665 133.402 88.1509C135.487 86.0665 135.487 86.0665 135.487 83.9821H133.402C135.487 83.9821 137.571 81.8977 139.655 79.8133C141.74 79.8133 143.824 79.8133 145.909 79.8133C147.993 79.8133 147.993 79.8133 150.077 77.7289C152.162 77.7289 154.246 75.6445 154.246 73.56C154.246 71.4756 150.077 73.56 147.993 73.56C147.993 71.4756 150.077 71.4756 152.162 71.4756C150.077 71.4756 147.993 71.4756 147.993 69.3912C150.077 69.3912 145.909 63.138 143.824 61.0536C141.74 63.138 141.74 65.2224 139.655 65.2224C137.571 65.2224 137.571 63.138 135.487 65.2224C137.571 58.9692 133.402 56.8848 129.233 56.8848C125.065 56.8848 122.98 58.9692 125.065 63.138V65.2224C129.233 65.2224 127.149 71.4756 122.98 71.4756C125.065 73.5601 125.065 77.7289 122.98 77.7289C120.896 77.7289 118.811 71.4756 118.811 69.3912C114.643 69.3912 112.558 67.3068 110.474 67.3068C110.474 69.3912 108.389 67.3068 106.305 67.3068H104.22C104.22 67.3068 104.22 65.2224 102.136 65.2224C102.136 63.138 102.136 65.2224 102.136 61.0536C102.136 58.9692 104.22 56.8848 104.22 56.8848C104.22 56.8848 108.389 54.8004 106.305 54.8004L102.136 52.716C104.22 52.716 108.389 54.8004 108.389 52.716C110.474 54.8004 112.558 52.716 112.558 50.6315C110.474 50.6315 108.389 50.6315 106.305 48.5471C108.389 48.5471 114.643 50.6315 112.558 46.4627C116.727 46.4627 114.643 50.6315 112.558 52.716C114.643 54.8004 114.643 54.8004 116.727 54.8004H118.811H120.896C125.065 54.8004 116.727 50.6315 116.727 50.6315C118.811 50.6315 116.727 50.6315 118.811 50.6315C120.896 50.6315 122.98 48.5471 120.896 46.4627C125.065 46.4627 120.896 42.2939 118.811 42.2939C120.896 42.2939 122.98 42.2939 127.149 42.2939C127.149 42.2939 127.149 42.2939 125.065 40.2095C127.149 40.2095 129.233 42.2939 131.318 44.3783C131.318 44.3783 133.402 46.4627 133.402 48.5471C133.402 50.6315 129.233 50.6315 131.318 52.716C129.233 52.716 125.065 52.716 125.065 54.8004C125.065 56.8848 129.233 54.8004 129.233 54.8004C131.318 54.8004 133.402 56.8848 133.402 58.9692C135.487 61.0536 137.571 61.0536 139.655 61.0536C139.655 58.9692 137.571 58.9692 135.487 56.8848C137.571 56.8848 139.655 58.9692 141.74 58.9692V56.8848C141.74 52.716 139.655 50.6315 137.571 48.5471C139.655 46.4627 139.655 48.5471 141.74 48.5471C143.824 50.6315 143.824 50.6315 145.909 50.6315L147.993 48.5471C147.993 46.4627 147.993 48.5471 147.993 46.4627C145.909 44.3783 135.487 42.2939 141.74 40.2095H139.655C139.655 40.2095 137.571 40.2095 137.571 38.1251C135.487 38.1251 135.487 38.1251 133.402 36.0407C129.233 36.0407 129.233 33.9563 127.149 33.9563C125.065 33.9563 120.896 36.0407 120.896 36.0407C118.811 36.0407 120.896 33.9563 120.896 33.9563C118.811 29.7874 118.811 29.7875 116.727 29.7875C112.558 29.7875 112.558 33.9563 114.643 36.0407C110.474 36.0407 110.474 31.8719 114.643 29.7875C112.558 29.7875 108.389 29.7874 108.389 33.9563C108.389 36.0407 110.474 33.9563 112.558 38.1251C110.474 38.1251 110.474 38.1251 110.474 38.1251C110.474 40.2095 114.643 40.2095 116.727 40.2095C114.643 40.2095 114.643 48.5471 112.558 46.4627C110.474 46.4627 112.558 44.3783 112.558 44.3783C110.474 42.2939 108.389 42.2939 108.389 42.2939C108.389 42.2939 106.305 42.2939 104.22 40.2095C104.22 38.1251 104.22 33.9563 100.052 36.0407C95.8828 38.1251 104.22 42.2939 100.052 42.2939C100.052 44.3783 102.136 44.3783 104.22 42.2939C104.22 44.3783 100.052 44.3783 100.052 46.4627C100.052 44.3783 100.052 46.4627 100.052 44.3783C97.9672 44.3783 100.052 44.3783 97.9672 42.2939C97.9672 40.2095 97.9672 40.2095 95.8828 40.2095L93.7984 42.2939L95.8828 44.3783C95.8828 46.4627 91.714 44.3783 89.6296 44.3783C87.5452 44.3783 87.5452 42.2939 85.4608 44.3783C83.3764 44.3783 83.3764 44.3783 83.3764 48.5471C83.3764 44.3783 77.1232 44.3783 72.9543 44.3783C72.9543 44.3783 72.9543 44.3783 75.0387 42.2939C72.9543 42.2939 68.7855 40.2095 66.7011 40.2095C64.6167 40.2095 62.5323 42.2939 60.4479 40.2095C60.4479 42.2939 58.3635 40.2095 58.3635 40.2095C58.3635 40.2095 58.3635 38.1251 56.2791 38.1251C54.1946 38.1251 56.2791 38.1251 54.1946 38.1251C52.1102 38.1251 50.0258 40.2095 47.9414 40.2095C50.0258 38.1251 52.1102 38.1251 52.1102 38.1251C52.1102 38.1251 47.9414 40.2095 45.857 40.2095C41.6882 40.2095 39.6038 40.2095 35.435 38.1251C31.2661 38.1251 29.1817 38.1251 27.0973 36.0407C22.9285 36.0407 20.8441 33.9563 18.7597 33.9563C16.6753 33.9563 14.5909 33.9563 12.5065 36.0407C10.422 36.0407 10.422 38.1251 8.33764 40.2095C4.16882 42.2939 2.08441 42.2939 4.16882 44.3783C4.16882 46.4627 8.33764 46.4627 8.33764 48.5471C6.25323 48.5471 4.16882 48.5471 4.16882 46.4627C4.16882 48.5471 2.08441 48.5471 0 50.6315C2.08441 50.6315 2.08441 52.716 4.16882 52.716C6.25323 52.716 8.33764 52.716 10.422 52.716C10.422 56.8848 4.16882 52.716 4.16882 56.8848C4.16882 58.9692 6.25323 65.2224 8.33764 61.0536C8.33764 61.0536 10.422 63.138 8.33764 65.2224C10.422 65.2224 12.5065 65.2224 12.5065 65.2224H14.5909C14.5909 69.3912 8.33764 69.3912 4.16882 73.56C8.33764 73.56 16.6753 67.3068 20.8441 65.2224C20.8441 65.2224 20.8441 63.138 18.7597 63.138C22.9285 63.138 22.9285 58.9692 27.0973 61.0536C22.9285 61.0536 22.9285 61.0536 22.9285 63.138C25.0129 63.138 27.0973 61.0536 27.0973 61.0536ZM20.8441 67.3068C20.8441 65.2224 20.8441 65.2224 20.8441 67.3068C18.7597 67.3068 16.6753 67.3068 18.7597 69.3912C20.8441 67.3068 20.8441 67.3068 20.8441 67.3068Z" fill="#ECF2F8"/>
<ellipse cx="412.919" cy="177.366" rx="15.4074" ry="14.3803" fill="#FFCD3C"/>
<circle cx="221.867" cy="105.465" r="4.10865" fill="#1469FF" fill-opacity="0.6"/>
<ellipse cx="374.401" cy="111.627" rx="3.59507" ry="4.10865" fill="#FFCD3C"/>
<circle opacity="0.3" cx="105.284" cy="90.5708" r="26.1926" fill="#FFCD3C"/>
<ellipse cx="106.311" cy="91.0843" rx="15.921" ry="16.4346" fill="#FFCD3C"/>
<path d="M103.346 103.206V97.4463C103.346 96.7691 103.895 96.2202 104.572 96.2202C105.249 96.2202 105.798 96.7691 105.798 97.4463V100.443C105.798 100.931 106.134 101.356 106.61 101.467L110.336 102.336C111.287 102.558 111.961 103.407 111.961 104.384V106.419C111.961 108.161 110.548 109.573 108.806 109.573H104.344C103.712 109.573 103.114 109.289 102.715 108.8L99.0159 104.266C98.7661 103.96 98.7128 103.538 98.8786 103.18C99.1807 102.526 100.042 102.374 100.55 102.885L101.587 103.931C102.234 104.582 103.346 104.124 103.346 103.206Z" fill="white" stroke="black" stroke-width="0.630938"/>
<circle cx="300.959" cy="147.578" r="6.16298" fill="#FFCD3C"/>
<ellipse cx="170.509" cy="183.015" rx="10.2716" ry="10.7852" fill="#FFCD3C"/>
<g filter="url(#filter0_d_8_7524)">
<path d="M146 49C146 43.4771 150.477 39 156 39L262 39C267.523 39 272 43.4772 272 49V118C272 123.523 267.523 128 262 128H156C150.477 128 146 123.523 146 118V49Z" fill="white"/>
</g>
<path d="M179.106 57.662C179.106 58.138 179.17 58.566 179.298 58.946C179.426 59.322 179.608 59.642 179.844 59.906C180.084 60.166 180.372 60.366 180.708 60.506C181.048 60.646 181.43 60.716 181.854 60.716C182.278 60.716 182.658 60.646 182.994 60.506C183.334 60.366 183.622 60.166 183.858 59.906C184.094 59.642 184.276 59.322 184.404 58.946C184.532 58.566 184.596 58.138 184.596 57.662C184.596 57.186 184.532 56.76 184.404 56.384C184.276 56.004 184.094 55.682 183.858 55.418C183.622 55.154 183.334 54.952 182.994 54.812C182.658 54.672 182.278 54.602 181.854 54.602C181.43 54.602 181.048 54.672 180.708 54.812C180.372 54.952 180.084 55.154 179.844 55.418C179.608 55.682 179.426 56.004 179.298 56.384C179.17 56.76 179.106 57.186 179.106 57.662ZM186.696 63.698H185.364C185.172 63.698 184.998 63.672 184.842 63.62C184.69 63.568 184.55 63.472 184.422 63.332L183.15 61.928C182.946 61.984 182.736 62.026 182.52 62.054C182.308 62.082 182.086 62.096 181.854 62.096C181.198 62.096 180.6 61.986 180.06 61.766C179.52 61.542 179.056 61.232 178.668 60.836C178.284 60.44 177.986 59.972 177.774 59.432C177.562 58.888 177.456 58.298 177.456 57.662C177.456 57.026 177.562 56.438 177.774 55.898C177.986 55.354 178.284 54.884 178.668 54.488C179.056 54.092 179.52 53.784 180.06 53.564C180.6 53.34 181.198 53.228 181.854 53.228C182.294 53.228 182.708 53.28 183.096 53.384C183.484 53.484 183.84 53.628 184.164 53.816C184.488 54 184.778 54.226 185.034 54.494C185.294 54.758 185.514 55.054 185.694 55.382C185.874 55.71 186.01 56.066 186.102 56.45C186.198 56.834 186.246 57.238 186.246 57.662C186.246 58.05 186.206 58.422 186.126 58.778C186.046 59.13 185.93 59.46 185.778 59.768C185.63 60.076 185.448 60.36 185.232 60.62C185.016 60.876 184.77 61.102 184.494 61.298L186.696 63.698ZM192.645 55.844V62H191.739C191.543 62 191.419 61.91 191.367 61.73L191.265 61.238C191.013 61.494 190.735 61.702 190.431 61.862C190.127 62.018 189.769 62.096 189.357 62.096C189.021 62.096 188.723 62.04 188.463 61.928C188.207 61.812 187.991 61.65 187.815 61.442C187.639 61.234 187.505 60.988 187.413 60.704C187.325 60.416 187.281 60.1 187.281 59.756V55.844H188.763V59.756C188.763 60.132 188.849 60.424 189.021 60.632C189.197 60.836 189.459 60.938 189.807 60.938C190.063 60.938 190.303 60.882 190.527 60.77C190.751 60.654 190.963 60.496 191.163 60.296V55.844H192.645ZM198.081 58.214C198.081 58.022 198.053 57.842 197.997 57.674C197.945 57.502 197.865 57.352 197.757 57.224C197.649 57.096 197.511 56.996 197.343 56.924C197.179 56.848 196.987 56.81 196.767 56.81C196.339 56.81 196.001 56.932 195.753 57.176C195.509 57.42 195.353 57.766 195.285 58.214H198.081ZM195.255 59.108C195.279 59.424 195.335 59.698 195.423 59.93C195.511 60.158 195.627 60.348 195.771 60.5C195.915 60.648 196.085 60.76 196.281 60.836C196.481 60.908 196.701 60.944 196.941 60.944C197.181 60.944 197.387 60.916 197.559 60.86C197.735 60.804 197.887 60.742 198.015 60.674C198.147 60.606 198.261 60.544 198.357 60.488C198.457 60.432 198.553 60.404 198.645 60.404C198.769 60.404 198.861 60.45 198.921 60.542L199.347 61.082C199.183 61.274 198.999 61.436 198.795 61.568C198.591 61.696 198.377 61.8 198.153 61.88C197.933 61.956 197.707 62.01 197.475 62.042C197.247 62.074 197.025 62.09 196.809 62.09C196.381 62.09 195.983 62.02 195.615 61.88C195.247 61.736 194.927 61.526 194.655 61.25C194.383 60.97 194.169 60.626 194.013 60.218C193.857 59.806 193.779 59.33 193.779 58.79C193.779 58.37 193.847 57.976 193.983 57.608C194.119 57.236 194.313 56.914 194.565 56.642C194.821 56.366 195.131 56.148 195.495 55.988C195.863 55.828 196.277 55.748 196.737 55.748C197.125 55.748 197.483 55.81 197.811 55.934C198.139 56.058 198.421 56.24 198.657 56.48C198.893 56.716 199.077 57.008 199.209 57.356C199.345 57.7 199.413 58.094 199.413 58.538C199.413 58.762 199.389 58.914 199.341 58.994C199.293 59.07 199.201 59.108 199.065 59.108H195.255ZM198.849 53.228L197.367 54.794C197.291 54.874 197.217 54.93 197.145 54.962C197.077 54.99 196.987 55.004 196.875 55.004H195.987L196.839 53.546C196.899 53.442 196.969 53.364 197.049 53.312C197.129 53.256 197.249 53.228 197.409 53.228H198.849ZM202.007 60.404C202.175 60.608 202.357 60.752 202.553 60.836C202.753 60.92 202.963 60.962 203.183 60.962C203.411 60.962 203.615 60.922 203.795 60.842C203.979 60.758 204.135 60.63 204.263 60.458C204.391 60.282 204.489 60.06 204.557 59.792C204.625 59.52 204.659 59.196 204.659 58.82C204.659 58.144 204.547 57.656 204.323 57.356C204.099 57.052 203.777 56.9 203.357 56.9C203.073 56.9 202.825 56.966 202.613 57.098C202.401 57.226 202.199 57.408 202.007 57.644V60.404ZM202.007 56.6C202.255 56.34 202.529 56.134 202.829 55.982C203.133 55.826 203.479 55.748 203.867 55.748C204.223 55.748 204.543 55.818 204.827 55.958C205.115 56.098 205.359 56.3 205.559 56.564C205.763 56.824 205.919 57.14 206.027 57.512C206.135 57.884 206.189 58.302 206.189 58.766C206.189 59.266 206.127 59.72 206.003 60.128C205.879 60.536 205.701 60.886 205.469 61.178C205.241 61.466 204.965 61.69 204.641 61.85C204.317 62.01 203.957 62.09 203.561 62.09C203.369 62.09 203.195 62.07 203.039 62.03C202.883 61.994 202.739 61.942 202.607 61.874C202.475 61.806 202.353 61.724 202.241 61.628C202.133 61.528 202.029 61.418 201.929 61.298L201.863 61.712C201.839 61.816 201.797 61.89 201.737 61.934C201.681 61.978 201.603 62 201.503 62H200.525V53.084H202.007V56.6ZM211.3 58.214C211.3 58.022 211.272 57.842 211.216 57.674C211.164 57.502 211.084 57.352 210.976 57.224C210.868 57.096 210.73 56.996 210.562 56.924C210.398 56.848 210.206 56.81 209.986 56.81C209.558 56.81 209.22 56.932 208.972 57.176C208.728 57.42 208.572 57.766 208.504 58.214H211.3ZM208.474 59.108C208.498 59.424 208.554 59.698 208.642 59.93C208.73 60.158 208.846 60.348 208.99 60.5C209.134 60.648 209.304 60.76 209.5 60.836C209.7 60.908 209.92 60.944 210.16 60.944C210.4 60.944 210.606 60.916 210.778 60.86C210.954 60.804 211.106 60.742 211.234 60.674C211.366 60.606 211.48 60.544 211.576 60.488C211.676 60.432 211.772 60.404 211.864 60.404C211.988 60.404 212.08 60.45 212.14 60.542L212.566 61.082C212.402 61.274 212.218 61.436 212.014 61.568C211.81 61.696 211.596 61.8 211.372 61.88C211.152 61.956 210.926 62.01 210.694 62.042C210.466 62.074 210.244 62.09 210.028 62.09C209.6 62.09 209.202 62.02 208.834 61.88C208.466 61.736 208.146 61.526 207.874 61.25C207.602 60.97 207.388 60.626 207.232 60.218C207.076 59.806 206.998 59.33 206.998 58.79C206.998 58.37 207.066 57.976 207.202 57.608C207.338 57.236 207.532 56.914 207.784 56.642C208.04 56.366 208.35 56.148 208.714 55.988C209.082 55.828 209.496 55.748 209.956 55.748C210.344 55.748 210.702 55.81 211.03 55.934C211.358 56.058 211.64 56.24 211.876 56.48C212.112 56.716 212.296 57.008 212.428 57.356C212.564 57.7 212.632 58.094 212.632 58.538C212.632 58.762 212.608 58.914 212.56 58.994C212.512 59.07 212.42 59.108 212.284 59.108H208.474ZM218.154 57.146C218.11 57.202 218.066 57.246 218.022 57.278C217.982 57.31 217.922 57.326 217.842 57.326C217.766 57.326 217.692 57.304 217.62 57.26C217.548 57.212 217.462 57.16 217.362 57.104C217.262 57.044 217.142 56.992 217.002 56.948C216.866 56.9 216.696 56.876 216.492 56.876C216.232 56.876 216.004 56.924 215.808 57.02C215.612 57.112 215.448 57.246 215.316 57.422C215.188 57.598 215.092 57.812 215.028 58.064C214.964 58.312 214.932 58.594 214.932 58.91C214.932 59.238 214.966 59.53 215.034 59.786C215.106 60.042 215.208 60.258 215.34 60.434C215.472 60.606 215.632 60.738 215.82 60.83C216.008 60.918 216.22 60.962 216.456 60.962C216.692 60.962 216.882 60.934 217.026 60.878C217.174 60.818 217.298 60.754 217.398 60.686C217.498 60.614 217.584 60.55 217.656 60.494C217.732 60.434 217.816 60.404 217.908 60.404C218.028 60.404 218.118 60.45 218.178 60.542L218.604 61.082C218.44 61.274 218.262 61.436 218.07 61.568C217.878 61.696 217.678 61.8 217.47 61.88C217.266 61.956 217.054 62.01 216.834 62.042C216.618 62.074 216.402 62.09 216.186 62.09C215.806 62.09 215.448 62.02 215.112 61.88C214.776 61.736 214.482 61.528 214.23 61.256C213.978 60.984 213.778 60.652 213.63 60.26C213.486 59.864 213.414 59.414 213.414 58.91C213.414 58.458 213.478 58.04 213.606 57.656C213.738 57.268 213.93 56.934 214.182 56.654C214.434 56.37 214.746 56.148 215.118 55.988C215.49 55.828 215.918 55.748 216.402 55.748C216.862 55.748 217.264 55.822 217.608 55.97C217.956 56.118 218.268 56.33 218.544 56.606L218.154 57.146Z" fill="#0D465B"/>
<path d="M212.21 87.89V89H207.41V87.89H209.168V82.832C209.168 82.632 209.174 82.426 209.186 82.214L207.938 83.258C207.866 83.314 207.794 83.35 207.722 83.366C207.654 83.378 207.588 83.378 207.524 83.366C207.464 83.354 207.41 83.334 207.362 83.306C207.314 83.274 207.278 83.24 207.254 83.204L206.786 82.562L209.432 80.312H210.65V87.89H212.21ZM213.609 82.742C213.669 82.326 213.785 81.962 213.957 81.65C214.129 81.334 214.343 81.072 214.599 80.864C214.859 80.652 215.155 80.494 215.487 80.39C215.823 80.282 216.183 80.228 216.567 80.228C216.967 80.228 217.327 80.286 217.647 80.402C217.971 80.514 218.247 80.672 218.475 80.876C218.703 81.076 218.877 81.312 218.997 81.584C219.121 81.856 219.183 82.15 219.183 82.466C219.183 82.742 219.151 82.986 219.087 83.198C219.027 83.406 218.939 83.588 218.823 83.744C218.707 83.9 218.563 84.032 218.391 84.14C218.219 84.248 218.025 84.338 217.809 84.41C218.329 84.574 218.717 84.824 218.973 85.16C219.229 85.496 219.357 85.918 219.357 86.426C219.357 86.858 219.277 87.24 219.117 87.572C218.957 87.904 218.741 88.184 218.469 88.412C218.197 88.636 217.881 88.806 217.521 88.922C217.165 89.038 216.787 89.096 216.387 89.096C215.951 89.096 215.571 89.046 215.247 88.946C214.923 88.846 214.641 88.698 214.401 88.502C214.161 88.306 213.957 88.066 213.789 87.782C213.621 87.498 213.477 87.17 213.357 86.798L214.011 86.528C214.183 86.456 214.343 86.438 214.491 86.474C214.643 86.506 214.753 86.586 214.821 86.714C214.893 86.854 214.971 86.992 215.055 87.128C215.143 87.264 215.247 87.386 215.367 87.494C215.487 87.598 215.627 87.684 215.787 87.752C215.951 87.816 216.145 87.848 216.369 87.848C216.621 87.848 216.841 87.808 217.029 87.728C217.217 87.644 217.373 87.536 217.497 87.404C217.625 87.272 217.719 87.126 217.779 86.966C217.843 86.802 217.875 86.638 217.875 86.474C217.875 86.266 217.853 86.078 217.809 85.91C217.765 85.738 217.673 85.592 217.533 85.472C217.393 85.352 217.191 85.258 216.927 85.19C216.667 85.122 216.317 85.088 215.877 85.088V84.032C216.241 84.028 216.543 83.994 216.783 83.93C217.023 83.866 217.213 83.778 217.353 83.666C217.497 83.55 217.597 83.412 217.653 83.252C217.709 83.092 217.737 82.916 217.737 82.724C217.737 82.316 217.623 82.006 217.395 81.794C217.167 81.582 216.863 81.476 216.483 81.476C216.307 81.476 216.145 81.502 215.997 81.554C215.849 81.602 215.715 81.672 215.595 81.764C215.479 81.852 215.381 81.956 215.301 82.076C215.221 82.196 215.161 82.328 215.121 82.472C215.053 82.656 214.963 82.778 214.851 82.838C214.743 82.898 214.589 82.912 214.389 82.88L213.609 82.742ZM222.358 83.474C222.55 83.434 222.734 83.406 222.91 83.39C223.086 83.37 223.256 83.36 223.42 83.36C223.876 83.36 224.278 83.428 224.626 83.564C224.974 83.7 225.266 83.888 225.502 84.128C225.738 84.368 225.916 84.65 226.036 84.974C226.156 85.294 226.216 85.64 226.216 86.012C226.216 86.472 226.134 86.892 225.97 87.272C225.81 87.652 225.586 87.978 225.298 88.25C225.01 88.518 224.668 88.726 224.272 88.874C223.88 89.022 223.452 89.096 222.988 89.096C222.716 89.096 222.458 89.068 222.214 89.012C221.97 88.956 221.74 88.882 221.524 88.79C221.312 88.694 221.114 88.586 220.93 88.466C220.75 88.342 220.588 88.212 220.444 88.076L220.9 87.446C220.996 87.31 221.122 87.242 221.278 87.242C221.378 87.242 221.48 87.274 221.584 87.338C221.688 87.402 221.806 87.472 221.938 87.548C222.074 87.624 222.232 87.694 222.412 87.758C222.596 87.822 222.816 87.854 223.072 87.854C223.344 87.854 223.584 87.81 223.792 87.722C224 87.634 224.172 87.512 224.308 87.356C224.448 87.196 224.552 87.008 224.62 86.792C224.692 86.572 224.728 86.334 224.728 86.078C224.728 85.606 224.59 85.238 224.314 84.974C224.042 84.706 223.638 84.572 223.102 84.572C222.69 84.572 222.268 84.648 221.836 84.8L220.912 84.536L221.632 80.324H225.916V80.954C225.916 81.166 225.85 81.338 225.718 81.47C225.586 81.602 225.362 81.668 225.046 81.668H222.664L222.358 83.474ZM227.399 88.184C227.399 88.06 227.421 87.942 227.465 87.83C227.513 87.718 227.577 87.622 227.657 87.542C227.737 87.462 227.833 87.398 227.945 87.35C228.057 87.302 228.177 87.278 228.305 87.278C228.433 87.278 228.551 87.302 228.659 87.35C228.771 87.398 228.867 87.462 228.947 87.542C229.031 87.622 229.097 87.718 229.145 87.83C229.193 87.942 229.217 88.06 229.217 88.184C229.217 88.312 229.193 88.432 229.145 88.544C229.097 88.652 229.031 88.746 228.947 88.826C228.867 88.906 228.771 88.968 228.659 89.012C228.551 89.06 228.433 89.084 228.305 89.084C228.177 89.084 228.057 89.06 227.945 89.012C227.833 88.968 227.737 88.906 227.657 88.826C227.577 88.746 227.513 88.652 227.465 88.544C227.421 88.432 227.399 88.312 227.399 88.184ZM235.94 87.89V89H231.14V87.89H232.898V82.832C232.898 82.632 232.904 82.426 232.916 82.214L231.668 83.258C231.596 83.314 231.524 83.35 231.452 83.366C231.384 83.378 231.318 83.378 231.254 83.366C231.194 83.354 231.14 83.334 231.092 83.306C231.044 83.274 231.008 83.24 230.984 83.204L230.516 82.562L233.162 80.312H234.38V87.89H235.94ZM239.823 83.474L239.523 83.846C239.691 83.762 239.871 83.698 240.063 83.654C240.259 83.606 240.469 83.582 240.693 83.582C241.021 83.582 241.339 83.636 241.647 83.744C241.959 83.852 242.233 84.016 242.469 84.236C242.705 84.452 242.895 84.722 243.039 85.046C243.183 85.37 243.255 85.748 243.255 86.18C243.255 86.584 243.181 86.964 243.033 87.32C242.885 87.672 242.677 87.98 242.409 88.244C242.141 88.508 241.817 88.716 241.437 88.868C241.061 89.02 240.645 89.096 240.189 89.096C239.725 89.096 239.309 89.022 238.941 88.874C238.573 88.726 238.259 88.52 237.999 88.256C237.739 87.988 237.539 87.668 237.399 87.296C237.263 86.92 237.195 86.504 237.195 86.048C237.195 85.64 237.277 85.222 237.441 84.794C237.609 84.362 237.867 83.914 238.215 83.45L240.285 80.672C240.357 80.576 240.461 80.494 240.597 80.426C240.737 80.358 240.897 80.324 241.077 80.324H242.397L239.823 83.474ZM240.159 87.884C240.395 87.884 240.611 87.844 240.807 87.764C241.007 87.684 241.177 87.572 241.317 87.428C241.461 87.284 241.573 87.116 241.653 86.924C241.733 86.728 241.773 86.516 241.773 86.288C241.773 86.04 241.735 85.818 241.659 85.622C241.583 85.422 241.475 85.254 241.335 85.118C241.195 84.978 241.027 84.872 240.831 84.8C240.635 84.728 240.419 84.692 240.183 84.692C239.947 84.692 239.733 84.732 239.541 84.812C239.349 84.892 239.185 85.004 239.049 85.148C238.913 85.288 238.807 85.456 238.731 85.652C238.655 85.844 238.617 86.052 238.617 86.276C238.617 86.516 238.649 86.736 238.713 86.936C238.781 87.132 238.879 87.3 239.007 87.44C239.139 87.58 239.301 87.69 239.493 87.77C239.685 87.846 239.907 87.884 240.159 87.884ZM247.924 85.73V82.892C247.924 82.624 247.942 82.328 247.978 82.004L245.284 85.73H247.924ZM250.306 85.73V86.588C250.306 86.668 250.28 86.738 250.228 86.798C250.176 86.854 250.102 86.882 250.006 86.882H249.214V89H247.924V86.882H244.264C244.164 86.882 244.076 86.852 244 86.792C243.924 86.728 243.876 86.65 243.856 86.558L243.7 85.808L247.81 80.318H249.214V85.73H250.306Z" fill="#0D465B"/>
<path d="M163.402 88.052L163.396 89H158.098V80.402H163.396V81.35H159.262V84.206H162.61V85.118H159.262V88.052H163.402ZM163.09 77.888L161.134 79.604C161.074 79.66 161.016 79.694 160.96 79.706C160.904 79.718 160.836 79.724 160.756 79.724H159.988L161.374 78.08C161.442 77.992 161.51 77.938 161.578 77.918C161.65 77.898 161.752 77.888 161.884 77.888H163.09ZM165.817 80.162V89H164.749V80.162H165.817ZM171.617 85.298C171.617 85.05 171.581 84.824 171.509 84.62C171.441 84.412 171.339 84.234 171.203 84.086C171.071 83.934 170.909 83.818 170.717 83.738C170.525 83.654 170.307 83.612 170.063 83.612C169.551 83.612 169.145 83.762 168.845 84.062C168.549 84.358 168.365 84.77 168.293 85.298H171.617ZM172.481 88.148C172.349 88.308 172.191 88.448 172.007 88.568C171.823 88.684 171.625 88.78 171.413 88.856C171.205 88.932 170.989 88.988 170.765 89.024C170.541 89.064 170.319 89.084 170.099 89.084C169.679 89.084 169.291 89.014 168.935 88.874C168.583 88.73 168.277 88.522 168.017 88.25C167.761 87.974 167.561 87.634 167.417 87.23C167.273 86.826 167.201 86.362 167.201 85.838C167.201 85.414 167.265 85.018 167.393 84.65C167.525 84.282 167.713 83.964 167.957 83.696C168.201 83.424 168.499 83.212 168.851 83.06C169.203 82.904 169.599 82.826 170.039 82.826C170.403 82.826 170.739 82.888 171.047 83.012C171.359 83.132 171.627 83.308 171.851 83.54C172.079 83.768 172.257 84.052 172.385 84.392C172.513 84.728 172.577 85.112 172.577 85.544C172.577 85.712 172.559 85.824 172.523 85.88C172.487 85.936 172.419 85.964 172.319 85.964H168.257C168.269 86.348 168.321 86.682 168.413 86.966C168.509 87.25 168.641 87.488 168.809 87.68C168.977 87.868 169.177 88.01 169.409 88.106C169.641 88.198 169.901 88.244 170.189 88.244C170.457 88.244 170.687 88.214 170.879 88.154C171.075 88.09 171.243 88.022 171.383 87.95C171.523 87.878 171.639 87.812 171.731 87.752C171.827 87.688 171.909 87.656 171.977 87.656C172.065 87.656 172.133 87.69 172.181 87.758L172.481 88.148ZM169.463 80.306C169.595 80.306 169.693 80.328 169.757 80.372C169.821 80.412 169.881 80.478 169.937 80.57L170.831 82.022H170.219C170.135 82.022 170.067 82.01 170.015 81.986C169.963 81.958 169.909 81.914 169.853 81.854L168.449 80.306H169.463ZM178.968 82.922L176.49 89H175.53L173.052 82.922H173.922C174.01 82.922 174.082 82.944 174.138 82.988C174.194 83.032 174.232 83.084 174.252 83.144L175.794 87.056C175.842 87.204 175.884 87.348 175.92 87.488C175.956 87.628 175.99 87.768 176.022 87.908C176.054 87.768 176.088 87.628 176.124 87.488C176.16 87.348 176.204 87.204 176.256 87.056L177.816 83.144C177.84 83.08 177.88 83.028 177.936 82.988C177.992 82.944 178.058 82.922 178.134 82.922H178.968ZM183.852 85.298C183.852 85.05 183.816 84.824 183.744 84.62C183.676 84.412 183.574 84.234 183.438 84.086C183.306 83.934 183.144 83.818 182.952 83.738C182.76 83.654 182.542 83.612 182.298 83.612C181.786 83.612 181.38 83.762 181.08 84.062C180.784 84.358 180.6 84.77 180.528 85.298H183.852ZM184.716 88.148C184.584 88.308 184.426 88.448 184.242 88.568C184.058 88.684 183.86 88.78 183.648 88.856C183.44 88.932 183.224 88.988 183 89.024C182.776 89.064 182.554 89.084 182.334 89.084C181.914 89.084 181.526 89.014 181.17 88.874C180.818 88.73 180.512 88.522 180.252 88.25C179.996 87.974 179.796 87.634 179.652 87.23C179.508 86.826 179.436 86.362 179.436 85.838C179.436 85.414 179.5 85.018 179.628 84.65C179.76 84.282 179.948 83.964 180.192 83.696C180.436 83.424 180.734 83.212 181.086 83.06C181.438 82.904 181.834 82.826 182.274 82.826C182.638 82.826 182.974 82.888 183.282 83.012C183.594 83.132 183.862 83.308 184.086 83.54C184.314 83.768 184.492 84.052 184.62 84.392C184.748 84.728 184.812 85.112 184.812 85.544C184.812 85.712 184.794 85.824 184.758 85.88C184.722 85.936 184.654 85.964 184.554 85.964H180.492C180.504 86.348 180.556 86.682 180.648 86.966C180.744 87.25 180.876 87.488 181.044 87.68C181.212 87.868 181.412 88.01 181.644 88.106C181.876 88.198 182.136 88.244 182.424 88.244C182.692 88.244 182.922 88.214 183.114 88.154C183.31 88.09 183.478 88.022 183.618 87.95C183.758 87.878 183.874 87.812 183.966 87.752C184.062 87.688 184.144 87.656 184.212 87.656C184.3 87.656 184.368 87.69 184.416 87.758L184.716 88.148ZM189.663 83.924C189.615 84.012 189.541 84.056 189.441 84.056C189.381 84.056 189.313 84.034 189.237 83.99C189.161 83.946 189.067 83.898 188.955 83.846C188.847 83.79 188.717 83.74 188.565 83.696C188.413 83.648 188.233 83.624 188.025 83.624C187.845 83.624 187.683 83.648 187.539 83.696C187.395 83.74 187.271 83.802 187.167 83.882C187.067 83.962 186.989 84.056 186.933 84.164C186.881 84.268 186.855 84.382 186.855 84.506C186.855 84.662 186.899 84.792 186.987 84.896C187.079 85 187.199 85.09 187.347 85.166C187.495 85.242 187.663 85.31 187.851 85.37C188.039 85.426 188.231 85.488 188.427 85.556C188.627 85.62 188.821 85.692 189.009 85.772C189.197 85.852 189.365 85.952 189.513 86.072C189.661 86.192 189.779 86.34 189.867 86.516C189.959 86.688 190.005 86.896 190.005 87.14C190.005 87.42 189.955 87.68 189.855 87.92C189.755 88.156 189.607 88.362 189.411 88.538C189.215 88.71 188.975 88.846 188.691 88.946C188.407 89.046 188.079 89.096 187.707 89.096C187.283 89.096 186.899 89.028 186.555 88.892C186.211 88.752 185.919 88.574 185.679 88.358L185.931 87.95C185.963 87.898 186.001 87.858 186.045 87.83C186.089 87.802 186.145 87.788 186.213 87.788C186.285 87.788 186.361 87.816 186.441 87.872C186.521 87.928 186.617 87.99 186.729 88.058C186.845 88.126 186.985 88.188 187.149 88.244C187.313 88.3 187.517 88.328 187.761 88.328C187.969 88.328 188.151 88.302 188.307 88.25C188.463 88.194 188.593 88.12 188.697 88.028C188.801 87.936 188.877 87.83 188.925 87.71C188.977 87.59 189.003 87.462 189.003 87.326C189.003 87.158 188.957 87.02 188.865 86.912C188.777 86.8 188.659 86.706 188.511 86.63C188.363 86.55 188.193 86.482 188.001 86.426C187.813 86.366 187.619 86.304 187.419 86.24C187.223 86.176 187.029 86.104 186.837 86.024C186.649 85.94 186.481 85.836 186.333 85.712C186.185 85.588 186.065 85.436 185.973 85.256C185.885 85.072 185.841 84.85 185.841 84.59C185.841 84.358 185.889 84.136 185.985 83.924C186.081 83.708 186.221 83.52 186.405 83.36C186.589 83.196 186.815 83.066 187.083 82.97C187.351 82.874 187.657 82.826 188.001 82.826C188.401 82.826 188.759 82.89 189.075 83.018C189.395 83.142 189.671 83.314 189.903 83.534L189.663 83.924Z" fill="#8497AB"/>
<path d="M219.552 101.324V101.966C219.552 102.158 219.532 102.314 219.492 102.434C219.452 102.55 219.412 102.648 219.372 102.728L216.084 109.496C216.016 109.636 215.92 109.756 215.796 109.856C215.672 109.952 215.506 110 215.298 110H214.224L217.578 103.37C217.654 103.234 217.728 103.11 217.8 102.998C217.876 102.882 217.96 102.772 218.052 102.668H213.9C213.808 102.668 213.728 102.634 213.66 102.566C213.592 102.498 213.558 102.418 213.558 102.326V101.324H219.552ZM225.847 108.62C226.007 108.62 226.133 108.666 226.225 108.758C226.321 108.846 226.369 108.964 226.369 109.112V110H220.417V109.508C220.417 109.408 220.437 109.304 220.477 109.196C220.521 109.084 220.589 108.984 220.681 108.896L223.315 106.256C223.535 106.032 223.731 105.818 223.903 105.614C224.079 105.41 224.225 105.208 224.341 105.008C224.457 104.808 224.545 104.606 224.605 104.402C224.669 104.194 224.701 103.976 224.701 103.748C224.701 103.54 224.671 103.358 224.611 103.202C224.551 103.042 224.465 102.908 224.353 102.8C224.245 102.692 224.113 102.612 223.957 102.56C223.805 102.504 223.633 102.476 223.441 102.476C223.265 102.476 223.101 102.502 222.949 102.554C222.801 102.602 222.669 102.672 222.553 102.764C222.437 102.852 222.339 102.956 222.259 103.076C222.179 103.196 222.119 103.328 222.079 103.472C222.011 103.656 221.923 103.778 221.815 103.838C221.707 103.898 221.551 103.912 221.347 103.88L220.567 103.742C220.627 103.326 220.743 102.962 220.915 102.65C221.087 102.334 221.301 102.072 221.557 101.864C221.817 101.652 222.113 101.494 222.445 101.39C222.781 101.282 223.141 101.228 223.525 101.228C223.925 101.228 224.291 101.288 224.623 101.408C224.955 101.524 225.239 101.69 225.475 101.906C225.711 102.122 225.895 102.382 226.027 102.686C226.159 102.99 226.225 103.328 226.225 103.7C226.225 104.02 226.177 104.316 226.081 104.588C225.989 104.86 225.863 105.12 225.703 105.368C225.547 105.616 225.363 105.856 225.151 106.088C224.939 106.32 224.717 106.556 224.485 106.796L222.529 108.794C222.717 108.738 222.903 108.696 223.087 108.668C223.275 108.636 223.453 108.62 223.621 108.62H225.847ZM227.438 109.184C227.438 109.06 227.46 108.942 227.504 108.83C227.552 108.718 227.616 108.622 227.696 108.542C227.776 108.462 227.872 108.398 227.984 108.35C228.096 108.302 228.216 108.278 228.344 108.278C228.472 108.278 228.59 108.302 228.698 108.35C228.81 108.398 228.906 108.462 228.986 108.542C229.07 108.622 229.136 108.718 229.184 108.83C229.232 108.942 229.256 109.06 229.256 109.184C229.256 109.312 229.232 109.432 229.184 109.544C229.136 109.652 229.07 109.746 228.986 109.826C228.906 109.906 228.81 109.968 228.698 110.012C228.59 110.06 228.472 110.084 228.344 110.084C228.216 110.084 228.096 110.06 227.984 110.012C227.872 109.968 227.776 109.906 227.696 109.826C227.616 109.746 227.552 109.652 227.504 109.544C227.46 109.432 227.438 109.312 227.438 109.184ZM234.042 106.73V103.892C234.042 103.624 234.06 103.328 234.096 103.004L231.402 106.73H234.042ZM236.424 106.73V107.588C236.424 107.668 236.398 107.738 236.346 107.798C236.294 107.854 236.22 107.882 236.124 107.882H235.332V110H234.042V107.882H230.382C230.282 107.882 230.194 107.852 230.118 107.792C230.042 107.728 229.994 107.65 229.974 107.558L229.818 106.808L233.928 101.318H235.332V106.73H236.424ZM237.378 103.742C237.438 103.326 237.554 102.962 237.726 102.65C237.898 102.334 238.112 102.072 238.368 101.864C238.628 101.652 238.924 101.494 239.256 101.39C239.592 101.282 239.952 101.228 240.336 101.228C240.736 101.228 241.096 101.286 241.416 101.402C241.74 101.514 242.016 101.672 242.244 101.876C242.472 102.076 242.646 102.312 242.766 102.584C242.89 102.856 242.952 103.15 242.952 103.466C242.952 103.742 242.92 103.986 242.856 104.198C242.796 104.406 242.708 104.588 242.592 104.744C242.476 104.9 242.332 105.032 242.16 105.14C241.988 105.248 241.794 105.338 241.578 105.41C242.098 105.574 242.486 105.824 242.742 106.16C242.998 106.496 243.126 106.918 243.126 107.426C243.126 107.858 243.046 108.24 242.886 108.572C242.726 108.904 242.51 109.184 242.238 109.412C241.966 109.636 241.65 109.806 241.29 109.922C240.934 110.038 240.556 110.096 240.156 110.096C239.72 110.096 239.34 110.046 239.016 109.946C238.692 109.846 238.41 109.698 238.17 109.502C237.93 109.306 237.726 109.066 237.558 108.782C237.39 108.498 237.246 108.17 237.126 107.798L237.78 107.528C237.952 107.456 238.112 107.438 238.26 107.474C238.412 107.506 238.522 107.586 238.59 107.714C238.662 107.854 238.74 107.992 238.824 108.128C238.912 108.264 239.016 108.386 239.136 108.494C239.256 108.598 239.396 108.684 239.556 108.752C239.72 108.816 239.914 108.848 240.138 108.848C240.39 108.848 240.61 108.808 240.798 108.728C240.986 108.644 241.142 108.536 241.266 108.404C241.394 108.272 241.488 108.126 241.548 107.966C241.612 107.802 241.644 107.638 241.644 107.474C241.644 107.266 241.622 107.078 241.578 106.91C241.534 106.738 241.442 106.592 241.302 106.472C241.162 106.352 240.96 106.258 240.696 106.19C240.436 106.122 240.086 106.088 239.646 106.088V105.032C240.01 105.028 240.312 104.994 240.552 104.93C240.792 104.866 240.982 104.778 241.122 104.666C241.266 104.55 241.366 104.412 241.422 104.252C241.478 104.092 241.506 103.916 241.506 103.724C241.506 103.316 241.392 103.006 241.164 102.794C240.936 102.582 240.632 102.476 240.252 102.476C240.076 102.476 239.914 102.502 239.766 102.554C239.618 102.602 239.484 102.672 239.364 102.764C239.248 102.852 239.15 102.956 239.07 103.076C238.99 103.196 238.93 103.328 238.89 103.472C238.822 103.656 238.732 103.778 238.62 103.838C238.512 103.898 238.358 103.912 238.158 103.88L237.378 103.742ZM246.127 104.474C246.319 104.434 246.503 104.406 246.679 104.39C246.855 104.37 247.025 104.36 247.189 104.36C247.645 104.36 248.047 104.428 248.395 104.564C248.743 104.7 249.035 104.888 249.271 105.128C249.507 105.368 249.685 105.65 249.805 105.974C249.925 106.294 249.985 106.64 249.985 107.012C249.985 107.472 249.903 107.892 249.739 108.272C249.579 108.652 249.355 108.978 249.067 109.25C248.779 109.518 248.437 109.726 248.041 109.874C247.649 110.022 247.221 110.096 246.757 110.096C246.485 110.096 246.227 110.068 245.983 110.012C245.739 109.956 245.509 109.882 245.293 109.79C245.081 109.694 244.883 109.586 244.699 109.466C244.519 109.342 244.357 109.212 244.213 109.076L244.669 108.446C244.765 108.31 244.891 108.242 245.047 108.242C245.147 108.242 245.249 108.274 245.353 108.338C245.457 108.402 245.575 108.472 245.707 108.548C245.843 108.624 246.001 108.694 246.181 108.758C246.365 108.822 246.585 108.854 246.841 108.854C247.113 108.854 247.353 108.81 247.561 108.722C247.769 108.634 247.941 108.512 248.077 108.356C248.217 108.196 248.321 108.008 248.389 107.792C248.461 107.572 248.497 107.334 248.497 107.078C248.497 106.606 248.359 106.238 248.083 105.974C247.811 105.706 247.407 105.572 246.871 105.572C246.459 105.572 246.037 105.648 245.605 105.8L244.681 105.536L245.401 101.324H249.685V101.954C249.685 102.166 249.619 102.338 249.487 102.47C249.355 102.602 249.131 102.668 248.815 102.668H246.433L246.127 104.474Z" fill="#0D465B"/>
<path d="M163.912 102.38H161.128V110H159.97V102.38H157.18V101.402H163.912V102.38ZM168.68 103.922V110H168.044C167.892 110 167.796 109.926 167.756 109.778L167.672 109.124C167.408 109.416 167.112 109.652 166.784 109.832C166.456 110.008 166.08 110.096 165.656 110.096C165.324 110.096 165.03 110.042 164.774 109.934C164.522 109.822 164.31 109.666 164.138 109.466C163.966 109.266 163.836 109.024 163.748 108.74C163.664 108.456 163.622 108.142 163.622 107.798V103.922H164.69V107.798C164.69 108.258 164.794 108.614 165.002 108.866C165.214 109.118 165.536 109.244 165.968 109.244C166.284 109.244 166.578 109.17 166.85 109.022C167.126 108.87 167.38 108.662 167.612 108.398V103.922H168.68ZM172.239 110.096C171.759 110.096 171.389 109.962 171.129 109.694C170.873 109.426 170.745 109.04 170.745 108.536V104.816H170.013C169.949 104.816 169.895 104.798 169.851 104.762C169.807 104.722 169.785 104.662 169.785 104.582V104.156L170.781 104.03L171.027 102.152C171.039 102.092 171.065 102.044 171.105 102.008C171.149 101.968 171.205 101.948 171.273 101.948H171.813V104.042H173.571V104.816H171.813V108.464C171.813 108.72 171.875 108.91 171.999 109.034C172.123 109.158 172.283 109.22 172.479 109.22C172.591 109.22 172.687 109.206 172.767 109.178C172.851 109.146 172.923 109.112 172.983 109.076C173.043 109.04 173.093 109.008 173.133 108.98C173.177 108.948 173.215 108.932 173.247 108.932C173.303 108.932 173.353 108.966 173.397 109.034L173.709 109.544C173.525 109.716 173.303 109.852 173.043 109.952C172.783 110.048 172.515 110.096 172.239 110.096ZM178.707 106.298C178.707 106.05 178.671 105.824 178.599 105.62C178.531 105.412 178.429 105.234 178.293 105.086C178.161 104.934 177.999 104.818 177.807 104.738C177.615 104.654 177.397 104.612 177.153 104.612C176.641 104.612 176.235 104.762 175.935 105.062C175.639 105.358 175.455 105.77 175.383 106.298H178.707ZM179.571 109.148C179.439 109.308 179.281 109.448 179.097 109.568C178.913 109.684 178.715 109.78 178.503 109.856C178.295 109.932 178.079 109.988 177.855 110.024C177.631 110.064 177.409 110.084 177.189 110.084C176.769 110.084 176.381 110.014 176.025 109.874C175.673 109.73 175.367 109.522 175.107 109.25C174.851 108.974 174.651 108.634 174.507 108.23C174.363 107.826 174.291 107.362 174.291 106.838C174.291 106.414 174.355 106.018 174.483 105.65C174.615 105.282 174.803 104.964 175.047 104.696C175.291 104.424 175.589 104.212 175.941 104.06C176.293 103.904 176.689 103.826 177.129 103.826C177.493 103.826 177.829 103.888 178.137 104.012C178.449 104.132 178.717 104.308 178.941 104.54C179.169 104.768 179.347 105.052 179.475 105.392C179.603 105.728 179.667 106.112 179.667 106.544C179.667 106.712 179.649 106.824 179.613 106.88C179.577 106.936 179.509 106.964 179.409 106.964H175.347C175.359 107.348 175.411 107.682 175.503 107.966C175.599 108.25 175.731 108.488 175.899 108.68C176.067 108.868 176.267 109.01 176.499 109.106C176.731 109.198 176.991 109.244 177.279 109.244C177.547 109.244 177.777 109.214 177.969 109.154C178.165 109.09 178.333 109.022 178.473 108.95C178.613 108.878 178.729 108.812 178.821 108.752C178.917 108.688 178.999 108.656 179.067 108.656C179.155 108.656 179.223 108.69 179.271 108.758L179.571 109.148ZM185.977 103.922V110H185.341C185.189 110 185.093 109.926 185.053 109.778L184.969 109.124C184.705 109.416 184.409 109.652 184.081 109.832C183.753 110.008 183.377 110.096 182.953 110.096C182.621 110.096 182.327 110.042 182.071 109.934C181.819 109.822 181.607 109.666 181.435 109.466C181.263 109.266 181.133 109.024 181.045 108.74C180.961 108.456 180.919 108.142 180.919 107.798V103.922H181.987V107.798C181.987 108.258 182.091 108.614 182.299 108.866C182.511 109.118 182.833 109.244 183.265 109.244C183.581 109.244 183.875 109.17 184.147 109.022C184.423 108.87 184.677 108.662 184.909 108.398V103.922H185.977ZM188.684 105.14C188.876 104.724 189.112 104.4 189.392 104.168C189.672 103.932 190.014 103.814 190.418 103.814C190.546 103.814 190.668 103.828 190.784 103.856C190.904 103.884 191.01 103.928 191.102 103.988L191.024 104.786C191 104.886 190.94 104.936 190.844 104.936C190.788 104.936 190.706 104.924 190.598 104.9C190.49 104.876 190.368 104.864 190.232 104.864C190.04 104.864 189.868 104.892 189.716 104.948C189.568 105.004 189.434 105.088 189.314 105.2C189.198 105.308 189.092 105.444 188.996 105.608C188.904 105.768 188.82 105.952 188.744 106.16V110H187.67V103.922H188.282C188.398 103.922 188.478 103.944 188.522 103.988C188.566 104.032 188.596 104.108 188.612 104.216L188.684 105.14ZM195.546 104.924C195.498 105.012 195.424 105.056 195.324 105.056C195.264 105.056 195.196 105.034 195.12 104.99C195.044 104.946 194.95 104.898 194.838 104.846C194.73 104.79 194.6 104.74 194.448 104.696C194.296 104.648 194.116 104.624 193.908 104.624C193.728 104.624 193.566 104.648 193.422 104.696C193.278 104.74 193.154 104.802 193.05 104.882C192.95 104.962 192.872 105.056 192.816 105.164C192.764 105.268 192.738 105.382 192.738 105.506C192.738 105.662 192.782 105.792 192.87 105.896C192.962 106 193.082 106.09 193.23 106.166C193.378 106.242 193.546 106.31 193.734 106.37C193.922 106.426 194.114 106.488 194.31 106.556C194.51 106.62 194.704 106.692 194.892 106.772C195.08 106.852 195.248 106.952 195.396 107.072C195.544 107.192 195.662 107.34 195.75 107.516C195.842 107.688 195.888 107.896 195.888 108.14C195.888 108.42 195.838 108.68 195.738 108.92C195.638 109.156 195.49 109.362 195.294 109.538C195.098 109.71 194.858 109.846 194.574 109.946C194.29 110.046 193.962 110.096 193.59 110.096C193.166 110.096 192.782 110.028 192.438 109.892C192.094 109.752 191.802 109.574 191.562 109.358L191.814 108.95C191.846 108.898 191.884 108.858 191.928 108.83C191.972 108.802 192.028 108.788 192.096 108.788C192.168 108.788 192.244 108.816 192.324 108.872C192.404 108.928 192.5 108.99 192.612 109.058C192.728 109.126 192.868 109.188 193.032 109.244C193.196 109.3 193.4 109.328 193.644 109.328C193.852 109.328 194.034 109.302 194.19 109.25C194.346 109.194 194.476 109.12 194.58 109.028C194.684 108.936 194.76 108.83 194.808 108.71C194.86 108.59 194.886 108.462 194.886 108.326C194.886 108.158 194.84 108.02 194.748 107.912C194.66 107.8 194.542 107.706 194.394 107.63C194.246 107.55 194.076 107.482 193.884 107.426C193.696 107.366 193.502 107.304 193.302 107.24C193.106 107.176 192.912 107.104 192.72 107.024C192.532 106.94 192.364 106.836 192.216 106.712C192.068 106.588 191.948 106.436 191.856 106.256C191.768 106.072 191.724 105.85 191.724 105.59C191.724 105.358 191.772 105.136 191.868 104.924C191.964 104.708 192.104 104.52 192.288 104.36C192.472 104.196 192.698 104.066 192.966 103.97C193.234 103.874 193.54 103.826 193.884 103.826C194.284 103.826 194.642 103.89 194.958 104.018C195.278 104.142 195.554 104.314 195.786 104.534L195.546 104.924Z" fill="#8497AB"/>
<path d="M162.983 58.4315C163.25 58.4315 163.513 58.379 163.76 58.2771C164.006 58.1751 164.229 58.0257 164.418 57.8374C164.606 57.649 164.755 57.4254 164.857 57.1793C164.959 56.9332 165.012 56.6694 165.012 56.403C165.012 56.1366 164.959 55.8728 164.857 55.6267C164.755 55.3806 164.606 55.157 164.418 54.9686C164.229 54.7803 164.006 54.6309 163.76 54.5289C163.513 54.427 163.25 54.3745 162.983 54.3745C162.445 54.3745 161.929 54.5882 161.549 54.9686C161.169 55.3491 160.955 55.865 160.955 56.403C160.955 56.941 161.169 57.4569 161.549 57.8374C161.929 58.2178 162.445 58.4315 162.983 58.4315Z" stroke="#FFCD3C" stroke-width="1.5"/>
<path d="M157.535 55.2195C158.816 49.5892 167.157 49.5957 168.432 55.226C169.179 58.5288 167.125 61.3245 165.324 63.0539C164.695 63.6608 163.854 64 162.98 64C162.106 64 161.266 63.6608 160.636 63.0539C158.842 61.3245 156.787 58.5223 157.535 55.2195Z" stroke="#FFCD3C" stroke-width="1.5"/>
<defs>
<filter id="filter0_d_8_7524" x="116" y="29" width="186" height="149" filterUnits="userSpaceOnUse" color-interpolation-filters="sRGB">
<feFlood flood-opacity="0" result="BackgroundImageFix"/>
<feColorMatrix in="SourceAlpha" type="matrix" values="0 0 0 0 0 0 0 0 0 0 0 0 0 0 0 0 0 0 127 0" result="hardAlpha"/>
<feOffset dy="20"/>
<feGaussianBlur stdDeviation="15"/>
<feColorMatrix type="matrix" values="0 0 0 0 0 0 0 0 0 0 0 0 0 0 0 0 0 0 0.16 0"/>
<feBlend mode="normal" in2="BackgroundImageFix" result="effect1_dropShadow_8_7524"/>
<feBlend mode="normal" in="SourceGraphic" in2="effect1_dropShadow_8_7524" result="shape"/>
</filter>
</defs>
</svg>
