<svg width="18" height="18" viewBox="0 0 18 18" fill="none" xmlns="http://www.w3.org/2000/svg">
<path d="M4.19922 7.4V5.8C4.19922 3.152 4.99922 1 8.99922 1C12.9992 1 13.7992 3.152 13.7992 5.8V7.4M8.99922 14.2C9.52965 14.2 10.0384 13.9893 10.4134 13.6142C10.7885 13.2391 10.9992 12.7304 10.9992 12.2C10.9992 11.6696 10.7885 11.1609 10.4134 10.7858C10.0384 10.4107 9.52965 10.2 8.99922 10.2C8.46879 10.2 7.96008 10.4107 7.585 10.7858C7.20993 11.1609 6.99922 11.6696 6.99922 12.2C6.99922 12.7304 7.20993 13.2391 7.585 13.6142C7.96008 13.9893 8.46879 14.2 8.99922 14.2Z" stroke="#8497AB" stroke-width="1.5" stroke-linecap="round" stroke-linejoin="round"/>
<path d="M13 17.0003H5C1.8 17.0003 1 16.2003 1 13.0003V11.4003C1 8.20027 1.8 7.40027 5 7.40027H13C16.2 7.40027 17 8.20027 17 11.4003V13.0003C17 16.2003 16.2 17.0003 13 17.0003Z" stroke="#8497AB" stroke-width="1.5" stroke-linecap="round" stroke-linejoin="round"/>
</svg>
