<svg width="24" height="24" viewBox="0 0 24 24" fill="none" xmlns="http://www.w3.org/2000/svg">
<path d="M14.2263 2.24009C8.84662 1.00356 3.47691 4.36615 2.24038 9.74587C1.00386 15.1256 4.36645 20.4953 9.74617 21.7318C15.1259 22.9684 20.4956 19.6058 21.7321 14.226C21.9662 13.2075 22.0355 12.1894 21.9574 11.1996C21.8995 10.4647 21.7603 9.74535 21.547 9.05312" stroke="#0D465B" stroke-width="1.5" stroke-linecap="round" stroke-linejoin="round"/>
<path d="M16.835 5.71918C16.835 6.45159 17.4013 7.04055 18.0959 7.04055H19.5155C20.1195 7.04055 20.6103 6.5271 20.6103 5.88529C20.6103 5.19818 20.3083 4.94901 19.8628 4.79044L17.59 3.99762C17.1445 3.83906 16.8425 3.59744 16.8425 2.90277C16.8425 2.26852 17.3333 1.74752 17.9374 1.74752H19.3569C20.0516 1.74752 20.6179 2.33647 20.6179 3.06889M18.7226 1V7.79562" stroke="#0D465B" stroke-width="1.1326" stroke-linecap="round" stroke-linejoin="round"/>
<path d="M15.7099 15.1803L12.6099 13.3303C12.0699 13.0103 11.6299 12.2403 11.6299 11.6103V7.51025" stroke="#0D465B" stroke-width="1.5" stroke-linecap="round" stroke-linejoin="round"/>
</svg>
