<svg width="31" height="31" viewBox="0 0 31 31" fill="none" xmlns="http://www.w3.org/2000/svg">
<rect width="31" height="31" rx="15.5" fill="#FECA36"/>
<mask id="mask0_518_11188" style="mask-type:luminance" maskUnits="userSpaceOnUse" x="0" y="0" width="31" height="31">
<rect width="31" height="31" rx="15.5" fill="white"/>
</mask>
<g mask="url(#mask0_518_11188)">
<rect width="31" height="31" fill="white"/>
<path d="M20.1172 18.2252C19.5103 17.4682 18.3363 16.6605 16.5943 15.8014C14.8523 14.9427 13.7182 14.2138 13.1917 13.6158C12.8133 13.179 12.6243 12.7072 12.6243 12.2008C12.6243 11.626 12.8671 11.1165 13.3525 10.6738C13.4107 10.6209 13.4716 10.5711 13.5347 10.5244C13.9975 10.1813 14.5903 10.009 15.3145 10.009C15.5084 10.009 15.695 10.022 15.8756 10.0465C16.5791 10.1421 17.1833 10.4223 17.6875 10.8888C18.3214 11.4754 18.6787 12.2748 18.7588 13.2864L19.9938 13.3894C20.1426 11.695 20.2967 10.384 20.4572 9.45653C19.6167 9.11716 18.8087 8.87308 18.0328 8.72335C17.4221 8.60579 16.8316 8.54671 16.2614 8.54671C16.0647 8.54671 15.8729 8.55351 15.6845 8.56434L15.2207 8.86596L15.1762 8.89504L15.123 8.89876L13.4509 9.02281C12.8313 9.26318 12.28 9.59419 11.798 10.0168C11.6207 10.1724 11.459 10.3314 11.3098 10.4935C10.5188 11.3526 10.1216 12.3023 10.1216 13.3442C10.1216 14.2157 10.4081 14.9946 10.9816 15.6823C11.5431 16.3703 12.6726 17.1385 14.37 17.9867C16.0665 18.8356 17.1613 19.5462 17.6544 20.1204C18.1361 20.6942 18.3774 21.3201 18.3774 21.9972C18.3774 22.6976 18.1299 23.2743 17.6362 23.7275C17.1425 24.181 16.4467 24.4071 15.5508 24.4071C14.5513 24.4071 13.7098 24.1163 13.0265 23.5332C12.3431 22.951 11.8345 21.9855 11.5016 20.6373H10.3313C10.3313 21.9731 10.2395 23.446 10.0566 25.0558C11.7621 25.6851 13.3188 26 14.7264 26C16.6719 26 18.2057 25.4896 19.3274 24.4696C20.4486 23.4487 21.01 22.2391 21.01 20.8393C21.01 19.8648 20.7124 18.9931 20.1172 18.2252Z" fill="#FECA38"/>
<path d="M15.2198 8.86588L15.175 8.89496L15.1221 8.89898L10.9727 9.20617L11.3126 10.5073C14.0733 10.7174 16.3474 10.3087 18.0325 8.72264L17.6214 7.30424L15.2198 8.86588Z" fill="black"/>
<path d="M8.97259 9.14874L10.9212 9.00211L15.1087 8.69213L17.5631 7.09616L20.1713 5.39995L20.0949 4.99996L13.0592 5.72478L7.58203 8.84217L7.71196 9.24L8.76501 9.1639V9.95802C8.54908 10.0106 8.39224 10.2092 8.4009 10.44C8.4077 10.6333 8.52928 10.7948 8.69757 10.8638C8.63725 11.3934 8.3118 13.2521 8.37275 13.3739C8.3944 13.4176 8.42967 13.4473 8.46989 13.4556C8.47917 13.4575 8.48876 13.4584 8.49835 13.4581C8.52743 13.4568 8.55651 13.4451 8.5828 13.4231C8.61064 13.3999 8.64251 13.2409 8.67097 13.0213C8.66695 13.2759 8.6722 13.4522 8.69138 13.4862C8.71551 13.5286 8.75233 13.5562 8.79285 13.5626C8.80028 13.5636 8.8077 13.5642 8.81513 13.5639C8.84637 13.5626 8.87731 13.549 8.90391 13.5243C8.95681 13.4751 8.98156 13.4077 8.97537 12.917C9.00507 13.4067 9.03477 13.4723 9.09138 13.5175C9.11953 13.5401 9.1514 13.5515 9.18264 13.5503C9.19007 13.55 9.19749 13.549 9.20461 13.5475C9.24451 13.5382 9.27947 13.5079 9.3002 13.464C9.31752 13.4278 9.30886 13.2446 9.28504 12.9823C9.33052 13.222 9.3763 13.3913 9.4094 13.4154C9.43724 13.4352 9.46725 13.4448 9.49633 13.4439C9.50592 13.4432 9.5152 13.442 9.52448 13.4392C9.56377 13.4278 9.60739 13.3987 9.61543 13.3507C9.64018 13.2029 9.19997 11.2951 9.10005 10.8443C9.25751 10.7614 9.36331 10.5947 9.35619 10.405C9.34784 10.1795 9.1845 9.99762 8.97259 9.95493V9.14874Z" fill="black"/>
</g>
</svg>
