<svg width="34" height="52" viewBox="0 0 34 52" fill="none" xmlns="http://www.w3.org/2000/svg">
<path d="M31.1192 32.135C29.6444 30.2957 26.7918 28.333 22.5591 26.2456C18.3264 24.1589 15.5707 22.388 14.2914 20.935C13.372 19.8736 12.9128 18.7273 12.9128 17.4968C12.9128 16.1002 13.5028 14.8622 14.6822 13.7865C14.8235 13.658 14.9716 13.537 15.125 13.4235C16.2495 12.5898 17.6897 12.1712 19.4494 12.1712C19.9207 12.1712 20.3739 12.2027 20.8129 12.2621C22.5223 12.4944 23.9903 13.1754 25.2155 14.3089C26.7557 15.7341 27.6239 17.6765 27.8186 20.1345L30.8193 20.3848C31.1809 16.2678 31.5552 13.0822 31.9453 10.8287C29.903 10.0041 27.9396 9.41098 26.0544 9.04717C24.5706 8.76153 23.1356 8.61796 21.7503 8.61796C21.2722 8.61796 20.8062 8.6345 20.3484 8.66081L19.2216 9.39369L19.1134 9.46435L18.9841 9.47337L14.9213 9.7748C13.4156 10.3589 12.0762 11.1632 10.905 12.1899C10.4743 12.568 10.0812 12.9544 9.71888 13.3483C7.79684 15.4357 6.83168 17.7434 6.83168 20.275C6.83168 22.3925 7.52774 24.2852 8.92135 25.9562C10.2857 27.6279 13.03 29.4944 17.1545 31.5555C21.2767 33.6181 23.9369 35.3447 25.1351 36.7398C26.3055 38.1342 26.8918 39.6548 26.8918 41.3003C26.8918 43.0021 26.2904 44.4032 25.0907 45.5044C23.8911 46.6064 22.2005 47.1558 20.0237 47.1558C17.595 47.1558 15.5504 46.4493 13.89 45.0323C12.2295 43.6177 10.9937 41.2717 10.1849 37.9959H7.34132C7.34132 41.2416 7.11807 44.8204 6.67383 48.7321C10.8178 50.261 14.6003 51.0262 18.0204 51.0262C22.7478 51.0262 26.4746 49.786 29.2002 47.3077C31.9243 44.8271 33.2886 41.8881 33.2886 38.4867C33.2886 36.1189 32.5654 34.0007 31.1192 32.135Z" fill="#FECA38"/>
<path d="M19.2214 9.39358L19.1124 9.46424L18.9839 9.47401L8.90161 10.2204L9.72771 13.382C16.4357 13.8924 21.9613 12.8994 26.0557 9.04556L25.0567 5.5991L19.2214 9.39358Z" fill="black"/>
<path d="M4.03676 10.0808L8.77159 9.72449L18.9463 8.9713L24.9102 5.09339L31.2476 0.971924L31.0619 1.70379e-06L13.9665 1.76119L0.657959 9.33587L0.973665 10.3025L3.53238 10.1176V12.0472C3.00771 12.175 2.62661 12.6575 2.64766 13.2183C2.66419 13.6881 2.9596 14.0805 3.36852 14.2481C3.22194 15.535 2.43117 20.0511 2.57925 20.3472C2.63187 20.4532 2.71756 20.5254 2.81528 20.5457C2.83783 20.5502 2.86113 20.5524 2.88444 20.5517C2.95509 20.5487 3.02575 20.5201 3.08964 20.4668C3.1573 20.4104 3.23472 20.024 3.30387 19.4903C3.2941 20.1089 3.30688 20.5374 3.35348 20.6201C3.41211 20.7231 3.50156 20.79 3.60003 20.8058C3.61808 20.808 3.63612 20.8095 3.65416 20.8088C3.73008 20.8058 3.80524 20.7727 3.86989 20.7125C3.99843 20.593 4.05856 20.4292 4.04353 19.237C4.11569 20.4269 4.18785 20.5863 4.32541 20.696C4.39381 20.7509 4.47123 20.7787 4.54715 20.7757C4.56519 20.7749 4.58323 20.7727 4.60052 20.7689C4.69749 20.7464 4.78243 20.6727 4.83279 20.566C4.87488 20.478 4.85384 20.033 4.79596 19.3956C4.90645 19.9782 5.0177 20.3893 5.09813 20.448C5.16578 20.4961 5.2387 20.5194 5.30936 20.5171C5.33266 20.5156 5.35521 20.5126 5.37776 20.5058C5.47322 20.478 5.57921 20.4074 5.59875 20.2909C5.65889 19.9316 4.58925 15.2959 4.34645 14.2007C4.72906 13.9993 4.98613 13.5941 4.96884 13.1334C4.94855 12.5854 4.55166 12.1434 4.03676 12.0397V10.0808Z" fill="black"/>
</svg>
