<svg width="134" height="284" viewBox="0 0 134 284" fill="none" xmlns="http://www.w3.org/2000/svg">
<path fill-rule="evenodd" clip-rule="evenodd" d="M50.5391 87.3872L66.5876 115.184C69.0566 119.46 74.5249 120.926 78.8014 118.457C83.0779 115.988 84.5431 110.519 82.0741 106.243L76.2405 96.1387C71.0117 87.0822 59.947 83.4958 50.5391 87.3872ZM25.4756 43.9759C58.8692 26.3502 100.5 38.1577 119.542 71.1387L125.375 81.2428C141.652 109.434 131.993 145.482 103.801 161.758C75.6103 178.034 39.5625 168.375 23.2864 140.184L17.0783 129.431C17.407 134.788 18.9494 140.152 21.8151 145.116L87.2225 258.405L43.9212 283.405L0 207.331C6.29425e-05 129.431 0.0861492 96.1387 0.0861585 0L25.4756 43.9759Z" fill="#005B88"/>
</svg>
