<svg width="140" height="457" viewBox="0 0 140 457" fill="none" xmlns="http://www.w3.org/2000/svg">
<circle cx="47.4443" cy="319.205" r="1.4507" fill="#D6A20E"/>
<circle cx="47.4443" cy="432.725" r="1.4507" fill="#D6A20E"/>
<circle cx="1.4507" cy="319.205" r="1.4507" fill="#D6A20E"/>
<circle cx="1.4507" cy="432.724" r="1.4507" fill="#D6A20E"/>
<circle cx="47.4443" cy="341.911" r="1.4507" fill="#D6A20E"/>
<circle cx="47.4443" cy="455.431" r="1.4507" fill="#D6A20E"/>
<circle cx="1.4507" cy="341.911" r="1.4507" fill="#D6A20E"/>
<circle cx="1.4507" cy="455.431" r="1.4507" fill="#D6A20E"/>
<circle cx="47.4443" cy="1.45097" r="1.4507" fill="#D6A20E"/>
<circle cx="1.4507" cy="1.45073" r="1.4507" fill="#D6A20E"/>
<circle cx="47.4443" cy="364.617" r="1.4507" fill="#D6A20E"/>
<circle cx="1.4507" cy="364.617" r="1.4507" fill="#D6A20E"/>
<circle cx="47.4443" cy="24.157" r="1.4507" fill="#D6A20E"/>
<circle cx="1.4507" cy="24.1568" r="1.4507" fill="#D6A20E"/>
<circle cx="47.4443" cy="46.8623" r="1.4507" fill="#D6A20E"/>
<circle cx="1.4507" cy="46.8621" r="1.4507" fill="#D6A20E"/>
<circle cx="47.4443" cy="69.5704" r="1.4507" fill="#D6A20E"/>
<circle cx="1.4507" cy="69.5701" r="1.4507" fill="#D6A20E"/>
<circle cx="47.4443" cy="92.2776" r="1.4507" fill="#D6A20E"/>
<circle cx="1.4507" cy="92.2774" r="1.4507" fill="#D6A20E"/>
<circle cx="47.4443" cy="114.984" r="1.4507" fill="#D6A20E"/>
<circle cx="1.4507" cy="114.984" r="1.4507" fill="#D6A20E"/>
<circle cx="47.4443" cy="137.69" r="1.4507" fill="#D6A20E"/>
<circle cx="1.4507" cy="137.69" r="1.4507" fill="#D6A20E"/>
<circle cx="47.4443" cy="160.397" r="1.4507" fill="#D6A20E"/>
<circle cx="1.4507" cy="160.397" r="1.4507" fill="#D6A20E"/>
<circle cx="47.4443" cy="183.105" r="1.4507" fill="#D6A20E"/>
<circle cx="1.4507" cy="183.104" r="1.4507" fill="#D6A20E"/>
<circle cx="47.4443" cy="205.811" r="1.4507" fill="#D6A20E"/>
<circle cx="1.4507" cy="205.811" r="1.4507" fill="#D6A20E"/>
<circle cx="47.4443" cy="228.517" r="1.4507" fill="#D6A20E"/>
<circle cx="1.4507" cy="228.517" r="1.4507" fill="#D6A20E"/>
<circle cx="47.4443" cy="251.225" r="1.4507" fill="#D6A20E"/>
<circle cx="1.4507" cy="251.224" r="1.4507" fill="#D6A20E"/>
<circle cx="47.4443" cy="273.931" r="1.4507" fill="#D6A20E"/>
<circle cx="47.4443" cy="387.451" r="1.4507" fill="#D6A20E"/>
<circle cx="1.4507" cy="273.931" r="1.4507" fill="#D6A20E"/>
<circle cx="1.4507" cy="387.451" r="1.4507" fill="#D6A20E"/>
<circle cx="47.4443" cy="296.638" r="1.4507" fill="#D6A20E"/>
<circle cx="47.4443" cy="410.158" r="1.4507" fill="#D6A20E"/>
<circle cx="1.4507" cy="296.638" r="1.4507" fill="#D6A20E"/>
<circle cx="1.4507" cy="410.157" r="1.4507" fill="#D6A20E"/>
<circle cx="70.1519" cy="319.204" r="1.4507" fill="#D6A20E"/>
<circle cx="70.1519" cy="432.724" r="1.4507" fill="#D6A20E"/>
<circle cx="24.1582" cy="319.204" r="1.4507" fill="#D6A20E"/>
<circle cx="24.1582" cy="432.724" r="1.4507" fill="#D6A20E"/>
<circle cx="70.1519" cy="341.911" r="1.4507" fill="#D6A20E"/>
<circle cx="70.1519" cy="455.431" r="1.4507" fill="#D6A20E"/>
<circle cx="24.1582" cy="341.911" r="1.4507" fill="#D6A20E"/>
<circle cx="24.1582" cy="455.431" r="1.4507" fill="#D6A20E"/>
<circle cx="70.1519" cy="1.45097" r="1.4507" fill="#D6A20E"/>
<circle cx="24.1582" cy="1.45073" r="1.4507" fill="#D6A20E"/>
<circle cx="70.1519" cy="364.617" r="1.4507" fill="#D6A20E"/>
<circle cx="24.1582" cy="364.616" r="1.4507" fill="#D6A20E"/>
<circle cx="70.1519" cy="24.157" r="1.4507" fill="#D6A20E"/>
<circle cx="24.1582" cy="24.1568" r="1.4507" fill="#D6A20E"/>
<circle cx="70.1519" cy="46.8623" r="1.4507" fill="#D6A20E"/>
<circle cx="24.1582" cy="46.8621" r="1.4507" fill="#D6A20E"/>
<circle cx="70.1519" cy="69.5704" r="1.4507" fill="#D6A20E"/>
<circle cx="24.1582" cy="69.5701" r="1.4507" fill="#D6A20E"/>
<circle cx="70.1519" cy="92.2776" r="1.4507" fill="#D6A20E"/>
<circle cx="24.1582" cy="92.2774" r="1.4507" fill="#D6A20E"/>
<circle cx="70.1519" cy="114.984" r="1.4507" fill="#D6A20E"/>
<circle cx="24.1582" cy="114.984" r="1.4507" fill="#D6A20E"/>
<circle cx="70.1519" cy="137.69" r="1.4507" fill="#D6A20E"/>
<circle cx="24.1582" cy="137.69" r="1.4507" fill="#D6A20E"/>
<circle cx="70.1519" cy="160.397" r="1.4507" fill="#D6A20E"/>
<circle cx="24.1582" cy="160.397" r="1.4507" fill="#D6A20E"/>
<circle cx="70.1519" cy="183.105" r="1.4507" fill="#D6A20E"/>
<circle cx="24.1582" cy="183.104" r="1.4507" fill="#D6A20E"/>
<circle cx="70.1519" cy="205.811" r="1.4507" fill="#D6A20E"/>
<circle cx="24.1582" cy="205.811" r="1.4507" fill="#D6A20E"/>
<circle cx="70.1519" cy="228.517" r="1.4507" fill="#D6A20E"/>
<circle cx="24.1582" cy="228.517" r="1.4507" fill="#D6A20E"/>
<circle cx="70.1519" cy="251.225" r="1.4507" fill="#D6A20E"/>
<circle cx="24.1582" cy="251.224" r="1.4507" fill="#D6A20E"/>
<circle cx="70.1519" cy="273.931" r="1.4507" fill="#D6A20E"/>
<circle cx="70.1519" cy="387.451" r="1.4507" fill="#D6A20E"/>
<circle cx="24.1582" cy="273.931" r="1.4507" fill="#D6A20E"/>
<circle cx="24.1582" cy="387.451" r="1.4507" fill="#D6A20E"/>
<circle cx="70.1519" cy="296.638" r="1.4507" fill="#D6A20E"/>
<circle cx="70.1519" cy="410.158" r="1.4507" fill="#D6A20E"/>
<circle cx="24.1582" cy="296.638" r="1.4507" fill="#D6A20E"/>
<circle cx="24.1582" cy="410.157" r="1.4507" fill="#D6A20E"/>
<circle cx="92.8585" cy="319.204" r="1.4507" fill="#D6A20E"/>
<circle cx="92.8585" cy="432.724" r="1.4507" fill="#D6A20E"/>
<circle cx="92.8585" cy="341.911" r="1.4507" fill="#D6A20E"/>
<circle cx="92.8585" cy="455.431" r="1.4507" fill="#D6A20E"/>
<circle cx="92.8585" cy="1.45096" r="1.4507" fill="#D6A20E"/>
<circle cx="92.8585" cy="364.617" r="1.4507" fill="#D6A20E"/>
<circle cx="92.8585" cy="24.1568" r="1.4507" fill="#D6A20E"/>
<circle cx="92.8585" cy="46.8623" r="1.4507" fill="#D6A20E"/>
<circle cx="92.8585" cy="69.5704" r="1.4507" fill="#D6A20E"/>
<circle cx="92.8585" cy="92.2776" r="1.4507" fill="#D6A20E"/>
<circle cx="92.8585" cy="114.984" r="1.4507" fill="#D6A20E"/>
<circle cx="92.8585" cy="137.69" r="1.4507" fill="#D6A20E"/>
<circle cx="92.8585" cy="160.397" r="1.4507" fill="#D6A20E"/>
<circle cx="92.8585" cy="183.105" r="1.4507" fill="#D6A20E"/>
<circle cx="92.8585" cy="205.811" r="1.4507" fill="#D6A20E"/>
<circle cx="92.8585" cy="228.517" r="1.4507" fill="#D6A20E"/>
<circle cx="92.8585" cy="251.224" r="1.4507" fill="#D6A20E"/>
<circle cx="92.8585" cy="273.931" r="1.4507" fill="#D6A20E"/>
<circle cx="92.8585" cy="387.451" r="1.4507" fill="#D6A20E"/>
<circle cx="92.8585" cy="296.638" r="1.4507" fill="#D6A20E"/>
<circle cx="92.8585" cy="410.158" r="1.4507" fill="#D6A20E"/>
<circle cx="115.566" cy="319.204" r="1.4507" fill="#D6A20E"/>
<circle cx="115.566" cy="432.724" r="1.4507" fill="#D6A20E"/>
<circle cx="115.566" cy="341.911" r="1.4507" fill="#D6A20E"/>
<circle cx="115.566" cy="455.431" r="1.4507" fill="#D6A20E"/>
<circle cx="115.566" cy="1.45096" r="1.4507" fill="#D6A20E"/>
<circle cx="115.566" cy="364.617" r="1.4507" fill="#D6A20E"/>
<circle cx="115.566" cy="24.1568" r="1.4507" fill="#D6A20E"/>
<circle cx="115.566" cy="46.8623" r="1.4507" fill="#D6A20E"/>
<circle cx="115.566" cy="69.5704" r="1.4507" fill="#D6A20E"/>
<circle cx="115.566" cy="92.2776" r="1.4507" fill="#D6A20E"/>
<circle cx="115.566" cy="114.984" r="1.4507" fill="#D6A20E"/>
<circle cx="115.566" cy="137.69" r="1.4507" fill="#D6A20E"/>
<circle cx="115.566" cy="160.397" r="1.4507" fill="#D6A20E"/>
<circle cx="115.566" cy="183.105" r="1.4507" fill="#D6A20E"/>
<circle cx="115.566" cy="205.811" r="1.4507" fill="#D6A20E"/>
<circle cx="115.566" cy="228.517" r="1.4507" fill="#D6A20E"/>
<circle cx="115.566" cy="251.224" r="1.4507" fill="#D6A20E"/>
<circle cx="115.566" cy="273.931" r="1.4507" fill="#D6A20E"/>
<circle cx="115.566" cy="387.451" r="1.4507" fill="#D6A20E"/>
<circle cx="115.566" cy="296.638" r="1.4507" fill="#D6A20E"/>
<circle cx="115.566" cy="410.158" r="1.4507" fill="#D6A20E"/>
<circle cx="138.271" cy="319.204" r="1.4507" fill="#D6A20E"/>
<circle cx="138.271" cy="432.724" r="1.4507" fill="#D6A20E"/>
<circle cx="138.271" cy="341.911" r="1.4507" fill="#D6A20E"/>
<circle cx="138.271" cy="455.431" r="1.4507" fill="#D6A20E"/>
<circle cx="138.271" cy="1.45096" r="1.4507" fill="#D6A20E"/>
<circle cx="138.271" cy="364.617" r="1.4507" fill="#D6A20E"/>
<circle cx="138.271" cy="24.1568" r="1.4507" fill="#D6A20E"/>
<circle cx="138.271" cy="46.8623" r="1.4507" fill="#D6A20E"/>
<circle cx="138.271" cy="69.5704" r="1.4507" fill="#D6A20E"/>
<circle cx="138.271" cy="92.2776" r="1.4507" fill="#D6A20E"/>
<circle cx="138.271" cy="114.984" r="1.4507" fill="#D6A20E"/>
<circle cx="138.271" cy="137.69" r="1.4507" fill="#D6A20E"/>
<circle cx="138.271" cy="160.397" r="1.4507" fill="#D6A20E"/>
<circle cx="138.271" cy="183.105" r="1.4507" fill="#D6A20E"/>
<circle cx="138.271" cy="205.811" r="1.4507" fill="#D6A20E"/>
<circle cx="138.271" cy="228.517" r="1.4507" fill="#D6A20E"/>
<circle cx="138.271" cy="251.224" r="1.4507" fill="#D6A20E"/>
<circle cx="138.271" cy="273.931" r="1.4507" fill="#D6A20E"/>
<circle cx="138.271" cy="387.451" r="1.4507" fill="#D6A20E"/>
<circle cx="138.271" cy="296.638" r="1.4507" fill="#D6A20E"/>
<circle cx="138.271" cy="410.158" r="1.4507" fill="#D6A20E"/>
</svg>
