<svg width="199" height="167" viewBox="0 0 199 167" fill="none" xmlns="http://www.w3.org/2000/svg">
<path fill-rule="evenodd" clip-rule="evenodd" d="M186.794 11.8841C155.528 -1.41365 117.999 4.67863 92.5 30.1776L0 122.678L35.3553 158.033L127.855 65.5329C131.905 61.4831 136.687 58.6053 141.777 56.9007L133 65.6776C109.982 88.6956 109.982 126.015 133 149.033C150.758 166.791 177.029 170.849 198.678 161.206C198.678 89.3553 198.678 71.3553 198.678 0L186.794 11.8841ZM191.051 78.337C197.245 86.4171 196.645 98.033 189.25 105.428L181 113.678C177.508 117.169 171.847 117.169 168.355 113.678C164.864 110.186 164.864 104.525 168.355 101.033L191.051 78.337Z" fill="#FECA36"/>
</svg>
